<svg xmlns="http://www.w3.org/2000/svg" viewBox="0 0 307.69 331.76"><defs><style>.cls-1{fill:#dc2219;}</style></defs><g id="Layer_2" data-name="Layer 2"><g id="Layer_1-2" data-name="Layer 1"><path class="cls-1" d="M20.17,112.3a258,258,0,0,0-20,31.25h0a2.94,2.94,0,0,1-.17.71.49.49,0,0,0,.55-.36A16,16,0,0,0,4,140.52c6.61-7.81,13.83-15,21.08-22.24,21.32-21.17,44.45-40,70.68-54.89,19.34-10.94,39.71-19.16,61.91-21.84a101.13,101.13,0,0,1,29.83.68c26.28,4.63,47.67,17.77,64.47,38.36,15.71,19.29,23.62,42,27.54,66.25,4.16,25.73,3.45,51.47.28,77.19a475,475,0,0,1-25.8,106c-.18.49-.62,1-.26,1.76a34.31,34.31,0,0,0,5.71-8.07c3.41-6.38,6.63-12.86,9.45-19.54,14.3-33.93,24.4-69.1,31.37-105.22a421.2,421.2,0,0,0,7.22-59.54,267.37,267.37,0,0,0-1.62-43.55c-1.71-15-5-29.48-11.93-43-10.44-20.36-25.42-35.91-47.2-44C222.19-.31,196.81-2.09,171.32,2.28c-37.87,6.5-70.53,24-98.81,49.85C52.75,70.17,36,90.83,20.17,112.3Z"/></g></g></svg>