<svg xmlns="http://www.w3.org/2000/svg" viewBox="0 0 305.32 431.33"><defs><style>.cls-1{fill:#292929;}</style></defs><g id="Layer_2" data-name="Layer 2"><g id="Layer_1-2" data-name="Layer 1"><path class="cls-1" d="M16,254.64H289.11c.14,1.55.39,3,.39,4.39,0,41.46.14,82.93,0,124.39a48,48,0,0,1-47.79,47.77q-89,.29-178,0a47.85,47.85,0,0,1-47.95-47.66c-.54-42-.16-83.93-.15-125.89C15.63,256.85,15.82,256,16,254.64Zm195.08,157c34.94,3.78,57.26-23.19,56.54-50.06-.74-27.46-.16-55-.16-82.44v-5.52H251v6.66c0,27.48.09,55,0,82.44-.11,21.74-12.82,39.7-32.75,46.73C216.07,410.23,213.85,410.82,211.07,411.66Z"/><path class="cls-1" d="M152.85,247.35H31.91c-6.66,0-13.33,0-20-.13C4.52,247-.34,241.81,0,234.73c.32-6.34,5-10.77,12-10.9,8.32-.16,16.65-.05,25-.05q51.47,0,102.93,0,52,0,103.93-.15,23.49,0,47,0c3.68,0,7.3.16,10.29,2.9,3.77,3.46,5.18,8,3.55,12.63a11.22,11.22,0,0,1-10.38,8c-3.32.26-6.66.17-10,.17q-47.73,0-95.45-.09-18,0-36,0Z"/><path class="cls-1" d="M275.79,216.62H28.46c1.38-1.17,2.22-2.05,3.21-2.71,17.62-11.69,37.23-18.45,57.76-22.53,11.73-2.32,23.66-3.72,35.53-5.25,6.69-.86,8.46-3.19,6.35-9.58-2.3-7-2-13.79,1.75-20.24a22.5,22.5,0,0,1,28.08-9.82c10.35,4.22,16.32,16,13.66,27.07-.31,1.29-.8,2.54-1.19,3.81-1.54,5.17.31,8,5.66,8.64,8.42,1,16.89,1.81,25.25,3.19,22.8,3.77,44.8,10,64.81,22,2.14,1.28,4.16,2.76,6.2,4.19C275.71,215.53,275.67,216,275.79,216.62ZM152.41,182.09c7.32.13,13.45-6.09,13.54-13.74s-6-14-13.33-14c-7,0-13.05,6.11-13.24,13.53C139.18,175.51,145.1,182,152.41,182.09Z"/><path class="cls-1" d="M221.77,37.08c-.2-11-1.85-18.78-5.5-26-1.34-2.67-2-5.34-.21-8,2.75-4.24,8.74-3.86,11.42.89a58.63,58.63,0,0,1,6.79,20.73,66.11,66.11,0,0,1-9.8,46.24c-9.77,15.51-9.69,32-3.15,48.79.42,1.09,1,2.09,1.45,3.18,1.47,3.85.29,7.33-3,8.94s-6.88.49-8.86-3.15a60.39,60.39,0,0,1-6.69-21.28c-2.14-16.45.89-31.71,10.2-45.65A46,46,0,0,0,221.77,37.08Z"/><path class="cls-1" d="M136.65,98.06a67.7,67.7,0,0,1,10.72-35.9c9.72-15.36,9.85-31.67,3.52-48.31-.59-1.55-1.46-3-2-4.55-1.32-3.52-.07-7,3-8.54a6.41,6.41,0,0,1,8.9,3,73.79,73.79,0,0,1,5.4,13.9c4.63,18.77,2.29,36.46-8.24,53.09-9.93,15.68-9.83,32.34-3.09,49.25a40.86,40.86,0,0,1,1.71,4.13,6.44,6.44,0,0,1-3.26,7.61,6.37,6.37,0,0,1-8.38-2.14,33.79,33.79,0,0,1-3.44-7.17,78.47,78.47,0,0,1-3.11-11C137.48,107,137.18,102.51,136.65,98.06Z"/><path class="cls-1" d="M101.64,33.74c0,14-3.09,25.42-9.76,35.8-10.29,16-10.71,32.76-3.92,50.08.48,1.24,1.17,2.4,1.62,3.64,1.3,3.54,0,6.87-3.1,8.45s-7,.82-8.54-2.65c-2.6-6.07-5.25-12.31-6.48-18.74C68.15,93,71.4,76.81,81,61.65c9.79-15.51,9.52-32.09,2.83-48.8-.56-1.39-1.33-2.7-1.8-4.11A6.49,6.49,0,0,1,84.78,1a6.42,6.42,0,0,1,8.49,1.63,34.52,34.52,0,0,1,3.39,6.63A62.1,62.1,0,0,1,101.64,33.74Z"/></g></g></svg>