<svg xmlns="http://www.w3.org/2000/svg" viewBox="0 0 347.1 258.39"><defs><style>.cls-1{fill:#292929;}</style></defs><g id="Layer_2" data-name="Layer 2"><g id="Layer_1-2" data-name="Layer 1"><path class="cls-1" d="M215.28,65.92c.71-1.72,1.45-3.44,2.14-5.18,3.05-7.68,1.68-14.57-3.67-20.81A84.46,84.46,0,0,1,206,30.14c-6.45-10.27-3.45-22.85,6.64-29A5.12,5.12,0,0,1,215.14.4c-.46,1-.93,2-1.37,3-1.81,4.18-3.11,8.44-2.32,13.1.72,4.21,3,7.56,5.65,10.73,2.47,3,5.21,5.76,7.16,9,4.57,7.66,4.91,15.54-.27,23.15a18.8,18.8,0,0,1-8.28,6.92Z"/><path class="cls-1" d="M132.07,0c-1,2.27-1.76,4-2.45,5.85-3.06,7.91-1.49,14.9,4.11,21.19a71.84,71.84,0,0,1,7.37,9.19c6.23,9.87,3.81,21.84-5.47,28.36a9.6,9.6,0,0,1-3.56,1.54c.23-.62.47-1.24.69-1.86a78.44,78.44,0,0,0,2.61-7.4c1.67-6.67-.79-12.2-5-17.22a98.88,98.88,0,0,1-7.5-9.39A20.47,20.47,0,0,1,124.79,5,17.16,17.16,0,0,1,132.07,0Z"/><path class="cls-1" d="M173.61.08c-.85,2-1.55,3.65-2.23,5.29-3.4,8.16-1.71,15.34,4.07,21.83a76.7,76.7,0,0,1,7.22,9,20.47,20.47,0,0,1-1,24.14c-1.63,2-3.87,3.5-5.89,5.15a10.81,10.81,0,0,1-2.37,1c.87-2.05,1.54-3.6,2.19-5.15,3.49-8.33,1.86-15.66-4.13-22.27a68.56,68.56,0,0,1-6.92-8.6c-5.15-8-4.64-17.51,1-24.58A18.31,18.31,0,0,1,173.61.08Z"/><path class="cls-1" d="M347,194c-1.13-12.64-12.76-20.41-21.55-19.52-1.54.15-2.2-.56-2.89-1.69a90.2,90.2,0,0,0-11.95-15.31c-12.38-12.92-27.4-21.86-43.73-28.71a179.76,179.76,0,0,0-30.24-9.48,236.59,236.59,0,0,0-42.86-5.85c-12-.46-24.12-.43-36.17-.14a240.16,240.16,0,0,0-42,4.93A188.92,188.92,0,0,0,84.69,127c-11.91,4.62-23.28,10.17-33.61,17.76-10.56,7.77-19.65,16.9-26.6,28.07a2.82,2.82,0,0,1-2.94,1.6c-5.77-.38-10.64,1.89-14.68,5.79-12,11.57-7.62,32,8.08,38A5.76,5.76,0,0,1,18.16,221c3.38,6.1,6.79,12.19,10.3,18.22,1.89,3.25,3.64,6.69,6.1,9.49a27.62,27.62,0,0,0,21.76,9.66q58.62-.11,117.25,0,58.38,0,116.77,0c11.77,0,20.39-5.15,26.14-15.34,4.19-7.43,8.43-14.84,12.62-22.27a5,5,0,0,1,2.64-2.37A23.33,23.33,0,0,0,347,194ZM146,132.15c9-.56,18-1,25.48-1.47,9.35.36,17.16.34,24.92,1a224.54,224.54,0,0,1,38.75,6.52,153.17,153.17,0,0,1,32.71,12.71c.87.46,1.74.93,2.57,1.46,2.81,1.79,3.69,5,2.11,7.66S267.9,163.43,265,162c-3.73-1.88-7.4-3.92-11.21-5.62-12.75-5.7-26.15-9.11-39.88-11.37-17.49-2.87-35.11-3.41-52.78-2.81-4.75.17-9.5.65-14.25,1-3.57.23-6.14-1.77-6.41-5A5.75,5.75,0,0,1,146,132.15Zm-17.84.73a7.17,7.17,0,0,1,6.92,7.18,7.21,7.21,0,1,1-6.92-7.18Zm86.73,111.17a27.62,27.62,0,0,1-4.17.22H134.81q-35.36,0-70.71,0c-3.12,0-6.25.08-9.34-.2a5.23,5.23,0,0,1-4.61-6.57,5.12,5.12,0,0,1,4.1-4.11,15.68,15.68,0,0,1,3.43-.26q77,0,154,0a15.38,15.38,0,0,1,3.9.4,5.41,5.41,0,0,1-.69,10.51Zm18.88,1.66a7.14,7.14,0,0,1-7-7.07,7.29,7.29,0,0,1,7.13-7,7.17,7.17,0,0,1,7,7.13A7,7,0,0,1,233.74,245.71Zm102-46.69a12.18,12.18,0,0,1-11.24,9.76c-.9.06-1.81,0-2.71,0H24.21c-6.26,0-10.67-3-12.5-8.45-1.92-5.75.28-11.38,5.47-14a5.7,5.7,0,0,1,5.41-.29c2.51,1.21,4.68.54,6.73-1.33,10.94-9.93,23.51-12.08,37.29-7.33,7.15,2.47,13.27,6.8,18.8,11.92,3.43,3.17,5.36,3.13,9.3.5,10.33-6.88,21.25-8.75,32.83-3.15A68.72,68.72,0,0,1,143.85,198c3.34,3.05,6,3,9.13-.29,5.35-5.49,12-7.75,19.54-8,6.84-.19,13.21,1.24,18.76,5.43a26.47,26.47,0,0,1,3.07,2.83c2.65,2.75,5.63,2.95,8.43.38a72.35,72.35,0,0,1,15.12-11c12.32-6.55,24-4.95,35.17,2.86,2.91,2,5.32,2,7.94-.43a66.25,66.25,0,0,1,17-11.58c13.64-6.43,31-2.91,40,6.63a5.13,5.13,0,0,0,6.33,1.18c2.29-1.13,4.28-.57,6.27.62A11.06,11.06,0,0,1,335.76,199Z"/></g></g></svg>