<svg xmlns="http://www.w3.org/2000/svg" viewBox="0 0 228.69 232.75"><defs><style>.cls-1{fill:#292929;}</style></defs><g id="Layer_2" data-name="Layer 2"><g id="Layer_1-2" data-name="Layer 1"><path class="cls-1" d="M56.07,207.86c-10.78-2.65-21-5-31.12-7.69-13.34-3.54-20.61-12.39-23-26C-.1,162.13-.79,150,1.13,138c1.43-9,4.56-17.67,7.11-26.44,1.11-3.82,2.64-7.51,4.12-11.66C9.24,97.59,6.17,95.36,3.18,93-.1,90.51-.86,87.5,1,84.94s5-2.6,8.4-.22c2,1.41,4,2.88,6.49,4.64l2.55-6.91c-1.52-.82-2.69-1.41-3.81-2.07a11.3,11.3,0,0,1-6-10.79c.25-4.87,2.65-8.8,7.37-10.34,3.14-1,4.32-2.89,5.36-5.72,2.71-7.45,8-13,14.24-17.64,12.52-9.41,27-14.31,42-17.64,2.58-.57,5.18-1.08,8-1.66-.09-1.3-.19-2.41-.24-3.52C85.14,6,90,.3,97.09.16c11.33-.22,22.66-.2,34,0,7.23.11,12,5.37,12,12.59,0,1-.11,2-.21,3.43,3.24.67,6.46,1.3,9.66,2,14.77,3.15,28.93,7.88,41.37,16.76,7.6,5.44,13.78,12,16.59,21.26a5.16,5.16,0,0,0,2.34,3,12.1,12.1,0,0,1-1.4,22.51c-.29.1-.51.41-1.2,1l2.31,6.83c2.54-1.81,4.62-3.37,6.78-4.83,3.43-2.32,6.6-2.09,8.35.54s1,5.38-2.09,7.74-6.13,4.53-9.35,6.9c1.77,5.15,3.66,9.94,5,14.86,2.44,8.64,5.55,17.25,6.62,26.08a98.38,98.38,0,0,1-3,40,26.15,26.15,0,0,1-18.29,18.36c-9.24,2.74-18.69,4.77-28.06,7.07-1.92.47-3.86.79-6,1.23-.74,10.37-4.86,18.57-14.48,22.94s-18.51,2.55-26.85-4.09c-5,3.73-10.45,6.46-16.86,6.43-6.25,0-11.71-2.26-16.78-6.48-8.17,6.27-17.13,8.72-26.94,4.24C61.05,226.07,56.67,218.08,56.07,207.86ZM205.74,101.11a15,15,0,0,0-.26-2.15c-1.23-3.62-2.43-7.26-3.75-10.85-2.43-6.57-1-6-8.25-6q-79.21,0-158.41,0c-1,0-2,.09-3,0-2.41-.25-3.59.91-4.34,3.12Q23.4,98,18.8,110.69c-.74,2-.21,3.38,1.22,4.87,5.6,5.77,13.16,6.23,19.16.78,2.83-2.56,5.21-5.62,8-8.25,10.36-9.79,24.25-9.65,34.48.31,2.15,2.09,4.06,4.42,6.15,6.56,6.88,7,14.5,7.06,21.42.16,2.82-2.82,5.4-5.92,8.43-8.51a23.55,23.55,0,0,1,30.74-.06c1.38,1.15,2.69,2.38,4.22,3.74,4.33-5.26,9.45-8.44,16-9s12,2,17,6.06C191.37,102.14,198,100.49,205.74,101.11Zm-5.55-43.29c-.39-4.06-2.7-6.68-5.05-9.18-7-7.46-15.9-12-25.35-15.48-21.78-8-44.37-10.23-67.36-8.61-16.88,1.18-33.32,4.51-48.76,11.76-6.82,3.2-13.31,7-18.27,12.8-2.07,2.43-3.58,5.34-5.78,8.71Zm-85.93,126c-4.22,6.12-8.35,11.65-12,17.49a13.56,13.56,0,0,0,3.36,17.92,13.78,13.78,0,0,0,17.49-.2,13.59,13.59,0,0,0,3-18C122.54,195.43,118.58,190.08,114.26,183.83Zm33.64,0c-3.12,4.49-5.76,8.46-8.6,12.28a8.08,8.08,0,0,0-1.41,6.9,28.69,28.69,0,0,1-.06,10.85c-.75,3.37.45,5,2.93,6.49a14,14,0,0,0,16.63-1.81c4.57-4.29,6-11,2.83-16.4C156.58,196,152.3,190.28,147.9,183.8Zm-67.28,0c-4.45,6.54-8.74,12.26-12.37,18.37-3.26,5.47-1.55,12.56,3.3,16.71A13.89,13.89,0,0,0,88.23,220c2.13-1.39,3-2.84,2.54-5.74-.61-4,0-8.21-.06-12.33,0-1.55,0-3.37-.8-4.59C87.18,193,84.13,188.85,80.62,183.8Zm77.65-61.38a12,12,0,0,0,11.51,12.48,12.3,12.3,0,0,0,12.39-11.2,12,12,0,0,0-11.34-12.65A11.86,11.86,0,0,0,158.27,122.42Zm12.8,34.81a7.14,7.14,0,0,0-6.92-7c-4.29-.05-6.77,2.94-6.67,8,.07,3.68,2.5,6,6.3,6.11A7.12,7.12,0,0,0,171.07,157.23Zm-34-9.21c3.87,0,7-2.48,7.06-5.63.09-3.57-3.67-7.92-6.9-8-3.65-.07-7.35,3.31-7.4,6.77S133.37,148,137.1,148Z"/></g></g></svg>