<svg xmlns="http://www.w3.org/2000/svg" viewBox="0 0 916 750"><defs><style>.cls-1{fill:none;}.cls-2{fill:#292929;}.cls-3{fill:#e9e7e7;}</style></defs><g id="Layer_2" data-name="Layer 2"><g id="Layer_1-2" data-name="Layer 1"><rect class="cls-1" width="916" height="750"/><g id="Hand"><g id="Middle_Fing"><path class="cls-2" d="M398.43,451.62c-2.31-2.54-.59-5.17,0-6a36.52,36.52,0,0,0,1.87-3.28c.63-1.19,1.28-2.42,2.06-3.61a18.8,18.8,0,0,0,3-11.49,30.25,30.25,0,0,0-1.29-6c-.35-1.22-.71-2.48-1-3.77a24.93,24.93,0,0,1-.37-5.65,24.18,24.18,0,0,0-.17-4.12,21.93,21.93,0,0,0-2.82-6.91c-.62-1.14-1.26-2.32-1.81-3.53-1.07-2.4-2.12-4.8-3.18-7.2q-1.17-2.66-2.35-5.31l-7.3-16.44c-5-8-6.73-17-5.17-27.56a14,14,0,0,1,5.26-9.35,10.44,10.44,0,0,1,6.42-2.63c2.8,0,5.35,1.62,7.56,4.81l1.65,2.39A142.5,142.5,0,0,0,409.77,348a29.92,29.92,0,0,0,6.33,5.19c3.74,2.54,7.61,5.17,9.64,10.51l1.38,3.61c2.3,6,4.68,12.19,6.6,18.44.94,3,1.82,6.15,2.68,9.14,1.41,5,2.88,10.1,4.6,15,.53,1.52,1,3.05,1.53,4.58.72,2.22,1.46,4.52,2.3,6.71.93,2.43,1.45,3,1.65,3.21.36-.07,1.27-.6,3.45-2.56,8.19-7.36,10.69-20.07,12.9-31.27.33-1.65.64-3.27,1-4.84,2-9.36,2-17.53,2-27v-1.93c0-2.9-.13-5.88-.26-8.76a105.82,105.82,0,0,1,.1-16.21c0-7.31.57-15.65,7.13-22.28,4.87-5.76,11.48-6.67,16-6.85h.5c3.68,0,5.71,1.93,6,5.72.77,8.94,2.1,18,3.38,26.67,1,6.57,2,13.35,2.72,20.08,1.28,11.37-.31,22.32-1.86,32.91-.83,5.77-1.7,11.72-2.09,17.67a5.62,5.62,0,0,1-.6,2.46,5.24,5.24,0,0,1-1.3,1.47c-7.2,6.16-16.93,13.64-28.3,16.92-9.43,2.72-18.3,7.58-26.88,12.28-2,1.1-4,2.2-6,3.27-12.22,6.52-23.16,9.73-34.42,10.1l-.93,0Z"/><path class="cls-3" d="M489.31,304.73c2.57,0,3.8,1,4,3.9,1.37,15.72,4.34,31.15,6.11,46.79,2,17.25-2.84,33.26-4,50.23a2.76,2.76,0,0,1-1.19,2.54c-8.05,6.87-17.27,13.55-27.56,16.52-11.84,3.41-22.46,9.93-33.29,15.71-10.58,5.64-21.52,9.46-33.55,9.86-1.14-1.26-.59-2.43.17-3.6,1.46-2.21,2.47-4.67,3.93-6.89a20.77,20.77,0,0,0,3.36-12.73c-.25-3.45-1.59-6.67-2.31-10s0-6.43-.52-9.66c-.6-3.94-3.18-7.37-4.78-10.95-1.86-4.16-3.68-8.34-5.53-12.5q-3.68-8.3-7.36-16.57c-5.15-8.12-6.34-17-5-26.33a12.11,12.11,0,0,1,4.51-8.07,8.65,8.65,0,0,1,5.19-2.2c2.16,0,4.1,1.33,5.92,3.95a180.93,180.93,0,0,0,10.72,14.62c5.06,5.9,12.63,7.25,15.62,15.1,2.76,7.25,5.66,14.51,7.94,21.93,2.49,8.07,4.52,16.27,7.3,24.24,1.32,3.77,2.43,7.62,3.86,11.35,1.18,3.09,2.12,4.5,3.44,4.5,1.17,0,2.64-1.1,4.86-3.09,9.93-8.92,11.88-24.75,14.49-37.17,2.15-10.22,2-19.11,2-29.33,0-8.29-1.07-16.57-.16-24.87,0-7.71.75-15.17,6.61-21,3.82-4.56,8.95-6,14.64-6.2h.42m0-4h-.58c-4.92.2-12.06,1.19-17.44,7.5-6.68,6.79-7.64,15.3-7.65,23.53a108.35,108.35,0,0,0-.1,16.4c.13,2.86.27,5.81.26,8.67v1.92c0,9.35,0,17.43-1.95,26.59-.34,1.58-.66,3.2-1,4.86-2.15,10.9-4.58,23.26-12.27,30.17-.6.53-1.07.94-1.45,1.24q-.19-.45-.45-1.11c-.82-2.15-1.53-4.32-2.27-6.62-.49-1.51-1-3.07-1.54-4.62-1.71-4.87-3.16-10-4.57-14.92-.86-3-1.74-6.12-2.68-9.18-1.95-6.31-4.34-12.54-6.65-18.57L427.61,363c-2.26-5.92-6.58-8.85-10.38-11.44a28.6,28.6,0,0,1-5.94-4.84,140.83,140.83,0,0,1-8.82-11.9l-1.65-2.39c-2.62-3.76-5.71-5.67-9.21-5.67A12.39,12.39,0,0,0,384,329.8a16,16,0,0,0-6,10.64c-1.63,11,.12,20.4,5.37,28.8l5,11.2,2.26,5.1q1.17,2.63,2.32,5.25c1.07,2.42,2.14,4.85,3.22,7.26.57,1.28,1.23,2.5,1.87,3.68a20.92,20.92,0,0,1,2.61,6.25,23.18,23.18,0,0,1,.14,3.79,26.8,26.8,0,0,0,.42,6.1c.29,1.36.66,2.65,1,3.9a28.32,28.32,0,0,1,1.21,5.58,16.76,16.76,0,0,1-2.71,10.24c-.83,1.27-1.51,2.55-2.16,3.78s-1.15,2.17-1.77,3.12c-2.74,4.16-1,7.1.21,8.48l1.25,1.37,1.84-.07c11.58-.38,22.8-3.66,35.3-10.32,2-1.08,4.07-2.2,6-3.29,8.49-4.64,17.26-9.45,26.48-12.11,11.73-3.38,21.68-11,29-17.32a7.36,7.36,0,0,0,1.75-2,7.46,7.46,0,0,0,.84-3.29c.39-5.89,1.25-11.81,2.08-17.53,1.56-10.71,3.18-21.79,1.86-33.42-.76-6.76-1.76-13.57-2.72-20.14-1.28-8.7-2.6-17.68-3.37-26.56-.42-4.87-3.28-7.55-8-7.55Z"/></g><g id="Last_Fing"><path class="cls-2" d="M355.52,465.71a2.78,2.78,0,0,1-2.48-1.36c-.36-.6-1.3-2.19,1.51-7.28a90.46,90.46,0,0,0,4.77-9.93,9.22,9.22,0,0,0,.62-1.92c.39-2.41-.39-5.25-1.15-8-.26-1-.54-1.93-.75-2.87-.67-2.93-1.37-5.89-2.07-8.86-1.41-5.94-2.86-12.09-4.08-18.14-.19-.93-.39-1.88-.59-2.84-.45-2.14-.91-4.36-1.31-6.6-1-5.37-1.91-12.38-.6-19,.53-2.64,1.41-7.05,5.68-8.73a7.08,7.08,0,0,1,2.55-.49c7,0,12,10.68,14.65,16.42l.59,1.25,9.84,20.48c.76,1.58,1.42,3.14,2.06,4.65,1.69,4,3.28,7.72,6.26,10.93,3.68,4,4.79,8.31,6,12.9.14.54.28,1.09.43,1.65.1.38.89,3.43,1.63,6.38.38,1.49.74,2.95,1,4.05.47,2,.85,3.6-1,4.18l-8.39,2.73c-10,3.24-20.3,6.59-30.47,9.84a12.19,12.19,0,0,1-3.18.43l-1.15.07A2.48,2.48,0,0,1,355.52,465.71Z"/><path class="cls-3" d="M357.62,371.73c6.28,0,11.45,12.39,13.44,16.54l9.84,20.48c2.75,5.72,4.25,11.33,8.65,16.07,3.75,4,4.57,8.52,5.93,13.7.2.75,3.15,12.15,3,12.2-12.94,4.2-25.88,8.42-38.84,12.56a19.55,19.55,0,0,1-3.93.42h-.18c-2.36,0,.58-5.3.79-5.68a96,96,0,0,0,4.86-10.13,11.07,11.07,0,0,0,.75-2.37c.6-3.77-1.1-8-1.93-11.62-2-8.84-4.32-17.94-6.14-27-.62-3-1.31-6.19-1.89-9.4-1.1-6.09-1.77-12.37-.61-18.22.6-3,1.39-6,4.45-7.25a5,5,0,0,1,1.82-.36m0-4v0h0a9,9,0,0,0-3.27.63c-5.3,2.07-6.35,7.36-6.92,10.2-1.38,6.92-.41,14.17.59,19.71.41,2.26.87,4.49,1.32,6.64.2,1,.4,1.91.59,2.85,1.23,6.08,2.68,12.24,4.09,18.2.69,2.91,1.4,5.92,2.07,8.84.22,1,.5,2,.77,3,.7,2.54,1.43,5.16,1.11,7.14a7.63,7.63,0,0,1-.5,1.49,91.87,91.87,0,0,1-4.66,9.7c-3,5.46-2.3,7.91-1.5,9.28a4.81,4.81,0,0,0,4.21,2.34l.58,0c.3,0,.66,0,1-.06a13.55,13.55,0,0,0,3.7-.53c10.19-3.25,20.52-6.61,30.51-9.85l8.36-2.71c.57-.19,3.4-1.31,2.61-5.13-.08-.34-.19-.83-.33-1.42-.26-1.11-.62-2.58-1-4.07-.75-3-1.54-6-1.64-6.41-.14-.55-.28-1.1-.42-1.63-1.19-4.64-2.41-9.43-6.45-13.77-2.74-3-4.19-6.38-5.88-10.35-.65-1.53-1.32-3.11-2.1-4.73l-9.83-20.48c-.18-.36-.37-.77-.59-1.24-2.86-6.14-8.19-17.57-16.46-17.57Z"/></g><g id="Pointer_Ping"><path class="cls-2" d="M5.34,556l2,0c29.27-.56,73.73-1.53,76.24-1.91,3.62-.7,7.27-1.38,10.91-2.07,19.21-3.62,39.07-7.36,58.07-13.21a28,28,0,0,0,10.35-6.08,234.34,234.34,0,0,0,30.06-32l3.31-4.23c7.84-10.06,15.95-20.46,25.09-28.68,9.34-8.41,18.35-14.12,29.85-20.6s24-9.52,36.24-12.54c9.57-2.36,19.47-4.81,28.56-8.8,10.38-4.57,19.13-13.32,26.32-21.27a88.26,88.26,0,0,0,5.86-7.54,76.77,76.77,0,0,1,7.13-8.94A38.76,38.76,0,0,1,364,381.7c6.66-3.81,12.21-8.53,18.1-13.53l.61-.53c1.36-1.15,2.6-2.3,3.8-3.42,4.67-4.34,9.08-8.43,17.24-9.24,1-.09,1.95-.14,2.92-.14,7.63,0,14.4,2.84,18.58,7.78l.13.15.09.17c4,7.18,1.79,14.91-.17,21.73-.42,1.45-.81,2.83-1.15,4.19-1.93,7.73-7.87,13.65-13.11,18.87l-1.92,1.92c-7.34,7.44-15.47,14.16-23.32,20.65-6.85,5.66-13.92,11.51-20.4,17.78-1.35,1.31-2.78,2.56-4.16,3.77-1.87,1.64-3.65,3.19-5.29,4.92a30,30,0,0,0-2.42,3.13,4.81,4.81,0,0,1,.53-.2,9.5,9.5,0,0,1,2.94-.34c.32,0,.64,0,.95,0,3.51-.22,7.54-2,11.43-3.73,2.24-1,4.35-1.92,6.41-2.59a204.76,204.76,0,0,1,20.3-5.56l.64-.4a8.62,8.62,0,0,1,2.29-1.33l.34-.12h.74c9.16,0,18.28-2.57,29.58-8.31L436,434c11.17-5.77,22.73-11.73,35.09-15.78,8.58-2.81,15.33-9.28,21.86-15.54l.41-.39.56-.12a6.06,6.06,0,0,0,2.77-1.86l.42-.38c4.71-4.33,9.17-9.23,13.49-14,8-8.79,16.26-17.87,26.7-24.05,2.18-1.29,4.36-2.86,6.47-4.37a63.14,63.14,0,0,1,9.91-6.25,36.82,36.82,0,0,1,14.7-3.28c7.1,0,12.13,2.57,14.54,7.43s-2.32,9.28-5.46,12.19a26.28,26.28,0,0,0-2.18,2.16,51.09,51.09,0,0,0-4,5.89,41.2,41.2,0,0,1-6.21,8.34c-11.79,11.74-25.46,26-37.4,42.87-1.48,2.09-2.91,4.23-4.3,6.3-6,9-11.74,17.53-21.66,23.36C489,464,472.43,474,456.21,484.68c-1.76,1.17-3.54,2.32-5.33,3.47-5.11,3.3-10.39,6.71-15.12,10.44a86.3,86.3,0,0,0-10,9.88c-1.76,1.94-3.57,3.95-5.47,5.85a32.77,32.77,0,0,0-5.11,7.27,45.33,45.33,0,0,1-4.25,6.49,32.05,32.05,0,0,1-13.24,9.57c-9.09,3.47-18.74,7.19-28.16,11.21-14.93,6.38-29.93,13.3-44.44,20q-5.7,2.64-11.43,5.27c-23.85,11-44.65,21.13-63.59,31.12-15,7.91-34.51,18.68-52.68,31.92-14.78,10.77-32.2,16.75-48.82,21.61-14.47,4.23-29.33,7.82-43.7,11.3-11.1,2.68-22.58,5.46-33.77,8.5a196,196,0,0,0-19.65,6.64A135,135,0,0,1,38,689.84c-9.64,2.57-29.48,6.06-30.31,6.21l-2.35.41Z"/><path class="cls-3" d="M568.4,350.05c5.36,0,10.42,1.62,12.75,6.32s-5,9.31-7.39,12.19c-3.85,4.67-5.71,9.78-10.1,14.07C550,396.28,537.29,409.89,526,425.78c-7.69,10.84-13.52,22.14-25.35,29.09C485.29,463.92,470,473.16,455.11,483c-6.86,4.53-14.14,8.91-20.59,14-5.85,4.62-10.38,10.64-15.64,15.88-4.23,4.23-5.77,9.39-9.49,13.91a30,30,0,0,1-12.41,9c-9.46,3.61-18.9,7.26-28.23,11.24-18.81,8-37.32,16.75-55.91,25.29-21.49,9.87-42.78,20.14-63.69,31.17-18.27,9.64-36.16,19.86-52.93,32.08-14.43,10.52-31.2,16.33-48.21,21.3-25.58,7.48-51.71,12.8-77.43,19.79-14.65,4-23.43,8.69-33.09,11.26s-30.15,6.17-30.15,6.17V558s73.76-1.4,76.56-1.94c23.21-4.47,46.55-8.36,69.21-15.34a29.93,29.93,0,0,0,11.08-6.49A237.24,237.24,0,0,0,194.51,502c8.59-10.95,17.84-23.38,28.15-32.67,9.34-8.4,18.43-14.1,29.5-20.33,20-11.27,43.79-12.1,64.62-21.26,10.54-4.64,19.36-13.31,27-21.76,4.66-5.16,8.14-11.5,12.93-16.42a37,37,0,0,1,8.25-6.08c7-4.05,12.83-9,19-14.27,6.69-5.69,10.49-11.27,19.94-12.2.89-.08,1.8-.13,2.72-.13,6.33,0,12.9,2.16,17.06,7.07,4.37,7.84.45,16.53-1.52,24.47-2,8.09-8.85,14.14-14.51,19.87C394,422.09,377.94,433.14,364,446.64c-3.09,3-6.53,5.63-9.51,8.75-1,1.06-6.49,8.05-4.05,8.05A4.12,4.12,0,0,0,352,463a25.81,25.81,0,0,1,2.66-1.38,14.33,14.33,0,0,1,3.41-.26c5.92-.38,12.69-4.57,18.33-6.42a203.38,203.38,0,0,1,20.11-5.51,5.17,5.17,0,0,0,1.32-.68,7.2,7.2,0,0,1,1.86-1.12h.4c10.95,0,20.86-3.63,30.49-8.53,13.46-6.85,26.67-14.17,41.17-18.93,8.91-2.91,15.87-9.52,22.63-16,1.74-.37,2.82-1.52,4.13-2.72,13.44-12.35,24.07-28.43,39.85-37.77,5.48-3.24,10.48-7.84,16.21-10.53a34.82,34.82,0,0,1,13.85-3.09m0-4a39,39,0,0,0-15.55,3.47A64.73,64.73,0,0,0,542.62,356c-2.17,1.56-4.21,3-6.31,4.27-10.7,6.33-19.07,15.53-27.17,24.42-4.29,4.71-8.72,9.58-13.36,13.84l-.43.4c-.86.81-1.37,1.27-1.82,1.36l-1.12.24-.82.79c-6.37,6.1-13,12.41-21.1,15.08-12.52,4.1-24.15,10.1-35.4,15.9l-6.35,3.26c-11,5.6-19.84,8.1-28.67,8.1H399l-.68.24a10.47,10.47,0,0,0-2.73,1.55l-.27.17h0a206.84,206.84,0,0,0-20.16,5.54c-2.15.7-4.4,1.7-6.58,2.66-3.59,1.59-7.29,3.23-10.36,3.53,1.35-1.34,2.81-2.62,4.34-4s2.84-2.49,4.23-3.83c6.42-6.21,13.47-12,20.28-17.67a309.77,309.77,0,0,0,23.47-20.79l1.91-1.91c5.43-5.41,11.58-11.53,13.64-19.8.33-1.33.72-2.69,1.13-4.13,2.07-7.19,4.41-15.35,0-23.26l-.19-.34-.25-.29c-4.56-5.4-11.89-8.49-20.11-8.49-1,0-2.09.05-3.11.15-8.84.87-13.49,5.19-18.41,9.77-1.19,1.1-2.41,2.24-3.73,3.36l-.61.52c-5.82,4.94-11.31,9.6-17.8,13.33a39.75,39.75,0,0,0-9.12,6.76,77.73,77.73,0,0,0-7.32,9.16,85.35,85.35,0,0,1-5.72,7.37c-7.05,7.79-15.61,16.36-25.65,20.78-8.92,3.92-18.74,6.35-28.23,8.69-12.35,3-25.13,6.21-36.74,12.74S229.47,457.79,220,466.32c-9.27,8.34-17.43,18.81-25.32,28.94-1.12,1.42-2.22,2.84-3.31,4.23a232.08,232.08,0,0,1-29.8,31.73,26.15,26.15,0,0,1-9.62,5.68c-18.89,5.81-38.7,9.54-57.85,13.15l-10.87,2.06c-3.46.39-47.24,1.34-76,1.89l-3.92.08V698.84L8,698c.84-.15,20.77-3.66,30.48-6.25a136.26,136.26,0,0,0,13.66-4.68,194.79,194.79,0,0,1,19.46-6.58c11.17-3,22.64-5.81,33.73-8.49,14.39-3.48,29.27-7.08,43.78-11.32,16.8-4.91,34.42-11,49.44-21.91C216.64,625.62,236.09,614.9,251,607c18.9-10,39.67-20.14,63.49-31.08l11.43-5.26c14.49-6.69,29.48-13.61,44.38-20,9.37-4,19-7.72,28.09-11.18a34,34,0,0,0,14.07-10.17,46.67,46.67,0,0,0,4.44-6.77,31.48,31.48,0,0,1,4.79-6.85c1.93-1.93,3.77-4,5.55-5.92a82.78,82.78,0,0,1,9.74-9.65c4.66-3.67,9.9-7.06,15-10.33,1.76-1.14,3.58-2.31,5.34-3.48,16.18-10.7,32.76-20.6,45.4-28,10.31-6.07,16.41-15.17,22.31-24,1.38-2.06,2.81-4.19,4.27-6.26,11.86-16.73,25.45-30.94,37.19-42.63a42.51,42.51,0,0,0,6.49-8.69,51.44,51.44,0,0,1,3.87-5.67,27.34,27.34,0,0,1,2-2c3.36-3.12,9-8.33,5.9-14.56-2.74-5.5-8.54-8.53-16.34-8.53Z"/></g></g><g id="Clock"><path class="cls-2" d="M788,307.89a6.86,6.86,0,0,1-1-.07,7.19,7.19,0,0,1-6.2-5.47q-1.37-4.74-2.68-9.5l-3.4-12.17a126,126,0,0,1-15.43,1c-30.53,0-56.78-12.33-78-36.65l-3.82,2.73q-8.49,6.09-17,12.18a8.28,8.28,0,0,1-4.88,1.71A7.63,7.63,0,0,1,650.83,248c1.43-1.15,2.93-2.2,4.38-3.22.54-.38,1.08-.76,1.61-1.15l15.74-11.26c-15.65-28.24-18-57.33-6.94-86.47,9.25-24.43,26-42.67,49.94-54.22a99.69,99.69,0,0,1,131.75,43.44c14.58,27.88,15.81,56.67,3.66,85.56-11.56,27.49-32.4,46.5-62,56.54l0,.11c.61,2.18,1.23,4.36,1.84,6.54,1.35,4.77,2.74,9.71,4.06,14.58a7.56,7.56,0,0,1-1.22,6.65A7.12,7.12,0,0,1,788,307.89ZM758.85,93.35a88.52,88.52,0,1,0,29.41,5.06A88.47,88.47,0,0,0,758.85,93.35Z"/><path class="cls-3" d="M759,83.7A97.61,97.61,0,0,1,845.54,136c14.25,27.25,15.51,55.52,3.59,83.86s-33.34,46.56-62.53,56c.18.7.33,1.33.5,2,2,7,4,14.06,5.9,21.11a5.3,5.3,0,0,1-5,6.93,4.93,4.93,0,0,1-.76-.05,5.21,5.21,0,0,1-4.54-4c-1-3.51-2-7-3-10.55-1.12-4-2.22-7.94-3.33-11.91-.09-.31-.22-.61-.31-.86a123.55,123.55,0,0,1-16.82,1.18q-45.93,0-77.69-37.31c-.4.27-.86.56-1.31.88q-10.5,7.53-21,15.07a6.31,6.31,0,0,1-3.71,1.33,5.66,5.66,0,0,1-3.49-10.08c1.9-1.53,3.93-2.88,5.91-4.3l16.33-11.7c.27-.18.52-.4.83-.65-15.81-27.67-19-56.46-7.66-86.3,9.15-24.15,25.71-41.9,48.94-53.13A97.54,97.54,0,0,1,759,83.7m0,188.46a90.43,90.43,0,1,0-30-5.14,90.47,90.47,0,0,0,30,5.14M759,79.7h0a100.88,100.88,0,0,0-44.26,10.17c-24.36,11.78-41.5,30.39-50.94,55.31-11.06,29.18-9,58.29,6.2,86.59l-4.81,3.44L655.66,242l-1.6,1.13c-1.47,1-3,2.11-4.48,3.29a9.69,9.69,0,0,0-3.62,8.63,9.75,9.75,0,0,0,9.61,8.58,10.24,10.24,0,0,0,6-2.09q8.4-6.06,16.84-12.08l2.48-1.78c21.44,23.88,47.78,36,78.34,36a126.19,126.19,0,0,0,14-.79l.9,3.2,1.74,6.26.28,1c.88,3.15,1.79,6.4,2.71,9.6a9.22,9.22,0,0,0,7.85,6.91,11.17,11.17,0,0,0,1.29.08,9.09,9.09,0,0,0,7.29-3.58,9.58,9.58,0,0,0,1.56-8.4c-1.32-4.87-2.71-9.81-4.06-14.58q-.69-2.43-1.36-4.84c29.18-10.39,49.82-29.56,61.38-57,12.39-29.47,11.13-58.84-3.74-87.27A101.38,101.38,0,0,0,759,79.7Zm0,188.46a86.38,86.38,0,1,1,81.5-57.7,86.29,86.29,0,0,1-81.5,57.7Z"/><path class="cls-2" d="M676.3,116.68c-8-13.08-7.89-30.39.19-44.09a43.68,43.68,0,0,1,45.69-21.06c14.67,2.69,25.61,11.12,32.53,25L756,79.23l-2.95.24c-30,2.39-54.09,14.65-73.55,37.47l-1.8,2.11Z"/><path class="cls-3" d="M714.31,52.81a41.64,41.64,0,0,1,7.51.69c14.32,2.63,24.56,10.79,31.1,24-30.36,2.42-55.23,15.09-74.91,38.17-7.19-11.8-7.83-28.42.2-42a42,42,0,0,1,36.1-20.79m0-4v0h0a46.22,46.22,0,0,0-39.55,22.76c-8.44,14.33-8.51,32.45-.17,46.15l2.87,4.73,3.59-4.21c19.1-22.4,42.71-34.43,72.19-36.78l5.89-.47-2.63-5.3c-7.21-14.52-18.64-23.31-34-26.12a45.69,45.69,0,0,0-8.24-.76Z"/><path class="cls-2" d="M861.31,180.14a102.93,102.93,0,0,0-34.47-75l-2.27-2,2.79-1.26a48.09,48.09,0,0,1,19.83-4.56,44.31,44.31,0,0,1,43.65,48.85c-2,18.48-14.94,31.31-26.82,35.83l-2.65,1Z"/><path class="cls-3" d="M847.19,99.29a42.31,42.31,0,0,1,41.66,46.63c-1.93,17.54-13.94,29.77-25.54,34.18a104.91,104.91,0,0,0-35.13-76.43,46,46,0,0,1,19-4.38m0-4h0A50.13,50.13,0,0,0,826.53,100L821,102.55l4.55,4.1a100.09,100.09,0,0,1,24.61,33.25,101.14,101.14,0,0,1,9.2,40.28l.12,5.67,5.3-2a45.31,45.31,0,0,0,28.1-37.48,46.32,46.32,0,0,0-45.64-51.07Z"/><path class="cls-2" d="M759.4,266.22a91.23,91.23,0,0,1-24.67-3.54l-2.05-.57,6.15-17.52-2.71-1L730,261.14l-1.94-.8c-19.41-7.9-34.06-20.95-43.55-38.8-10.66-20-12.85-41.63-6.49-64.16l.55-1.93,1.92.55.65.17c.46.13.84.23,1.22.36l14.44,5.09,1-2.7-18.13-6.37.8-2c7.9-19.2,20.85-33.72,38.51-43.15A83,83,0,0,1,758.4,97.29,92.32,92.32,0,0,1,783.75,101l2,.59-6.27,17.85,2.74,1,6.24-17.79,2,.81c19.51,8.14,34.13,21.48,43.47,39.66,10.22,19.9,12.17,41.23,5.79,63.4l-.59,2-17.3-6.07-1,2.71,17.29,6.07-.82,2C829.08,233,815.49,247.76,797,257.09A82.91,82.91,0,0,1,759.4,266.22Zm-2.58-119.39q-.32,14.88-.65,29.75a7.17,7.17,0,0,1-.79,3.12,4.18,4.18,0,0,0,.82,5.06,4,4,0,0,0,2.71,1.05h0a4,4,0,0,0,2.29-.74,6.2,6.2,0,0,1,3.35-1.22l10.77-.7-9.13-.33a3.64,3.64,0,0,1-3.51-2.41,4.12,4.12,0,0,0-1.14-1.66,5.36,5.36,0,0,1-2.44-4.52Z"/><path class="cls-3" d="M758.4,99.29a89.5,89.5,0,0,1,24.8,3.64c-2.11,6-4.15,11.8-6.23,17.73l6.51,2.29c2-5.83,4.09-11.63,6.21-17.68,18.94,7.9,33.19,20.67,42.46,38.72,10.15,19.76,11.84,40.4,5.65,61.93l-17.2-6c-.78,2.2-1.49,4.25-2.28,6.49l17.18,6c-8,19.24-21,33.62-39.44,42.89a80.62,80.62,0,0,1-36.66,8.92,89.09,89.09,0,0,1-24.12-3.46l6.1-17.39-6.48-2.28-6.11,17.4c-18.84-7.67-33.1-20.15-42.54-37.89-10.58-19.91-12.5-40.8-6.32-62.68.72.21,1.24.32,1.75.5l14.84,5.23a4.09,4.09,0,0,0,1.13.3c.41,0,.54-.34.87-1.26.57-1.58,1.11-3.16,1.76-5l-18-6.33c7.68-18.67,20.06-32.78,37.6-42.15a80.66,80.66,0,0,1,38.55-9.92m.51,88.52a5.87,5.87,0,0,0,3.46-1.12,4.18,4.18,0,0,1,2.31-.84l36.15-2.38,9.64-.66c0-.1,0-.19,0-.28l-.68-.05-15-.59q-14.24-.55-28.48-1.07a1.7,1.7,0,0,1-1.75-1.2,5.87,5.87,0,0,0-1.87-2.54,3.44,3.44,0,0,1-1.55-3q-2.51-30.43-5.1-60.87c0-.46-.1-.92-.16-1.38a.91.91,0,0,0-.28.71q-.13,5.89-.26,11.79-.56,26.1-1.12,52.21a5.46,5.46,0,0,1-.56,2.25,6.19,6.19,0,0,0,1.25,7.46,6,6,0,0,0,4,1.57m-.51-92.52A85.15,85.15,0,0,0,718,105.68c-18.07,9.66-31.33,24.52-39.41,44.16l-1.3,3.17-.08,0-.21.71v0h0l-.87,3.1c-6.51,23-4.27,45.12,6.64,65.64,9.72,18.27,24.71,31.64,44.56,39.72l2.84,1.15,0,.1.91.26.17.07v0l3,.85a93.23,93.23,0,0,0,25.21,3.61,84.92,84.92,0,0,0,38.45-9.34c19-9.55,32.89-24.67,41.34-44.93l1.2-2.88.08,0,.22-.76.13-.3,0,0,.86-3c6.53-22.68,4.53-44.5-5.93-64.87-9.56-18.6-24.52-32.26-44.48-40.58l-2.9-1.21,0-.12-1-.29,0,0h0l-3-.87a94.35,94.35,0,0,0-25.9-3.79Zm.51,88.52a2,2,0,0,1-1.36-.54,2.18,2.18,0,0,1-.39-2.66,9.25,9.25,0,0,0,.89-2.72,7.09,7.09,0,0,0,2.32,2.49,3.19,3.19,0,0,1,.47.82,6.67,6.67,0,0,0,.76,1.34,9.19,9.19,0,0,0-1.57.9,1.9,1.9,0,0,1-1.12.37Z"/></g></g></g></svg>