<svg xmlns="http://www.w3.org/2000/svg" viewBox="0 0 871.8 493.67"><defs><style>.cls-1{fill:#1a1a1a;}</style></defs><g id="Layer_2" data-name="Layer 2"><g id="Layer_1-2" data-name="Layer 1"><path class="cls-1" d="M515.54,125.44c-38.21.8-60,19.27-60,50.91,0,27.29,20.62,49,47.48,49.93,32.44,1.12,51-19.23,53-58.24,33.39,36,38.18,117.44-7.48,171.68-53.92,64.07-145.38,72-208.86,18.27-61.07-51.75-68.84-144.43-16.95-205.87C377.46,87.32,467.93,88,515.54,125.44Z"/><path class="cls-1" d="M871.8,247.94c-74.65,89.71-162.13,161-269.44,207.6.94-1.37,1.64-3,2.86-4.07A287,287,0,0,0,670,371.63c2.71-4.93,8-8.8,12.81-12.14C726,329.41,765.48,295,801.87,257c2.72-2.84,5.13-6,8.9-10.4-14.66-14.62-28.58-29.48-43.52-43.23-64.12-59-134.34-108.55-217.71-137-38-13-77.12-20.1-117.51-19.81-95.26.69-180.87,75.07-194.57,169.32-9.81,67.4,9.61,125.18,56.92,173.86a62.19,62.19,0,0,1,9.14,11.47,398.25,398.25,0,0,1-88.28-45.83c-3.71-2.54-5.88-7.92-7.81-12.39C145.33,198.6,237.06,29.87,392.05,4c60.57-10.1,119.37-.36,176.68,19.62,78,27.18,146.21,71.15,207.57,125.6C805,174.72,831,203.2,858,230.53,862.83,235.4,866.6,241.31,871.8,247.94Z"/><path class="cls-1" d="M0,246.6C73,159.43,157.92,89.32,262.16,42.94c-2.3,2.72-4.35,5.71-6.94,8.13-21.34,20-38.86,42.81-53.44,68.13a48.77,48.77,0,0,1-14.15,14.86A785.62,785.62,0,0,0,68.76,236.78c-2.73,2.87-5.21,6-8.31,9.55,1.55,2.59,2.62,5.4,4.53,7.41C128,320.42,198.76,376.79,283.24,414.27c50.29,22.32,102.64,35.35,158.2,34.49,92.53-1.43,178.34-75.64,192.41-167.1q16.06-104.43-58.65-179c-2.43-2.43-5.87-3.84-8.84-5.72l3.8-5.11c28,15.69,56.19,31.16,84,47.33,3.81,2.22,6.35,7.62,8.19,12.07,62.14,150.7-31.76,313.86-186.37,338.69-68.59,11-134.13-3.32-197.56-29C206.7,431.86,144,388.63,86.45,337.54,55.76,310.3,26.81,281.46,0,246.6Z"/></g></g></svg>