<svg xmlns="http://www.w3.org/2000/svg" viewBox="0 0 960.63 604.59"><g id="Layer_2" data-name="Layer 2"><g id="Layer_1-2" data-name="Layer 1"><path d="M79,184.39a77.16,77.16,0,0,1,6.19-6.33c21.42-17.48,43.27-34.39,66.53-49.39.94-.61,1.8-1.34,3.11-2.32l-13.5-7,.38-.94a96.43,96.43,0,0,1,9.4,4c4.26,2.34,7.65,1.94,11.88-.77a643.39,643.39,0,0,1,73.53-40.34c1.47-.69,2.89-1.5,4.32-2.25L230.6,57.76l1-.5c3,5.37,6,10.79,9.07,16.1,2.75,4.69,2.79,4.53,7.72,2.54,17.89-7.21,35.81-14.35,54-21.61-1.87-8.5-3.84-17.48-5.82-26.47l.91-.22c2.77,8.54,5.53,17.09,8.41,26l44.73-12.12c-2-8-4-15.77-6-23.59l.93-.26,7.61,23.33,36.72-6.74V0h.66c.89,11,1.77,22.05,2.68,33.45l48.57-4.05V10.56l.83,0c.48,6.07,1,12.13,1.46,18.23l69.62,3.44L515.32,25l.54,0v8.11c9,1.38,17.52,2.49,26,4,14.4,2.65,28.76,5.54,43.11,8.43,5.39,1.08,5.37,1.22,7.67-3.92a19.3,19.3,0,0,1,3.59-6c-1.23,3.7-2.45,7.41-3.82,11.55,4.81,1.31,9.62,2.5,14.36,3.95,15.11,4.6,30.18,9.35,45.3,13.92,2.91.88,6.06,1,9,1.88,1.62.51,2.8,2.34,4.41,2.93a602.63,602.63,0,0,1,74.2,33.37c2.7,1.44,4.53,1.09,6.69-.74,2.58-2.2,5.37-4.17,8.07-6.23l.79.87c-1.47,1.39-2.91,2.8-4.42,4.15s-3.25,2.82-5.47,4.72c6,3.39,11.66,6.69,17.45,9.71.86.45,2.51-.2,3.62-.71,2.35-1.08,4.58-2.41,7.34-2.85l-7.5,5.23c1.28.94,2.34,1.81,3.49,2.55,13.31,8.56,26.71,17,39.88,25.72,3.07,2.05,5.44,2.34,8.56.59a35.76,35.76,0,0,1,10.24-3.88l-12.7,7.29c2.35,1.71,4.33,3.1,6.25,4.57,8,6,16,12,23.74,18.28,2.85,2.32,5.24,2.77,8.52,1.3a138.13,138.13,0,0,1,19.94-7.35l-21.69,10.74c2.92,2.63,5.76,5.24,8.67,7.78,1.5,1.31,3.14,2.47,4.68,3.74,2.31,1.9,4.34,4.78,7,5.49s5.55-.95,8.58-1.13l-6.24,3.46c5.28,5,10.3,9.68,15.33,14.39,3,2.85,6,5.82,9.19,8.44a5.76,5.76,0,0,0,4.28,1.1c5.12-1.14,10.16-2.66,15.23-4l.31.93-15.92,5.8c4.61,4.82,8.87,9.46,13.38,13.83.8.78,2.79.85,4.06.53,11.6-2.92,23.16-6,34.73-9a9,9,0,0,1,3.29-.5,242,242,0,0,1-119.58,17.86A211.88,211.88,0,0,0,934,257.69c-32.35,6.89-64.31,4-96.11-3.71,38.73,18.23,79.17,26.83,122.71,21.53-25.16,6.95-57.46,4.88-104.67-6.55,17,15.53,34.17,30.52,50.5,46.39s31.75,32.58,47.58,48.92l-1.2,1.26L918.4,337.05c1.06,7.14,1.18,13.67-1.13,20.2a53.29,53.29,0,0,1-11.83,19.45c-30.54,32.07-66.34,57.09-105.19,77.88-58.63,31.37-121,51.89-186.46,63.1-44.41,7.61-89.06,9.06-134,7.08a917.69,917.69,0,0,1-136.27-16.14C299.7,500,257,487.54,215,472.22c-29.39-10.72-58.88-21.17-89.47-28.11a498,498,0,0,0-62.62-9.65c-15.69-1.5-31.07-4.37-44.75-12.78C7.85,415.36.91,406.65.11,394c-.91-14.11,4-26.13,13.14-36.57,9.4-10.74,21.18-18.21,34.06-24a24.19,24.19,0,0,0,9.4-7.73c11.41-14.54,23.1-28.87,34.69-43.27a21,21,0,0,0,2.54-3.66,90,90,0,0,1-38.09,8.1c20.72-2.5,39.23-9.68,54-24.83L84,266.1l-.22-1.28c3.89-.73,7.79-1.39,11.66-2.22,12-2.56,22.76-7.23,31.16-16.62,3.28-3.67,7.15-6.84,10.62-10.6-36.72,15.5-74.2,23.38-113.71,12.54,9.85.8,19.7,2.3,29.54,2.19a171.25,171.25,0,0,0,30.23-3,184.82,184.82,0,0,0,29.21-8.4,234.52,234.52,0,0,0,27.67-12.64,271.69,271.69,0,0,0,25.77-16C123.27,221.65,81,221.86,39.05,207.71c25.41,6.43,51.11,9.29,77.31,6.72,26-2.54,50.7-9.13,74-20.61l-.3-1c-10.15,1.71-20.26,3.65-30.44,5.08-29.27,4.1-58.42,3.78-87.39-2.65-2.06-.46-4.31-.06-6.31-.06-1-3.82-5.43-2.59-8.25-3.91-3.43-1.61-7.12-2.67-10.45-4.86,4.79,1.25,9.63,2.33,14.35,3.8,5,1.55,9.35,1.47,13-3,1.07-1.32,3-1.95,4.53-2.89l-7.59,8c45.07,7.3,87.94.33,130-14-12.13.51-24.1.09-35.91-3.11,10.06.26,20,1,30,.63a84.27,84.27,0,0,0,29.18-6.51c-24.9-1.85-49-6.26-71.7-18.3,1-.28,1.33-.51,1.59-.43,1.43.43,2.83.94,4.25,1.41,31.55,10.42,63.36,11.11,95.39,2.46a84.53,84.53,0,0,0,8-3l-.33-1c-1.14-.14-2.28-.35-3.42-.39a272.64,272.64,0,0,1-96.62-20.57,6.82,6.82,0,0,0-5.38.65c-22.53,14.2-44.76,28.85-65.47,45.68C87.22,178.82,83,181.5,79,184.39ZM669.36,88.22a18.84,18.84,0,0,1-2.16,2.61C648.1,107,627,119.75,603.11,127.64c-2.77.91-5.52,1.88-8.66,3,13.21,4.37,25.82,8.58,38.46,12.69a9.8,9.8,0,0,0,4.36.44c29-4.25,57-11.84,83.16-25.25,5.82-3,11.4-6.44,17.64-10-1.66-1-2.32-1.54-3.06-1.88Q707.74,94.26,680.45,82a16.87,16.87,0,0,0-3.37-.77l-18.75-7.94c-21.71,27.56-51.07,41.91-83.25,51.89a44.25,44.25,0,0,0,9.53-.36c28.06-4.15,53.17-15.47,76.37-31.45C663.67,91.49,666.57,89.92,669.36,88.22ZM60.74,349c.44,2.59.94,5.17,1.32,7.77A80.58,80.58,0,0,0,80.67,398.6c15.45,18.11,35,30.31,57.08,38.26q55.19,19.88,110.85,38.37c78.26,26.18,158.9,39,241.23,42,50,1.78,99.52-1.59,148.56-11.83,67.22-14,130.87-37.29,189.53-73.34,26.79-16.47,51.53-35.59,73.22-58.49,5.7-6,10.33-12.7,12.25-20.86,2.27-9.6.37-18.23-6.64-26.13-.92,10.79-1.86,20.84-2.57,30.9-.3,4.23-2.7,6.85-6.14,9.76,0-1.61,0-2.56,0-3.51.59-12.79,1.14-25.58,1.81-38.37.37-7.15-4.31-10.45-9.93-14,0,2.33,0,4,0,5.62A168.64,168.64,0,0,1,878.87,384c-1.29,3.32-2.9,6.23-7.12,7.88.7-2,1.17-3.53,1.75-5,9.31-23.71,11.84-48.31,10.36-73.59-.45-7.74-3.8-12.54-10.63-16,0,11.58.78,22.95-.15,34.17-2.58,31-14.23,58.67-33.37,83.16-1.4,1.78-3.44,3-5.69,5a7.22,7.22,0,0,1,0-1.54,16.87,16.87,0,0,1,1.08-1.66c27.19-35.33,37.42-75.11,32-119.27-.82-6.72-4.61-9.66-9.2-12.46,0,11.25.78,22.42-.21,33.43a167.09,167.09,0,0,1-6,32.81,159.61,159.61,0,0,1-13.14,31.18c-5.36,9.7-12.2,18.66-19.1,27.39a108.94,108.94,0,0,1-23.88,22.32,26.24,26.24,0,0,1,4-4.43c1.57-1.48,3.18-2.94,4.72-4.46,38.62-38.33,54.34-84.28,46.5-138.3-1-6.64-4.48-10.15-10.37-13.16,3.77,26.5,2.28,52-6.41,76.91-8.16,23.33-32.55,58.89-43.26,62.51,2.14-2.33,4.07-4.39,6-6.49,34.62-38.22,46.66-82.68,37.3-133.28-1.13-6.11-4.64-9-10.07-11.66,3.88,20.9,3.92,41.24-.44,61.53a131.77,131.77,0,0,1-25.34,54.79,10.17,10.17,0,0,1,1.5-5c21.88-35.32,26.87-73.17,17.43-113.34-1.22-5.18-4.7-6.89-9.32-9.26,6.21,32.07,4.36,62.52-9.55,91.67a13.39,13.39,0,0,1,.15-6.64c10-28.61,10-57.43,2.5-86.56-1.28-5-4.32-7.24-9.3-9.22,5.38,24.21,6.17,47.7-.93,71.07a11.63,11.63,0,0,1-1.37-6.57c3.54-22.46,1.57-44.45-4.7-66.23-1.37-4.79-4.58-6.7-9.12-8.69,4.85,19.6,6.87,38.7,3.79,58.44-3.75-2-3.42-4.93-3.29-7.78.77-17.85-2.07-35.15-7.52-52.12-1.38-4.3-4.05-6.37-8.6-7.82,4.26,16.93,7.15,33.41,4.54,50.45a11.76,11.76,0,0,1-2.79-6.43,153.59,153.59,0,0,0-9.5-46.79c-1.4-3.72-3.9-5.24-7.84-6.17,4.39,15.3,7.45,30.14,6,45.76-1.6-1.6-3.07-3.41-3.24-5.34a155.11,155.11,0,0,0-9.74-41.68c-1.42-3.77-3.64-6-8.12-7,4.62,14.17,7.83,28.14,8,42.87-3.29-.55-4-2.45-4.3-5a146.29,146.29,0,0,0-10.91-39.83c-1.28-3-3.06-4.85-6.94-4.65,4.66,13.31,8,26.57,8.07,40.66-1.57-1.3-3-2.83-3.28-4.56a166.42,166.42,0,0,0-12.08-38.5c-1.22-2.66-2.7-4.88-6.68-5,5,13.3,9.18,26.49,10.25,40.56-4.08,0-3.57-3.08-4-5a158.31,158.31,0,0,0-13.38-37.53c-1.15-2.31-2.44-4.24-6.11-3.93,5.83,13.47,10.62,26.91,11.94,41.39a10.12,10.12,0,0,1-2.89-4.65,173.59,173.59,0,0,0-15.73-38.25c-1.28-2.26-2.45-4.64-6.22-4.39,6.35,14,12.16,27.84,14.82,42.8a12.16,12.16,0,0,1-3.19-4.44c-6.06-13.13-12.05-26.3-18.2-39.38-.79-1.7-2.38-3-3.6-4.51l-1.13.71c24.55,48.2,31.49,98.64,18.63,151.22s-42,94.57-86.31,125.56a213.52,213.52,0,0,1-253.33-6.58c-43.64-33.91-70.68-78.45-80.24-132.85S263.44,202,292.87,154.65c-4.18.25-6.49,2-7.84,5.2q-8.46,20.25-17,40.45c-.71,1.67-1.54,3.28-2.32,4.92l-1.46-.61c3.5-15.37,8.95-30.15,14.56-45.1a12,12,0,0,0-4.57,4.47,178.36,178.36,0,0,0-15.71,40.91,28.29,28.29,0,0,1-2.07,4.53l-1.27-.63c2.29-15.41,7.12-30.13,12.51-44.9A12,12,0,0,0,263,168.4a157.85,157.85,0,0,0-14,41.5c-.37,1.94-.24,4.42-3.67,4.7,1.12-15.69,5.75-30.3,10-45.22a10.41,10.41,0,0,0-4.24,4.33,155.26,155.26,0,0,0-13,42.32c-.38,2.38-.21,5.18-4.1,5.78.88-16.27,4.91-31.68,9.48-47.23a14.46,14.46,0,0,0-5.15,5.56A147.93,147.93,0,0,0,226,224.71c-.28,2.49-.21,5.32-4.14,5.9.16-17,4.15-33,9.23-49.08-4.21.38-5.23,3-6.31,5.7-6.39,15.68-10.64,31.87-11.7,48.82-.16,2.6-.44,5-4.1,5.7-.2-18.43,3.22-36,8.27-53.65-2.14,1.36-4.27,2.81-5.22,4.82a102.75,102.75,0,0,0-4.92,13,145.57,145.57,0,0,0-7.28,43.67c0,2.53-.42,5-3.67,6-1.45-20.16,1.67-39.54,7.54-58.93-5.86,1.33-7,5.89-8.34,10-6.47,19.62-9.89,39.71-8.89,60.44.11,2.44-.35,4.43-3.06,5.6-3.17-22.91-.15-44.92,5.8-67.26-5.53,2.91-5.57,2.9-7,7a162.09,162.09,0,0,0-7.79,76.77c.33,2.54.61,4.82-2.06,7-6.22-27.38-4.74-54.06,2.27-80.87-5.5,1.87-7.14,5.91-8.43,10.36-9.18,31.66-10,63.29,0,95a36.52,36.52,0,0,1,.88,5.85l-1.67.15c-13.15-32.59-13.71-66.08-5.78-100.4-5,2.22-7.29,5.67-8.48,10.36a184.39,184.39,0,0,0-6,40.92c-.71,28.8,5.68,55.81,20,80.87a41.73,41.73,0,0,1,2,4.77l-1.39.39c-24.81-38.28-30.39-80.08-21.42-125-4.54,2.39-7.5,4.91-8.23,9.54-1.3,8.21-3.26,16.34-4.11,24.59-4.5,43.44,6.5,82.49,33.78,116.79.87,1.08,1.61,2.27,2.4,3.41l-1.07.62a156,156,0,0,1-35.76-66c-6.49-24.91-6.92-50.08-2.73-75.51-3.43,2.68-7.13,4.54-8.07,9.22a179.65,179.65,0,0,0-1.87,63.1c5.32,34.94,21.19,64.55,45.7,89.75,1.14,1.18,2.2,2.46,3.3,3.68l-.81.57c-20.86-19.24-36.66-41.89-46-68.91s-11-54.79-7.24-83.4c-7.32,5.7-8.23,6.85-9.14,12.94a179.44,179.44,0,0,0-1.06,47.83c4.68,39.16,21.32,72.48,49.14,100.32,1.19,1.19,2.29,2.47,3.42,3.71l-1.1.59c-43.68-40-61.82-90-56.74-149.28-6,4.57-8.39,7.6-8.8,11.06s-.82,7-1,10.45c-2.39,44.13,9,84.05,36.45,119.05.73.94,1.29,2,1.94,3l-.84.66a36,36,0,0,1-4.2-3.87c-3-3.78-6-7.62-8.66-11.61-21.54-31.81-31.11-67.05-30.09-105.32.05-2,0-4.07,0-6.11l-1-.22c-2.47,4.33-7.49,6.77-7.87,12.7-1.79,27.7,2.13,54.46,12.54,80.24.59,1.47,1.06,3,1.59,4.5l-1.21.69c-1.92-2.95-4.38-5.67-5.67-8.86a172.56,172.56,0,0,1-12.44-55.29c-.3-5-.58-10.07-.87-15.1a44.17,44.17,0,0,0-8,9.23A21.43,21.43,0,0,1,49,336.26a52.33,52.33,0,0,0-11.4,6.15c-14.29,9.83-26.21,21.7-30.72,39.15-1.09,4.25-1.89,9-1.14,13.21,2.57,14.44,13.58,20.61,26.8,25.56-8.5-8.67-12.91-14.6-12.8-20,7.09,12.5,18.38,18.86,31.55,22.68a55.26,55.26,0,0,1-17.81-24c8.65,13.14,21.05,21,35.5,26-13-11.57-23.09-24.69-23.32-31.56,10,17.21,24.67,27.64,42.28,34.38-21.86-19.5-36.38-40.13-35.48-49.36,4.29,7.09,8.32,15.65,14.11,22.78A119.75,119.75,0,0,0,86.84,420.2c10.07,7.7,19.8,11.65,24.88,11.6C81.57,412.08,58.93,388,60.74,349ZM380.84,181.6c-7.37-6.89-14.51-13.62-21.72-20.28-1.19-1.09-2.84-2.82-4-2.61-3.34.64-4.9-1.46-6.78-3.27-3.84-3.7-7.8-7.28-11.42-11.19-2.45-2.63-4.72-3.11-8.12-.66,3.53,3.38,6.81,6.64,10.23,9.74,12.1,11,24.26,21.85,36.37,32.8,1.76,1.59,4.26,3.18,1.21,6.25-1.48-1.12-2.93-2.19-4.35-3.3-10.11-7.89-20.18-15.83-30.35-23.66a20.33,20.33,0,0,0-4.75-2.25c-2-.82-4.41-1.07-6.05-2.34-4.87-3.77-9.5-7.85-14.11-11.94-2.11-1.88-4-2-7,.42,6.3,5.3,12.19,10.63,18.47,15.46,15.18,11.68,30.56,23.11,45.83,34.67,1.88,1.43,4.33,2.65,3.34,6.25-1.67-1-3.12-1.71-4.48-2.6q-25.12-16.34-50.25-32.7c-1.22-.79-2.87-2.08-3.9-1.76-3.16,1-5-.84-7.15-2.37-2.7-2-5.32-4-8.13-5.81a29.4,29.4,0,0,0-5.05-2l-.9,1.19c1,1.41,1.73,3.06,3,4.17a72.56,72.56,0,0,0,9.29,7.54q35,22.3,70.11,44.3c2,1.27,4.93,1.24,6.75,2.68,12,9.43,27.57,9.08,38.31-.82,10.06-9.28,11.93-27,3.1-37.71-.85-1-1-2.57-1.64-3.82q-6.5-13.15-13-26.28c-.07-.14-.22-.32-.36-.34-4.16-.48-4.55-4.32-6.12-7a97.84,97.84,0,0,1-5-9.78c-1.39-3.21-3.35-4.11-6.87-2.39L416,169.21l-1.2,1c-1.23-1-2.76-1.86-3.63-3.13-3.11-4.52-6-9.2-9-13.81-.54-.83-1.09-2.23-1.75-2.31-4.32-.47-5.13-4.29-7-7a102.07,102.07,0,0,1-5.86-9.29c-1.69-3.12-3.75-4.31-7.51-2.42l23.07,35.56c-2.77,1.81-4.34.85-5.79-1.18-2.72-3.79-5.54-7.5-8.36-11.22-.69-.92-1.48-2.47-2.28-2.5-4.5-.2-5.77-4.07-8-6.72a101.55,101.55,0,0,1-7.32-9.49c-1.94-2.91-4.09-3.22-7.36-1.5l28,35.9c-2,3.14-3.53,2.4-5.27.4-3.94-4.53-8-9-12-13.42-.87-1-2-2.55-2.91-2.5-4.11.21-5.69-3-7.89-5.3-3.2-3.39-6.41-6.78-9.42-10.34-2.31-2.73-4.57-3.22-7.54-.82,5.84,6.28,11.49,12.38,17.16,18.47s11.57,12.45,17.41,18.61C383.28,178.06,384.11,179.68,380.84,181.6ZM162,126.54c2.27.85,3.49,1.35,4.74,1.79,34.74,12.16,70.54,16.13,107.13,13.79a78.55,78.55,0,0,0,14.76-2.06c6.26-1.63,12.3-4.05,18.42-6.19a28.19,28.19,0,0,0,3.35-1.81c-28.28-8.74-50.34-24.73-66.49-48.71A682.48,682.48,0,0,0,162,126.54Zm367.27-10.11c8.5,1.57,16.65,3.08,24.8,4.55a5.15,5.15,0,0,0,2-.16c10.55-2.24,21.27-3.91,31.63-6.87,23.31-6.67,44.64-17.26,62.22-34.43,2.05-2,3.87-4.24,5.88-6.45a12.84,12.84,0,0,0-1.5-.86c-20.52-6.16-41-12.27-61.55-18.49-3.1-.95-4,.81-5.2,3a130.59,130.59,0,0,1-32.75,40.48C546.75,103.89,538.13,109.82,529.28,116.43ZM515.19,40c-2.81,25.22-7.78,49.18-17.16,72.75,5.84.58,11.07,1.15,16.31,1.57a6.32,6.32,0,0,0,2.84-.78c26.67-11.94,49.21-29,65.55-53.54,1.51-2.26,2.81-4.67,4.51-7.51C563.16,47,539.72,42.53,515.19,40Zm-70-3.16a21.84,21.84,0,0,0,0,2.7c3.22,22.84,8.7,45.05,17.82,66.32,1.78,4.16,4,6,8.55,5.47a36.19,36.19,0,0,1,9.47.25c3.64.59,5.4-1,7-4a235,235,0,0,0,18.75-46.71c2-6.83,3.62-13.76,5.41-20.62C502.22,37.27,455,34.84,445.24,36.81Zm-87.73,83.78c-26-13.46-42.68-33.85-52.88-60.76L247,81.51a15,15,0,0,0,.91,2.21c1,1.34,2,2.68,3.07,3.94,17.61,20.71,39.94,33.35,66.51,38.58,3.72.73,7.73,1.72,11.32,1.07C338,125.63,347.11,123.09,357.51,120.59Zm450.65,29.14c-1.14-.82-2.15-1.67-3.27-2.36-13.44-8.3-26.94-16.5-40.3-24.94-2.86-1.81-4.89-1.4-7.62.18a274.93,274.93,0,0,1-60.28,26.09c-9.49,2.77-19.12,5.05-28.71,7.56C687.52,170.6,780.26,166.33,808.16,149.73Zm-499.35-91c.84,2,1.24,3.29,1.84,4.43,10.54,20,25.23,35.88,46.06,45.34,10.63,4.82,21.6,8.65,33.69,6.76,6.42-1,12.9-1.71,19.35-2.54-27.68-14.45-45.61-37-57-65.69Zm148.12,52c-9-24.12-13.09-48.91-14.95-75L394.8,39.54A124.48,124.48,0,0,0,403,67.66c7,16.44,17.18,30.21,32.78,39.74C442.45,111.47,449.15,111.49,456.93,110.72ZM845.2,176.54a13.46,13.46,0,0,0-1.64-1.86C834,167.79,824.32,161,814.83,154c-2.63-2-4.7-2-7.66-.7a222.07,222.07,0,0,1-65.25,17.28c-10.67,1.15-21.39,1.71-31.79,2.51,27.47,5.35,55,3,82.45-3.22a160.78,160.78,0,0,1-22.87,6.7,242.08,242.08,0,0,1-24.12,3.69c-7.72.81-15.53.89-24.46,1.34C755.46,190.85,809,189.77,845.2,176.54Zm53.92,44.91c-9.06-8-17.33-15.36-25.81-22.53-.91-.77-3.07-.52-4.5-.14-6.73,1.79-13.34,4.11-20.13,5.65-20.6,4.65-41.47,5.19-62.44,3.2-6.88-.65-13.76-1.34-21-2C800.13,220.27,858.76,231.11,899.12,221.45ZM356,46.42c9.73,27,43.05,58.85,62.86,60.35C401.05,88.24,394,65.27,390.57,40.36Zm402.08,148c37.34,9.21,74.1,12.95,112.2,1.69-7.37-6-13.86-11.4-20.6-16.49-1.08-.82-3.47-.58-5,0a220.13,220.13,0,0,1-49.31,11.92C783.27,192.82,771,193.39,758.11,194.37Zm32.38,27.27c23.29,19.27,94.94,25.12,125,16.29-4-4.05-8.06-8-11.89-12.09-1.87-2-3.67-2.13-6.21-1.49a175.75,175.75,0,0,1-41.56,4.88C834.06,229.39,812.65,226.55,790.49,221.64ZM651,149.64c37.69-2.1,73.14-12.76,107.79-30.47l-18.17-9.64c-13.67,10-27.81,18.16-43.09,24S666.47,144.3,651,149.64ZM638.21,397.31l1-1.38c-.76-1.34-1.27-2.93-2.33-4-4.59-4.56-9-9.42-14.1-13.33-16-12.21-32.25-24-48.39-36.05-4.88-3.64-9.68-7.4-14.71-11.25l-4.05,5.54c.91.69,1.57,1.18,2.22,1.69Q584,359,610.11,379.49c5.91,4.59,11.88,9.11,18.1,13.26C631.22,394.76,634.86,395.82,638.21,397.31Zm-24.14,26.34,1-1.08c-.68-1.59-1.08-3.39-2.09-4.74-4-5.31-7.81-10.78-12.28-15.66-12.81-14-25.92-27.72-38.89-41.56-4.66-5-9.26-10-14-15.08L543.17,350a7.46,7.46,0,0,0,.66,1.24C561,370.29,578,389.43,595.25,408.39A157.79,157.79,0,0,0,608.73,421C610.18,422.26,612.27,422.78,614.07,423.65ZM368.65,263.28a10.51,10.51,0,0,0-1.66-.6c-26.45-1.39-52.89-2.87-79.35-4.07-5.62-.25-11.29.41-16.92.89-1.59.13-3.11,1.1-4.66,1.69l.07,1.44c2.26.82,4.46,2.06,6.8,2.39a186.6,186.6,0,0,0,18.84,2c19.64.8,39.29,1.36,58.94,1.92,5.75.17,11.5,0,17.52,0C368.38,266.92,368.51,265.14,368.65,263.28ZM519.9,365.21c.44,1.07.7,1.84,1.06,2.55,11.87,23.45,23.68,46.94,35.7,70.32a114.86,114.86,0,0,0,8.65,13.39c1,1.41,2.82,2.23,4.27,3.32l1.17-.79a20.43,20.43,0,0,0-.68-4.61c-2.28-5.88-4.3-11.92-7.21-17.48-11.56-22.12-23.42-44.08-35.18-66.09-.61-1.14-1.35-2.21-2.19-3.57Zm53.79-60.79c1.65.67,2.85,1.23,4.09,1.63,15.5,5,31,10.16,46.54,15q19.5,6.09,39.21,11.56c2.64.73,5.67.1,8.52.1.15-.42.29-.84.44-1.27-1.6-1.25-3-2.88-4.84-3.68A156,156,0,0,0,651,321.11c-24-7.46-48-14.67-72.07-21.95-1.06-.32-2.18-.43-3.53-.69C574.78,300.59,574.25,302.44,573.69,304.42Zm103.08-78.79-.6-1.82c-5.28-2.16-10.79-.92-16,.2-19.17,4.11-38.25,8.67-57.37,13.06-8.87,2-17.74,4.05-27.07,6.18.5,2.29.91,4.13,1.37,6.19a42.5,42.5,0,0,0,4.28-.44c17.56-3.75,35.12-7.49,52.66-11.35,11.19-2.46,22.38-5,33.48-7.8C670.77,229,673.71,227.07,676.77,225.63ZM649,382.27c.2-.56.41-1.13.62-1.69-3.45-6.43-9.66-10-15.44-13.7-21.31-13.59-42.88-26.76-64.36-40.08-1.65-1-3.33-2-5.14-3.05l-3.42,5.41c.91.74,1.5,1.32,2.18,1.76,20.74,13.55,41.46,27.15,62.27,40.59a145.54,145.54,0,0,0,14.79,8.28C643.11,381.07,646.15,381.47,649,382.27Zm-71-95.86c1.38.34,2.16.61,3,.72q31.89,4.46,63.8,8.86c7.91,1.07,15.84,2.11,23.79,2.81,3.79.34,7.85.69,12-2.63-2.49-1.19-4.27-2.45-6.23-2.91-31.34-7.32-63.53-8.21-95.58-13.56C578.43,282.43,578.24,284.19,578,286.41ZM388.24,332.19c-1,.6-1.73,1-2.37,1.45-20.39,15.26-40.83,30.47-61.11,45.87a162.72,162.72,0,0,0-13,11.65c-1.61,1.51-3.25,3.3-2,6.57a54.13,54.13,0,0,0,15.51-8.2q31.92-24.82,63.82-49.67c1-.79,1.93-1.68,3.08-2.68ZM269.58,225.58c2.28,1.69,3.5,3,5,3.64a78.51,78.51,0,0,0,11.79,4c20,4.45,40,8.67,60,13,7.75,1.67,15.5,3.36,23.69,5.14.43-2.41.77-4.3,1.16-6.45-1.89-.54-3.44-1.05-5-1.41q-20.91-4.85-41.82-9.64c-13.31-3-26.6-6.07-39.95-8.85C280,224.11,275.34,223.6,269.58,225.58Zm105.57,82.51c-1.5.47-2.45.7-3.36,1.06-23.9,9.61-47.82,19.16-71.66,28.92A123.88,123.88,0,0,0,286,345.36c-1.69,1-2.93,2.73-4.38,4.12l.56,1.16c1.7,0,3.51.39,5.08-.06,6.06-1.74,12.22-3.3,18-5.72,23-9.59,45.9-19.47,68.83-29.26,1.17-.5,2.28-1.13,3.54-1.77C376.76,311.83,376.05,310.18,375.15,308.09ZM658,366.4l.65-1.16c-1.21-1.42-2.18-3.18-3.66-4.18a161.48,161.48,0,0,0-16-10.12c-21.88-11.31-43.91-22.34-65.89-33.45-1.28-.65-2.62-1.16-4.15-1.82-1,2.07-1.89,3.8-2.82,5.65,1,.62,1.62,1.1,2.33,1.48,22.34,11.87,44.65,23.82,67.07,35.53a173.79,173.79,0,0,0,17,7.26C654.16,366.26,656.16,366.16,658,366.4ZM549.08,344.26a27.25,27.25,0,0,1,3.33,2.22c12.68,11.75,25.26,23.61,38,35.28Q604,394.21,618,406.22c2.47,2.11,5.71,3.32,8.6,4.94l1.16-1.27c-1.06-1.93-1.83-4.11-3.24-5.74a149.45,149.45,0,0,0-11.9-12.74c-18.79-17.12-37.75-34.05-56.66-51a13.63,13.63,0,0,0-2.17-1.33Zm-138.58,124,1.39.46c1.2-1.41,2.8-2.65,3.53-4.27a155.1,155.1,0,0,0,7-17.05c7.29-23.3,14.29-46.69,21.38-70.05.51-1.69.88-3.43,1.38-5.45l-6.09-1.77c-.65,1.67-1.18,2.87-1.58,4.11-6.13,19-12.32,37.9-18.33,56.91q-4.58,14.46-8.54,29.12C409.93,462.78,410.5,465.61,410.5,468.28Zm-90.38-58.2,1.07,1.13c1.56-.65,3.32-1,4.64-2,5.59-4.16,11.35-8.16,16.49-12.84,13.41-12.2,26.52-24.73,39.76-37.11,5.33-5,10.7-9.9,16.29-15.06l-4.55-4.8c-19.56,17.47-38.71,34.48-57.72,51.65a144.3,144.3,0,0,0-11.72,12.25C322.63,405.26,321.52,407.8,320.12,410.08ZM265.38,280.22c2.65.88,4.44,1.95,6.26,2,8.44.2,16.91.4,25.34.06,22.43-.92,44.84-2.1,67.25-3.21,1.42-.07,2.82-.39,4.62-.64-.33-2.35-.59-4.2-.86-6.07-1.2-.11-1.86-.24-2.5-.22-17.12.54-34.24,1-51.36,1.68-11.12.42-22.25.94-33.35,1.76C275.77,276,270.55,276.26,265.38,280.22ZM665.66,349.7l1.34-2.19c-1.2-.61-2.43-1.16-3.6-1.82-3.76-2.12-7.32-4.71-11.27-6.35-25.8-10.67-51.68-21.14-77.55-31.65a8.39,8.39,0,0,0-2.13-.21l-2.16,5.5a19,19,0,0,0,2,1.17c23.11,9.8,46.18,19.68,69.36,29.29a196.29,196.29,0,0,0,18.92,6.19C662.13,350.09,664,349.7,665.66,349.7Zm-87.2-90.89c1.25-.08,2-.08,2.84-.17,23.78-2.89,47.57-5.69,71.33-8.76,7.23-.94,14.4-2.52,21.53-4.09,2-.45,3.87-1.9,5.79-2.89l-.36-1.3c-1.72-.38-3.43-1.09-5.14-1.09a126.46,126.46,0,0,0-16,.56c-23.41,3.08-46.79,6.41-70.19,9.68-3.4.47-6.79,1.06-10.51,1.64C578.05,254.81,578.24,256.71,578.46,258.81Zm6,187,1.86-1c-.54-2.16-.73-4.5-1.69-6.45A153.2,153.2,0,0,0,576.3,423c-13.58-21.14-27.36-42.15-41.08-63.2a29.36,29.36,0,0,0-2-2.43L527.94,361c10.82,17.28,21.25,34.1,31.85,50.82q8.55,13.49,17.61,26.63C579.3,441.2,582.06,443.35,584.43,445.77ZM333.11,422.64l.85,1.12c1.57-.69,3.38-1.07,4.66-2.11a102.46,102.46,0,0,0,11.19-9.89c14.24-15.58,28.26-31.36,42.37-47.06,4.2-4.68,8.44-9.32,12.9-14.24l-4.8-4.19a10.24,10.24,0,0,0-1.32.87c-18.87,20.16-37.83,40.22-56.5,60.56C338.51,412,334.5,416.62,333.11,422.64ZM298,381.3l1,1.63c2-.5,4.18-.61,5.89-1.57,8.53-4.8,17.07-9.59,25.33-14.82,18-11.39,35.82-23,53.7-34.59.92-.6,1.73-1.39,2.76-2.22l-3.56-5.36-4.4,2.73c-20.18,12.59-40.39,25.13-60.5,37.84-5.46,3.45-10.66,7.34-15.81,11.26C300.6,377.53,299.41,379.58,298,381.3Zm71.7-127.45c-1.37-.24-2.17-.39-3-.51-20.76-2.91-41.51-5.93-62.3-8.69-9.72-1.29-19.49-2.22-29.26-3-2.45-.2-5,.71-7.49,1.1l-.18,1.54c1.8,1,3.5,2.33,5.42,2.78,6.63,1.55,13.29,3.17,20,4.06,18.48,2.45,37,4.52,55.51,6.76,6.69.81,13.38,1.66,20.19,2.51C369,257.92,369.3,256.14,369.67,253.85Zm7.69-26.17c-1.3-.69-1.85-1-2.45-1.29-23.72-10.07-47.41-20.21-71.19-30.14a139.92,139.92,0,0,0-16.1-5.21c-1.86-.51-4-.08-6-.08l-.38,1c1.42,1.28,2.66,2.87,4.28,3.79a127.39,127.39,0,0,0,14.12,7.4c24.28,10,48.65,19.82,73,29.69a18.17,18.17,0,0,0,2.28.51Zm-109.5,69.63.29,1.51c2.37.41,4.74,1.2,7.1,1.16a134,134,0,0,0,15.91-1c18.12-2.47,36.19-5.21,54.29-7.81,8-1.16,16-2.26,24.41-3.43-.46-2.34-.84-4.22-1.27-6.35-1.92.11-3.57.12-5.19.32-21.11,2.61-42.25,5.1-63.33,7.94-8.87,1.2-17.67,3-26.45,4.8C271.59,294.89,269.78,296.34,267.86,297.31Zm20.75-123c3.92,7.23,72.86,45.28,90,50.44l2.75-5.28c-1.18-.76-2-1.35-2.81-1.8-22.6-12-45.17-24.15-67.85-36a135.43,135.43,0,0,0-15.64-6.48C293.36,174.54,291.33,174.67,288.61,174.34ZM428.42,473l1.26.45c1.08-1.76,2.54-3.39,3.16-5.3,2.05-6.31,4.18-12.63,5.6-19.09,4.54-20.6,8.79-41.26,13.12-61.9.91-4.3,1.73-8.62,2.65-13.22l-6.54-1.14c-1.47,6.52-2.82,12.49-4.16,18.46-5,22-10.11,44-14.83,66.11C427.6,462.38,426.33,467.74,428.42,473ZM370.26,290.56a24.84,24.84,0,0,0-3.33.21c-18.55,4-37.12,7.8-55.61,12-11.34,2.57-22.58,5.58-33.8,8.63-2.37.65-4.46,2.32-6.68,3.52l.36,1.45c1.68.29,3.38.94,5,.82a95.65,95.65,0,0,0,13.86-1.61c17-3.8,34-7.9,51-11.85,10-2.33,20-4.57,30.35-6.92C371,294.49,370.65,292.59,370.26,290.56ZM457,374.39a31.14,31.14,0,0,0-.8,3c-3,21.56-6.13,43.11-8.89,64.7-1.2,9.37-1.72,18.84-2.33,28.28-.12,1.92.7,3.91,1.09,5.87l1.45.1c.92-1.84,2.2-3.59,2.67-5.53a162.4,162.4,0,0,0,3.66-17.53c2.37-18,4.43-36,6.6-53.95.95-7.87,1.88-15.73,2.85-23.85ZM599.5,435.56l1.53-1c-.55-1.81-.76-3.82-1.7-5.4-3.05-5.13-6-10.39-9.64-15.1-15.13-19.62-30.49-39.06-45.77-58.56-1-1.26-2-2.48-3.19-3.88l-5,4.13c.88,1.3,1.48,2.29,2.17,3.2,10.32,13.68,20.58,27.39,31,41q11.22,14.63,22.85,28.93C593.89,431.48,596.89,433.35,599.5,435.56ZM374,236.18c-1.46-.59-2.5-1.1-3.6-1.45-16.28-5.28-32.54-10.63-48.88-15.75q-18.3-5.74-36.77-10.93c-2.86-.79-6-.42-9.07-.58l-.48,1.46a25.53,25.53,0,0,0,4,3.1,69.72,69.72,0,0,0,10.45,4.69q40.65,12.81,81.4,25.34c.25.08.61-.18,1.13-.35C372.74,240.12,373.31,238.41,374,236.18Zm307.07,24.93-.3-2c-16.7-4.1-33.6-.78-50.39-.34-17.08.45-34.14,1.81-51.54,2.79.16,2.51.28,4.41.41,6.46,1.46.07,2.44.18,3.42.15,20.47-.74,40.95-1.34,61.41-2.31,10.45-.5,20.88-1.58,31.3-2.62C677.37,263.07,679.21,261.86,681.11,261.11Zm-9.34-53.24-.57-1.72c-1.75-.13-3.58-.64-5.23-.3a188.26,188.26,0,0,0-18.88,4.44c-23,7.28-45.83,14.83-68.72,22.31-1.81.59-3.58,1.33-5.56,2.07l2.17,5.92c1.7-.42,3.13-.7,4.52-1.12,19.37-5.95,38.75-11.83,58.08-17.92,9-2.84,17.94-6,26.81-9.25C667,211.32,669.32,209.37,671.77,207.87Zm4.76,107.9.19-1.63c-.72-.64-1.33-1.56-2.17-1.88-5.27-2-10.45-4.46-15.91-5.68-26.12-5.86-52.31-11.37-78.48-17a14.69,14.69,0,0,0-2.68,0l-1.41,5.91c1.15.35,1.9.64,2.67.82,11,2.54,22,5.17,33,7.58q27.76,6.06,55.6,11.8C670.32,316.29,673.48,315.77,676.53,315.77ZM500.17,476.43l1.44-.27c.42-1.67,1.2-3.34,1.2-5a118.73,118.73,0,0,0-.52-15.45c-2.72-20.77-5.71-41.51-8.61-62.26-.87-6.22-1.75-12.43-2.7-19.12l-6.59,1.3c2.8,22.52,5.43,44.48,8.3,66.41,1.21,9.21,2.77,18.39,4.47,27.53C497.6,472,499.14,474.15,500.17,476.43Zm-77.88-114c-.8,1.32-1.34,2.14-1.8,3-12.12,22.75-24.31,45.46-36.26,68.3-2.6,5-4.44,10.38-6.43,15.66-.57,1.52-.42,3.31-.6,5l1.23.56c1.41-1.25,3.11-2.29,4.18-3.78A93.1,93.1,0,0,0,390,439.89c8.24-15.77,16.25-31.65,24.36-47.49,4.52-8.85,9.06-17.69,13.76-26.85ZM681.14,279.6v-1.94c-1.77-.72-3.49-1.8-5.33-2.09a144.65,144.65,0,0,0-16.8-2.1c-25.25-1.06-50.52-1.88-75.78-2.75-1.27-.05-2.54.14-3.86.22v6.21c1.45.17,2.58.38,3.72.44,22.58,1.21,45.16,2.5,67.75,3.56,7.47.36,15,.3,22.43.11C675.9,281.19,678.52,280.18,681.14,279.6ZM466.25,375.89c-.15,1-.37,2-.43,2.92-.83,14.79-1.8,29.58-2.41,44.38-.64,15.3-1,30.61-1.26,45.92,0,2.92,1.12,5.86,1.72,8.79l1.65,0c.78-1.89,2-3.72,2.25-5.69.92-6.57,1.89-13.18,2.18-19.81,1-23.95,1.79-47.92,2.65-71.88,0-1.45,0-2.91,0-4.67ZM481.81,478l1.66-.06c.58-1.6,1.6-3.18,1.67-4.81.36-8,.88-15.95.57-23.9-.79-19.79-2-39.57-3-59.35-.25-4.62-.6-9.24-.93-14.27l-6.58.29c0,1.66,0,2.65,0,3.64.78,21.13,1.51,42.26,2.39,63.39.34,8.31.82,16.62,1.64,24.89C479.53,471.22,480.9,474.56,481.81,478Zm-120.44-33,1.87,1.1c1.88-1.75,4.05-3.28,5.6-5.28,3.68-4.73,7.33-9.52,10.53-14.57,11.22-17.74,22.23-35.6,33.34-53.41,2.37-3.79,4.78-7.55,7.35-11.6l-5.67-3.49c-.64.85-1.08,1.35-1.43,1.9-10.27,15.76-20.63,31.46-30.75,47.32-6.17,9.67-12.08,19.51-17.85,29.42C362.86,438.88,362.34,442,361.37,444.91Zm-14.61-10.32,1.43,1c1.71-1.18,3.69-2.13,5.09-3.61a170.2,170.2,0,0,0,12.3-13.76c14.73-19.3,29.24-38.77,43.82-58.19,1-1.26,1.79-2.61,2.82-4.12l-5.28-3.65c-1.33,1.6-2.42,2.84-3.44,4.15-13.84,17.68-27.78,35.3-41.46,53.11-4.74,6.17-8.92,12.79-13.16,19.32C347.8,430.51,347.45,432.66,346.76,434.59ZM571.84,232c1.19-.35,1.83-.48,2.43-.72,23.6-9.54,47.23-19,70.77-28.7a161.19,161.19,0,0,0,16-8.08c1.66-.91,2.86-2.65,4.28-4l-.69-1.12a17.3,17.3,0,0,0-4.32,0c-5.13,1.37-10.4,2.49-15.27,4.52C620.48,204.12,596,214.59,571.5,225a13.11,13.11,0,0,0-2,1.32Zm-69,139.76a32,32,0,0,0,.59,3.41c7.39,24.31,14.72,48.64,22.27,72.89A143.27,143.27,0,0,0,532,463.71c.8,1.78,2.39,3.2,4.23,5.57,2-6.56.53-11.72-1-16.65-6.54-21.09-13.36-42.09-20.07-63.13-2-6.44-4.09-12.87-6.23-19.58Zm50.48,91.21c1.62-5.75-.12-10.19-1.76-14.37-5.81-14.84-11.91-29.57-18-44.28-5.23-12.56-10.63-25-16.11-37.93L511.45,369c.38,1.26.56,2.07.86,2.83,9.6,23.88,19.13,47.8,28.89,71.61a136.12,136.12,0,0,0,7.77,15C549.85,460,551.51,461.12,553.3,462.93Zm-35.49,10.31,1.76-.4a31.55,31.55,0,0,0,.53-5.69,112.88,112.88,0,0,0-1.8-14.83c-5.58-25-11.39-49.92-17.13-74.87-.35-1.56-.79-3.1-1.28-5L493.82,374c.22,1.85.26,3.19.53,4.47,4.39,20.48,8.72,41,13.26,61.43,2,8.91,4.25,17.76,6.67,26.57C514.94,468.85,516.61,471,517.81,473.24ZM289.22,365.84c.31.53.63,1.05.95,1.58a30.24,30.24,0,0,0,5.6-1.16c6.29-2.61,12.68-5.08,18.7-8.22,20.79-10.86,41.44-22,62.14-33,1.73-.92,3.43-1.89,5.23-2.89l-3.09-5.74c-1,.44-1.77.72-2.48,1.08-22.38,11.41-44.79,22.74-67.1,34.29a166.59,166.59,0,0,0-15.29,9.39C292.08,362.36,290.76,364.26,289.22,365.84ZM393.77,463c6.89-5.46,40.2-81,42.09-94.06l-5.27-2.27a19,19,0,0,0-1.19,2c-10.13,23.87-20.34,47.7-30.28,71.65-2.28,5.49-3.68,11.36-5.29,17.1C393.42,458.81,393.77,460.45,393.77,463Zm-21.42-163.7c-1.62.41-2.58.6-3.51.89-19.54,6-39.1,11.95-58.59,18.11-9.18,2.9-18.27,6.11-27.29,9.47-2.6,1-4.84,2.95-7.93,4.9,5.12,2.6,9.1,1.1,12.71.05,16.42-4.8,32.74-9.93,49.06-15.06,12.34-3.88,24.63-7.94,37.36-12.06C373.55,303.42,373,301.57,372.35,299.25ZM568,223.1c.72,0,1.1.11,1.36,0q35.34-17.93,70.64-35.91c.82-.42,2.16-1.51,2.05-1.78-1.24-3,1.51-2.84,2.79-3.57,3-1.72,6.24-3.12,9.3-4.79a33.33,33.33,0,0,0,3.75-2.68l-.42-1.29c-1.65.09-3.47-.21-4.93.36-6.48,2.54-13.06,4.94-19.24,8.1-14.48,7.43-28.76,15.28-43.13,22.94-8.32,4.44-16.66,8.84-25.16,13.34.91,1.7,1.59,3,2.31,4.32A9.27,9.27,0,0,0,568,223.1Zm77.13-60.66c-7.24-3.68-7.94-3.76-10.71-1.9q-26.07,17.55-52.17,35.06c-7.28,4.86-14.68,9.55-22.21,14.45l3.74,5.51,59.41-37.18-2.2-2.73Zm-21.24-7.07-.43-1.06c-3.57-.25-6.94-.3-10.16,2.25-17.45,13.83-35,27.51-52.56,41.24-2,1.61-4.11,3.19-6.34,4.91l4.16,5.25c15.39-11.61,30.5-23,45.6-34.41.5-.38,1.26-1.34,1.17-1.44-2.57-3.18,1.07-3.62,2.29-4.6C612.94,163.31,618.47,159.39,623.91,155.37ZM449.64,199a12.63,12.63,0,1,0,25.25.39,12.63,12.63,0,1,0-25.25-.39ZM605.36,149c-3.19-2.32-5.22-1.47-7.5.66-13.87,13-27.89,25.78-41.81,38.69-2.62,2.44-5,5.1-7.56,7.68,1.44,1.72,2.7,3.2,4.13,4.9,12.31-11.09,24-21.66,35.77-32.25.48-.43,1.21-1.42,1.12-1.53-2.6-2.91.73-3.72,1.92-4.92C595.89,157.78,600.56,153.54,605.36,149Zm-16.64-4.69c-3.16-2.16-5.12-1.58-7.26.9-6.41,7.44-13.08,14.66-19.67,22s-13.36,14.74-20.34,22.44l5.07,4.6c9.18-9.92,18.11-19.55,27-29.2.54-.59,1.42-1.8,1.3-1.92-2.62-2.76.57-3.79,1.67-5.1C580.36,153.43,584.45,149.07,588.72,144.33Zm-49.33,44c7-8.91,13.63-17.4,20.23-25.94.64-.83,1.52-2.5,1.19-2.9-1.84-2.25.23-3.39,1.16-4.7,3.47-4.84,7.07-9.58,10.66-14.4-3-2.13-4.66-1.24-6.45,1.18-6.33,8.55-12.85,17-19.3,25.43l-13,17.13Zm-7.87-6c.69-.34,1.1-.41,1.25-.64q7.58-11.73,15.07-23.5c.28-.45.47-1.46.26-1.62-2.44-1.87-.33-3.25.52-4.62,3.06-4.93,6.23-9.8,9.37-14.7-2.78-2.18-4.45-1.64-6.14,1.13-5.19,8.53-10.64,16.9-15.94,25.36-3.15,5-6.19,10.13-9.49,15.54Zm-95.78-9.85c-3.16-7.91-6-15.13-8.93-22.33-.24-.61-.62-1.49-1.1-1.61-3.95-1-4.22-4.71-5.53-7.57q-2.4-5.2-4.36-10.59c-1.14-3.14-3-3.38-6-1.89,6.46,15.47,12.82,30.71,19.31,46.23Zm88.44,5.36c4-7.4,7.91-14.5,11.77-21.61.22-.42.55-1.14.37-1.38-2.53-3.42.45-5.86,1.62-8.47,1.85-4.14,4.11-8.09,6.22-12.15-3.36-1.51-4.91-.66-6.18,2-3.38,7-7,13.93-10.58,20.87-3,5.86-6.06,11.71-9.22,17.82ZM444.41,169c-2.24-6.87-4.28-13.15-6.34-19.41-.2-.62-.46-1.63-.84-1.7-3.91-.77-3.65-4.23-4.54-6.9-1.31-3.93-2.59-7.87-3.73-11.85-.82-2.87-2.4-3.19-5.23-1.69l14.12,44.05Zm86.38-37c-3.47-1.68-4.91-.62-6.08,2.33-4.47,11.25-9.21,22.38-13.81,33.58a30.86,30.86,0,0,0-1,3.55l6.24,2.35c2.7-6.52,5.17-12.47,7.62-18.43.32-.76,1-1.94.76-2.28-2.65-3.3.16-5.85,1.14-8.55C527.19,140.37,529,136.29,530.79,132ZM453.53,167.2c-1.21-5-2.23-9.36-3.3-13.68-.47-1.93-.45-4.78-1.69-5.56-3.26-2.06-3.11-5.18-3.78-8.12-.77-3.41-1.54-6.81-2.23-10.23-.63-3.12-2.15-4.28-5.39-2.61,3.09,13.72,6.18,27.41,9.35,41.44Zm63.77-36.93c-3.58-1.76-4.52-.08-5.31,2.55-2.76,9.25-5.69,18.44-8.54,27.65-.81,2.64-1.53,5.31-2.37,8.2l6.52,2.14c1.93-6.4,3.76-12.41,5.56-18.42.14-.45.31-1.25.13-1.37-3.15-2-1-4.41-.38-6.55C514.26,139.71,515.82,135,517.3,130.27Zm-67.2-3.62c1.77,13.44,3.5,26.52,5.28,40l7-.85c-.93-6.35-.36-12.85-3-17.58s-2.52-9.29-3.6-13.93a16.85,16.85,0,0,1-.58-3.43C455.15,128,453.72,126.66,450.1,126.65Zm54.54,2.1c-4.42-1.21-4.84,1.51-5.37,4q-3.12,14.37-6.16,28.75c-.37,1.7-.69,3.41-1.11,5.48l6.61,1.13c1.35-5.95,4.53-12,3.39-17.11-1.24-5.52.64-9.88,1.11-14.73A70.59,70.59,0,0,1,504.64,128.75Zm-33.85,36.44c0-5.65,0-10.75,0-15.85,0-.48,0-1.21-.35-1.4-3.31-2.17-2.23-5.58-2.46-8.58s-.21-6.3-.42-9.45c-.11-1.75.13-4-2.58-4-3.06,0-2.08,2.44-2,4.06q.56,16.4,1.26,32.8a11.37,11.37,0,0,0,.63,2.38Zm19,1.22c.74-6,3.16-11.92,1.6-16.42-2-5.76.1-10.63,0-15.86a57,57,0,0,1,.55-6.25c-3.51-1.88-4.41-.25-4.74,2.66-1,8.74-2.09,17.48-3.16,26.22-.35,2.88-.73,5.75-1.15,9Zm-8.69-1.28c0-5.49,1.39-11.3-.38-15.88-1.89-4.88-1.06-9.25-1.13-13.87,0-2.79,0-5.58,0-8.68l-4.29-.22c-.48,13-.95,25.66-1.43,38.65Z"/><path d="M640.71,553.32c9,2.49,16.81,5.56,22.9,12a12.75,12.75,0,0,1-2-.82,56,56,0,0,0-40.2-7.91c-6.56,1.11-13.12,2.18-21,3.49,22.45,7.26,40.33,19.19,53,38.16-1.06-1-2.19-2-3.16-3.11-16.7-18.9-37.6-29.86-62.57-33.13a12.88,12.88,0,0,0-3-.16,122.27,122.27,0,0,0-13,1.78c18.11,9,32,22.08,41.14,40-5.5-6.39-10.77-13-16.58-19.11-6.62-7-14.82-11.84-23.56-15.7a47.59,47.59,0,0,0-23.29-4.4c-9.41.74-18.87.74-29.64,1.11,13.93,11,24.4,23.27,30.17,39.09-1.06-1.8-2.11-3.62-3.19-5.41C539.42,587,530.2,576.7,518,569.2c-5.76-3.54-11.89-4.54-19.07-3.41,9.05,7.15,17.93,13.85,21.85,22.26-4-3.55-9.18-8.89-15.1-13.19s-12.12-8.61-21.17-10c7,11.82,9,23.78,8.78,36.22-.82-4.54-1.29-9.18-2.55-13.6a115,115,0,0,0-5-13,28.51,28.51,0,0,0-2.72-4.76c-2.36-3.5-5.37-5.88-10-5.22a5.57,5.57,0,0,1-1,0c-10.61-.27-12.35.45-16,10.64-2.69,7.43-4.11,15.32-6.07,22.88.2-3.5.19-7.33.69-11.09A79.14,79.14,0,0,1,453,575.22c1.11-3.78,2.78-7.4,4.33-11.42A55.29,55.29,0,0,0,433,565.67c-7.84,2.31-15.08,5.75-21.26,11.3,4.74-7.15,12.25-10.47,19.48-15.1-2-.27-4.08-.4-6.06-.84-22.73-5-41.11,3.18-57,18.79-.78.76-1.61,1.47-2.41,2.19l-1-1c4.5-4.23,8.71-8.83,13.58-12.57s10.58-6.76,16.59-10.52c-20.23-3.08-35.89,5.55-50.93,17.21,3.68-6.07,12.54-11.84,30.29-19.95-8.51-2.58-16.46-3.09-26.06.07-8.24,2.71-16.05,6.7-24,10.09,7.3-7,16.48-11.07,27.46-14.43-7.92-1.64-14.66-3.63-21.53-4.27a78.59,78.59,0,0,0-20.79.4c-6.87,1.22-13.39,4.34-20.79,6.88,7.31-5.71,15.17-8.61,24.48-11.16-3.66-1-6.26-1.63-8.85-2.33-9.48-2.54-19.05-4.82-28.42-7.71-22.36-6.89-44-4.57-65.3,4.29-.75.31-1.51.6-2.5,1,5.54-5.44,16.35-8.87,40.68-13l-58.14-23.58.41-1.06c5.21,2,10.41,4,15.63,5.93a790.12,790.12,0,0,0,155.17,40.93c25.15,3.92,50.41,7.78,75.77,9.57,29.38,2.06,58.92,2.38,88.4,2.47,89.82.24,174.64-21.94,255.94-58.78C802.78,491,823,480,843.47,469.62c1.58-.79,3.16-1.62,4.73-2.43l.76,1.35c-15.86,8.95-31.71,17.9-48.26,27.26,23.94-3.1,46.25.14,67.53,10.18-26-9.29-52.2-11.42-78.2-3.65,10.76,1.25,22.13,2.07,33.3,4A80.64,80.64,0,0,1,854.45,519a126,126,0,0,0-61.87-12.2c-18.43,1-34.76,8.26-51.17,16.09,17.25.17,33.82,3.11,49,12.08-23.07-9.78-46.59-11-70.58-4.13,16.89.81,33.12,3.94,47.81,13.08-29.74-13.62-59.44-11.74-89.66.34,10.13,2.14,19.66,4.94,27.46,12C684.6,543.41,663.1,546.18,640.71,553.32Z"/></g></g></svg>