<svg xmlns="http://www.w3.org/2000/svg" viewBox="0 0 854.23 697"><defs><style>.cls-1{fill:#ed2bbd;}</style></defs><g id="Layer_2" data-name="Layer 2"><g id="Layer_1-2" data-name="Layer 1"><path class="cls-1" d="M854.23,0H271.85C227.85,0,167.61,14.6,140,29.57,82.85,60.51,46,106.64,35.1,171.71,30,202.19,33.37,232,43.81,261a23.27,23.27,0,0,1-.5,18.32c-3.17,7.09-6.05,14.32-9.13,21.46C25.27,321.42,17,342.46,3.3,360.56c-4.55,6-4,11.67-.89,17.63,2.37,4.61,6.33,7.78,10.74,10.37A144.51,144.51,0,0,0,33.08,398c9.22,3.67,11.53,8.44,9.27,18.26C41.5,420,40.74,424,38.3,426.76c-4,4.58-2.37,8.23.46,12.28A43.79,43.79,0,0,0,48.9,449.32c1.3.95,3.05,1.54,3.34,3.58-1.2,2.6-3,5-3.64,7.92-1.66,7.6,2.34,15.29,9.94,16.24,8.28,1,10.57,6.19,12.17,13,2,8.34.76,16.77,1.25,25.14.84,14.22,10.72,24.73,24.79,26.72,10.91,1.54,21.24-1.45,31.67-3.74,22-4.84,42.75-13.8,64.27-20.22,14.1-4.21,27.07,1.25,34,14.38,2.13,4.06,3.83,8.35,5.73,12.54,0,1,.07,2.11.1,3.17,4.47,10.19,7,21,9.81,31.69,4.17,16,7.95,32.11,11.7,48.22,1.8,7.74,3.32,15.55,4.64,23.39.89,5.25-1.28,8.13-7.18,10.08-12.75,4.22-24.26,10.52-33.5,20.39-4.13,4.41-8.29,9-9.62,15.21H854.23ZM144.52,307.77c-2.15.71-4.33,1.33-6.67,2v16.47c4.49,1.36,9-.06,13.58,1.06,1.24,4.59.75,9.27.34,13.94-3.13,1.3-6.11.82-8.94.62-4.31-.31-5.55,1.56-5.3,5.53.16,2.46.44,5-.31,7.29-.57.36-.9.74-1.27.78-12.46,1.13-12.45,1.12-13.38-11a11.54,11.54,0,0,0-.57-2c-4.17-1.24-8.64.08-13.15-1V327h12.89a11.1,11.1,0,0,0,.82-2.43c0-4.41,1.07-9.17-.25-13.14-1.5-4.53-7.34-3.65-11.14-5.41a47.22,47.22,0,0,1-26.4-51.52c4-20.87,23.07-37,44-37.4,22.14-.39,41.15,14,46.35,35.12A46.28,46.28,0,0,1,144.52,307.77Z"/><path class="cls-1" d="M130.2,232.28c-17,.08-31,14.36-30.94,31.57a31.43,31.43,0,0,0,31.21,31.37c17.44,0,31.35-14.18,31.26-32A31.21,31.21,0,0,0,130.2,232.28Z"/></g></g></svg>