<svg xmlns="http://www.w3.org/2000/svg" viewBox="0 0 251.71 354.34"><defs><style>.cls-1{fill:#292929;}</style></defs><g id="Layer_2" data-name="Layer 2"><g id="Layer_1-2" data-name="Layer 1"><path class="cls-1" d="M135.5,72c-14.63-1.93-25.26,3.83-17.45,22.67-3.59,7.26-10.51,9.4-17.69,10.32a78.71,78.71,0,0,1-31.63-2.59c-1.69-.48-3.72-1.35-4.64-2.69C58.42,91.48,55,82.46,56.76,72.3c1.88-10.49,10.29-17,21-16,4.53.39,9,2,13.43,3.17,1.47.38,2.86,1,4.29,1.53l.68-1.19c-2.35-1.55-4.66-3.17-7.06-4.62a16.32,16.32,0,0,1-5.45-22.88c6.4-10.17,20.28-14.11,31.55-9.05-1,8.48-2.18,16.91-3,25.36-.17,1.71.75,3.53,1.52,6.84,2.53-17.28,7.6-32.17,12.84-47.47,4.63,1.39,8.37,4.7,13.8,3.87-3.9-3.26-9.42-3.91-11.35-10.06,2.59-.71,4.68-1.78,6.75-1.76a28.66,28.66,0,0,1,15.23,4.11c5.36,3.35,6,6.39,2.36,11.41a18.22,18.22,0,0,1-1.77,2.15C143,26.36,140.22,37,140.68,48.84c.27,6.8.17,6.8-2.12,11.12,4.26-1.88,4.72-2.73,5.22-7.93.53-5.52,1.25-11,1.91-16.52a9.1,9.1,0,0,1,7.24-8.3c4.9-1.29,9.78-3,14.77-3.54,17.16-1.72,27.62,9.94,32,23.24,1.72,5.26,0,8.09-5.34,10.21-1.5.6-3.08,1-4.59,1.6-3.35,1.33-5.91,1-8.45-2.13-5.55-6.86-15.82-9.11-24.78,1.37,2.25-1,3.54-1.42,4.76-2C170,51.69,178.07,55,181,64.35a22.44,22.44,0,0,1,1.06,8.2,47.1,47.1,0,0,1-8.26,23.27,12.06,12.06,0,0,1-9.06,5.6A64,64,0,0,1,132,97.31c-5-2.08-9.34-5.12-11.1-10.73s-.29-9,5-11.16C129,74.11,132.29,73.13,135.5,72Z"/><path class="cls-1" d="M69.84,110.28c34.55,2,39.73,1,53.18-10.69,12,7.94,25.58,9.34,39.69,8.68,8.24-.38,13.94-4.1,17.76-11.25,4.69-8.75,7.44-17.91,6.44-28-.11-1.12-.12-2.26-.2-3.8l12.08-4.12c16.14,18.38,21.24,39.26,14.59,62.63-8.08,28.35-32.56,48.13-61.9,51.29a89.81,89.81,0,0,1-41.57-5.32C86.39,161,73.83,143.42,70,119.09c-.39-2.51-.52-5.06-.69-7.59C69.26,111.11,69.64,110.69,69.84,110.28Zm108.33,14.3c7.53-.7,12.92-3.48,16.19-9.44,1.92-3.5.46-6-3.51-6-4.61,0-9.24.32-13.85.66a7.4,7.4,0,0,0-3.94,1.14c-1.69,1.36-4.1,3.15-4.17,4.84a9.27,9.27,0,0,0,3.1,6.38C173.75,123.65,176.57,124,178.17,124.58ZM197.72,96c-3.46-.11-5.71,2.06-5.6,4.31a3.64,3.64,0,0,0,3.51,3.61c2.35.34,5.14-1.72,4.68-3.85C200,98.39,198.38,97,197.72,96Z"/><path class="cls-1" d="M7.92,280.63c9.21,4.33,18.94,5.46,28.9,4.92,11.16-.6,22-2.8,31.79-8.48,8.33-4.81,15-11.16,18.58-20.32.08-.2.35-.34.73-.69a39.32,39.32,0,0,1-4.1,21.75c-5.54,11.09-14.56,17.79-26.58,20.54s-23.32,1.77-34.2-4A39.34,39.34,0,0,1,7.92,280.63Z"/><path class="cls-1" d="M73.62,234.54c8.45,2,15.11,9.4,11.41,20.29-2.82,8.3-8.75,14-16,18.41-10.56,6.44-22.28,8.62-34.47,8.75-6.48.06-13-.24-19.1-2.58a37.55,37.55,0,0,1-9-4.69A15.43,15.43,0,0,1,.83,257.07C3,250.33,7.47,245.41,13,241.36l.72.48c-.58.93-1.11,1.9-1.76,2.77-4.43,6-4.63,12.45-2.21,19.16,1.19,3.29,4,5.17,7,6.73a36.72,36.72,0,0,0,15.63,3.89,52.3,52.3,0,0,0,35.77-11.34,28.3,28.3,0,0,0,8.06-9.64c2.91-5.89,3-11.67-1.21-17.1C74.62,235.9,74.32,235.48,73.62,234.54Z"/><path class="cls-1" d="M55.55,267.22c-11.19,4.27-22.32,5.41-33.6,2.09-.25-.52-.48-.76-.46-1a30.74,30.74,0,0,1,6.56-16.68c5.37-6.7,12.49-7.2,18.94-1.52C51.13,253.78,54.52,260.41,55.55,267.22ZM34,249.71a31.79,31.79,0,0,1,13.08,4.75C43.69,250.14,39.46,248.09,34,249.71Z"/><path class="cls-1" d="M71.86,341.51c11.11-2.08,22.39-3.53,33.3-6.38a124.39,124.39,0,0,0,55.62-31.22c15.52-15,28.54-32,38.07-51.57,3.12-6.41,6.89-12.53,10.64-18.61,1.52-2.46,3.21-5.08,6.21-6,.87,1.35,1.6,2.62,2.46,3.8,2.14,2.93,4.49,5.73,6.47,8.76,1.84,2.8,4.15,4.29,7.5,3.82s6.76-.21,9.66,1.63c3.14,2,6.13,2.82,9.92-.47a71.33,71.33,0,0,1-.21,7.89c-1.11,7.67-4,14.74-7.58,21.57a141.52,141.52,0,0,1-25.29,33.88,165.91,165.91,0,0,1-39.26,29.8c-19.93,10.78-41.46,15.26-63.86,15.92a90,90,0,0,1-40.85-8c-2.06-.95-4.23-1.82-5.52-4.4C70.26,341.72,71.06,341.65,71.86,341.51Zm21,1.36a11.58,11.58,0,0,0,2.33.6,85.37,85.37,0,0,0,44.3-9.64c15.83-8.15,28.94-19.39,38.29-34.73.64-1.06,1.1-2.22,1.64-3.34C155.5,320.49,127.91,338.12,92.9,342.87ZM216.71,239.75c-1.36-1.49-2.84-3.29-5-2-2,1.16-2,3.51-1.36,5.41a10.72,10.72,0,0,0,2.73,4.54,3.45,3.45,0,0,0,5-.09,3.89,3.89,0,0,0,.74-5c-.33-.58-.73-1.12-1-1.59S217,240.12,216.71,239.75Zm4.92,11.58a3.48,3.48,0,0,0,4.74,1.25c1.3-1,1.27-2.26.38-3.5a4.1,4.1,0,0,0-5.46-.89A8.4,8.4,0,0,0,221.63,251.33Z"/><path class="cls-1" d="M222.51,229.77c1.91,2.49,3.84,5.19,6,7.71.78.92,2.11,2.1,3.08,2,5.1-.52,9.81.63,14.88,3.25a20.17,20.17,0,0,0-.62-3.43c-2.61-6.38-1.76-12.68.07-19.08a107.49,107.49,0,0,0,3.54-15c2-14.73-2.39-27.62-12.2-38.71a9.59,9.59,0,0,0-1.44-1.06c-3.13,1.74-3.93,4.65-3.94,7.89a3.17,3.17,0,0,0,2.59,3.22c8.11,2.34,11.08,8.41,11.55,16.2.75,12.23-3.75,22.61-12.14,31.1C231.11,226.59,226.68,227.67,222.51,229.77Z"/><path class="cls-1" d="M73.61,253.06c-7.68-11-20.27-14.75-30.2-8.79-1.1-5.77,2.79-12,8.72-14,8.4-2.77,18.9,1.64,22.8,9.64C77.18,244.54,76.2,248.83,73.61,253.06ZM53.22,232.18c1.42,2,3.23,2.36,4.93,2.91,5.54,1.81,11.12,3.52,15.31,8A18.33,18.33,0,0,0,53.22,232.18Z"/><path class="cls-1" d="M33.87,244.32c-9.82,4.52-13,13.56-15.68,23.28a9.93,9.93,0,0,1-5.43-4.45C9.82,257.8,10.86,249.47,15,245c4.94-5.36,13.15-6.18,18.11-1.8A6.53,6.53,0,0,1,33.87,244.32Z"/><path class="cls-1" d="M58.73,265.75c-2.41-7.74-6-14.52-12.48-19.28,4.65-6.21,22.55-.75,25.32,9.53C68.33,260.33,63.88,263.17,58.73,265.75Z"/><path class="cls-1" d="M46.08,231.72a21,21,0,0,0-5.77,11.94C39.56,241.41,39.15,239,38,237s-3.17-3.73-4.87-5.64c3.34-5.93,12.42-7.26,16.61-2.12-2.54,1.09-4.48-2.31-7.05-.94C42.27,230.61,44.27,230.87,46.08,231.72Z"/><path class="cls-1" d="M18.31,239.42a11,11,0,0,1,13.52-5.9c4,1.41,6.37,5.33,5.92,10.27-.83-.15-2,0-2.36-.47C30.92,237.48,25.11,237.34,18.31,239.42Z"/></g></g></svg>