<svg xmlns="http://www.w3.org/2000/svg" viewBox="0 0 543.32 206.73"><defs><style>.cls-1{fill:#292929;}</style></defs><g id="Layer_2" data-name="Layer 2"><g id="Layer_1-2" data-name="Layer 1"><path class="cls-1" d="M336.8,111.76c.68,2.53,1.35,5,2,7.3.85.33,1.49.84,2,.76,10.06-1.47,20.23-1.43,29.14-8.38,4.32-3.37,11.17-3.85,17-4.84Q452,95.6,517.11,85c16.65-2.71,29.35,10.52,25.52,26.43-2.26,9.41-8.67,14.66-18.12,16.26q-34,5.77-68,11.51-34.5,5.77-69,11.35c-3.57.57-7.57,1.38-10.85.39-18.35-5.57-35.29,3.06-52.89,4.76-1.42.14-2.95,1.53-4,2.71C297,184,266.9,195.25,234.57,200.8c-48.73,8.38-97.57,8.36-146-3.16-25.68-6.11-49.45-16.4-67.85-36.11C9.48,149.43.51,135.82,0,118.37c-.06-1.93.27-3.88.47-6.61Zm.29,25.38,1.64,2.82c7.14-1.19,14.27-2.53,21.44-3.53,4.2-.59,9.48-2.36,12.53-.59,6.63,3.85,12.89,2.46,19.34,1.38q62.46-10.41,124.88-21.06c10.51-1.78,14.53-5,13.83-10.87-.78-6.66-6.22-9-16.75-7.25q-64.42,10.8-128.83,21.66c-3.52.59-8,1.19-10.06,3.53-4.21,4.81-9.28,5.86-15,6.56a108.75,108.75,0,0,0-15.69,2.81C341.78,133.33,339.53,135.58,337.09,137.14Z"/><path class="cls-1" d="M109.63,93.2C91,82.43,83,66.33,88.79,51.44a37.31,37.31,0,0,1,9.4-13.86c9.09-8.18,12-18,10.76-29.66a55.54,55.54,0,0,1,0-6.06c9.87,7.65,12,25.18,4.23,36.45A105.2,105.2,0,0,1,105,48.39c-6.93,7.83-8.19,16.52-4.07,26C103.47,80.35,106.36,86.19,109.63,93.2Z"/><path class="cls-1" d="M173.16,0c11.32,13.84,13.12,29.71,2.3,40.66-15,15.2-14.77,30-3.86,46.58a40.31,40.31,0,0,1,2.24,4.65c-18.59-5.81-28-29.68-18.26-45.78a45.4,45.4,0,0,1,4.22-5.58C174.39,23.09,174.4,23.09,173.16,0Z"/><path class="cls-1" d="M231,93.68c-4.93-5.24-10.49-10-14.64-15.83-8.38-11.68-7.48-24.7,1.5-36,14.33-18,14.33-18,15.2-39.9,9.44,8.41,11.44,24.69,4.19,35.76a70.64,70.64,0,0,1-7.48,9.35c-8,8.53-9.4,18-4.63,28.55,2.46,5.42,5.15,10.72,7.74,16.07Z"/></g></g></svg>