<svg xmlns="http://www.w3.org/2000/svg" viewBox="0 0 599.78 382.46"><defs><style>.cls-1{fill:#292929;}</style></defs><g id="Layer_2" data-name="Layer 2"><g id="Layer_1-2" data-name="Layer 1"><path class="cls-1" d="M112,190.13a1100.67,1100.67,0,0,0,198.57,97.26c-11.82.23-65.72-17.54-104.95-37.17C172.29,233.54,140.64,214.22,112,190.13Z"/><path class="cls-1" d="M187.31,110.79,373,184.8v.36c-1.1-.14-2.21-.23-3.3-.44-1.3-.26-2.59-.6-3.87-.94a624.65,624.65,0,0,1-76.8-26.64c-32-13.27-63.53-27.47-95.25-41.3-2.42-1-4.74-2.33-7.11-3.51Z"/><path class="cls-1" d="M166.54,211.1c1.36-.85,2.64-2.24,4.1-2.44,2.2-.31,4.05,1.15,3.64,3.48-.22,1.19-2.07,3-3.12,2.93-1.57-.06-3.09-1.49-4.64-2.33C166.53,212.19,166.53,211.65,166.54,211.1Z"/><path class="cls-1" d="M323.3,198.1c-2.2,1.43-3.49,2.91-4.59,2.79s-2.18-1.78-3.26-2.77c1.1-1,2.11-2.58,3.31-2.73S321.12,196.72,323.3,198.1Z"/><path class="cls-1" d="M130.59,121.88c-2,1.32-3.18,2.67-4.39,2.71-.88,0-1.82-1.67-2.74-2.59,1-1,2-2.54,3.17-2.85C127.44,119,128.69,120.5,130.59,121.88Z"/><path class="cls-1" d="M293,248.17c-1.31-1.89-2.7-3-2.62-4s1.57-2,2.44-3c1,1,2.61,1.89,2.87,3.07C295.89,245,294.35,246.28,293,248.17Z"/><path class="cls-1" d="M321.4,271.18c-2,1.25-3,2.44-4.11,2.46-.82,0-2.45-1.7-2.31-2.29.28-1.12,1.47-2.63,2.47-2.8S319.51,269.85,321.4,271.18Z"/><path class="cls-1" d="M198.9,91.6c24.47,5,175,67.52,186.79,77.37C369.94,167.46,218,104.69,198.9,91.6Z"/><path class="cls-1" d="M381.47,154.56a426.17,426.17,0,0,1-123.76-50.75A1300.61,1300.61,0,0,1,381.47,154.56Z"/><path class="cls-1" d="M591.38,145c-9.73-3.43-19.58-6.54-29.38-9.79-5.82-1.93-11.9-3.16-16.74-7.41-1.44-1.27-3.51-1.88-5.37-2.59-8.22-3.16-16.46-6.25-25.21-9.56a39.09,39.09,0,0,0-6.43-22.29A53,53,0,0,0,490.42,76.1c-13.14-7.51-26.29-15.11-39.9-21.71A589.14,589.14,0,0,0,311,6.7C283.59,1.12,256-1.84,228,1.25,212,3,196.69,7.28,182.54,15.35c-13.78,7.87-23.19,18.78-25.62,34.9-.3,2-.77,3.93-.92,5.92-.88,12.31-1.91,24.65,4.1,36.45-3,4.95-8.16,4.39-12.53,5.45-18,4.36-35.75,9.51-51.82,19.12-8.27,5-15.45,11-19.74,19.95a73.41,73.41,0,0,0-7.69,31.78c0,5.76,0,5.79-5.63,7.62A319.88,319.88,0,0,0,6,201.27c-4.24,2.38-6.08,5.59-6,9.91A47.82,47.82,0,0,0,1.7,223a12.75,12.75,0,0,0,4.09,6c6.05,5,12.28,9.72,18.61,14.32C55.58,265.94,88.66,285.54,123,303c54.21,27.56,110.45,49.9,169.42,65.05,27.63,7.1,55.57,12.49,84.09,14.37a19.83,19.83,0,0,0,9.07-1.71c22.92-10.32,43.78-24,63.57-39.39,29.71-23.07,56.32-49.42,81.23-77.52a784.87,784.87,0,0,0,59.34-75.33,39.63,39.63,0,0,0,5.42-10.57c1.84-6,3-12.29,4.21-18.48C600.85,152.15,598.35,147.42,591.38,145Zm-79.75-24.07,14.79,3.64c0,.3.07.6.11.9l-16.35,4.5ZM520.82,133a14.92,14.92,0,0,1,9.16-1,44.17,44.17,0,0,1,19.42,9.77c6.6,5.78,10.18,17.9,6.72,26.5-4.91,12.21-11.07,23.53-20.56,32.75a75.82,75.82,0,0,1-36.51,19.55,24.88,24.88,0,0,1-4.94.59c-12.19.27-19.69-8.87-16.74-20.75a36.56,36.56,0,0,1,4.51-10.49c7.69-12.24,17.12-23,29.16-31.14,5.72-3.89,11.86-6.8,19.08-6.37,8.49.51,11.92,4.72,9.78,12.88-2.58,9.84-6.87,19-15.57,24.86-8,5.39-16.45,10-24.73,15-1.35.81-2.81,1.46-4.22,2.18,6.16,1.89,11.7.82,17-1.33,15.48-6.32,27-17.05,33.8-32.32s1.12-25.33-15.52-27.76a31.56,31.56,0,0,0-23.71,5.78,155.47,155.47,0,0,0-18.54,16.57,107.19,107.19,0,0,0-11.2,14.05c-7,10-9.24,21-4.68,32.67,3.55,9.12,10.74,13.79,20.54,13.8,8.72,0,16.74-2.58,24.32-6.68,18.56-10,33-24,41.54-43.61.19-.44.35-.9.91-1.1,1.42,3.86.09,7-1.47,10.09-6.75,13.15-16.86,23.45-27.93,32.94-10.36,8.88-22.22,15.29-34.62,20.68-13.45,5.84-27.2.66-33.59-12.62-7-14.53-7.67-29,.83-43.44C476.87,161.6,496.63,144.78,520.82,133ZM441.63,208.3A66,66,0,0,1,454,232.62c2.42,8.45.83,16.09-4.83,22.31a68.32,68.32,0,0,1-15.26,12.65c-13.47,8-27.65,14.74-43.09,18.16-8.21,1.82-16.27,1.07-23.44-4-7.34-5.17-10.25-13.18-6.79-21.49a47.32,47.32,0,0,1,8.62-13.86C385.3,229,405.1,217.5,428,211.22c1.1-.3,2.18-.62,3.27-.93l-.18-1.68c-6,.86-12.22,1.15-18.07,2.69-20.73,5.45-39,15.38-53.4,31.54a50.79,50.79,0,0,0-8.33,12.93c-6.29,14.06-1,28.9,12.54,36.29a37.56,37.56,0,0,0,26.62,3.79c15.12-3.25,28.12-11.05,40.81-19.41a134.86,134.86,0,0,0,27-22.91,24,24,0,0,1,1.94-1.77c1.54,2.59,2.13,4.71-.16,6.94-10.39,10.09-20.54,20.46-32.66,28.59-16.21,10.88-34.17,17.1-53.37,19.9-8.7,1.27-15.9-2.09-21.32-8.54-13.77-16.41-15.34-34.94-7.85-54.39,5.83-15.13,17.53-25.31,30.89-33.64,11.52-7.19,23.63-13,37.43-14.44C424.93,194.91,434.25,199.36,441.63,208.3Zm-5-16,20.74-8.1-8,18.62ZM489.41,83c5.14,6,10.45,12.18,14.31,19,5.41,9.62,4.32,19.69-1.89,28.83A48.79,48.79,0,0,1,493,141c-15.54,12.94-33.46,19.68-53.81,19.16A33.12,33.12,0,0,1,428.52,158c-6.34-2.4-8.88-6.68-7.61-13.38A33.82,33.82,0,0,1,425.32,133a81.56,81.56,0,0,1,38.16-32.53,33.93,33.93,0,0,1,20.08-2.13c7.62,1.52,10.66,6.42,8.63,13.9a21.91,21.91,0,0,1-.84,2.35c-6.3,15.85-27.09,30.13-44.09,29.73-5.16-.12-10.28-1.78-15.1-2.68,4,6.68,12.73,10.93,21.42,9.29a57.28,57.28,0,0,0,14.6-4.82,74.13,74.13,0,0,0,24-19.31c4.83-5.75,8-12.31,7.58-20.08-.32-6.92-3.51-11.11-10.11-13.3-11-3.66-21.76-2.23-32.11,2.4-15.91,7.13-28.82,18-38,32.79a47.49,47.49,0,0,0-5.89,14.17c-2.52,11,2.32,18.7,12.75,22.79,11.69,4.58,23.18,3.5,34.68-.41,3.14-1.07,6.2-2.34,9.29-3.52-5.06,6.88-10.45,13.46-19.05,16-6.83,2.07-13.63,4.27-20.54,6.06-2.14.55-4.61.15-6.88-.17-8.56-1.2-13.81-6.25-17.18-14.11-8.24-19.22-6-46.94,14.49-63,12.53-9.84,25.71-18.44,40.61-24.18a78,78,0,0,1,12.47-3.5C479.89,77.68,485.51,78.42,489.41,83ZM163,45.52c.41-4.14,4-8.37,6.95-11.78,7.54-8.58,17.86-13.07,27.8-18.23C220.27,3.83,244.06,3.1,268.44,5.94c45.67,5.31,89.25,18.68,132.27,34.16,14.1,5.08,27.93,10.9,41.94,16.26,9.52,3.65,18.17,8.8,27.4,15-22.6,6.14-41.27,17-56.5,32.89-18.24,19.05-23.07,41.78-15.05,67a34.79,34.79,0,0,0,3.35,6.68,37.36,37.36,0,0,1,3.47,6.3c-6-2.58-12-5.29-18.13-7.72q-76.85-30.53-153.7-61c-14.69-5.85-29.27-12-43.93-18-6.94-2.81-13.91-5.57-20.95-8.15-4.1-1.5-6.58-4.39-6.59-8.51C162,69.11,161.86,57.24,163,45.52Zm5.32,56.17a31.79,31.79,0,0,1,12.56,2.14c35.64,14.43,71,29.65,106.81,43.61,36.74,14.3,73.94,27.44,110.94,41.1,1,.39,2,.88,3.94,1.69-2.44,1-4.08,1.61-5.72,2.24-17.21,6.55-32.6,15.91-45.31,29.36C341.39,232.61,334,245,332.51,260c-1.73,17.12,3.2,32.24,14.89,45,.44.48.83,1,2.07,2.52-3.68-.73-6.31-1.21-8.93-1.78-32.85-7.14-64.23-18.72-94.93-32.15-55.2-24.14-107.74-53.25-158.44-85.73a21.47,21.47,0,0,1-10.38-19.73c.43-14.41,5.46-27.32,14.23-38.74m231,184.13c-.13.38-.26.75-.4,1.12-85.79-18.59-163-56.46-235.49-105,.16-.39.32-.78.49-1.16,1.34.66,2.69,1.3,4,2,19.49,10.52,38.66,21.71,58.54,31.45,55.2,27,110.62,53.69,170.09,70.49A28.23,28.23,0,0,1,322.05,313.56ZM580.64,188.13c-20.87,31.72-45.69,60.21-72.06,87.4-26.15,27-53.81,52.28-85.24,73-12.18,8-25.48,14.38-38.27,21.49-3.8,2.11-7.79,2.26-12.09,1.83-45.69-4.5-89.79-15.92-133.1-30.65a904.87,904.87,0,0,1-177.8-82.45C45.15,248.5,29,236.9,12.41,226.1c-3.93-2.56-5-5.86-4.38-10.86,2,1.14,3.67,2,5.29,3,58.44,36.24,118.9,68.54,182.73,94.32,42.86,17.31,86.6,31.87,132.16,40.26,13.08,2.41,26.38,3.6,39.59,5.28,4.39.56,8.41-.52,12.55-2.29,49.84-21.3,90.66-55,127.89-93.42C531.87,238,555.89,214,577,187.22c4.42-5.6,8.57-11.43,12.85-17.15l1.07.59C587.5,176.49,584.35,182.49,580.64,188.13Zm-31.27,19.26c3.58-5.12,7.36-10.1,10.67-15.39a44.72,44.72,0,0,0,4.19-9.54,8.57,8.57,0,0,0-2-9.24,4.89,4.89,0,0,1-1.38-3.42c1.22-9.35,1-18.57-2.76-28.76,12.17,3.33,23.22,6.3,33.78,11.87C581.08,174.1,565.34,190.84,549.37,207.39Z"/><path class="cls-1" d="M373.1,275.42c2.31-.76,4.71-1.34,6.93-2.31,10.63-4.68,21.68-8.66,31.72-14.39,15.43-8.81,26.37-21.36,26.84-40.57l1.09-.15a39.6,39.6,0,0,1,2,5.93c2.11,11.59-2.07,21.33-9.55,29.79-10.12,11.43-23.4,17.42-38,20.58-6.76,1.46-13.75,1.88-20.64,2.78Z"/><path class="cls-1" d="M430.43,230.94c-3.62-6.48-9.17-8.71-16.76-5.9a58.57,58.57,0,0,0-12.78,6.7c-7.12,4.91-14,10.21-20.78,15.59s-12.38,11.58-15.38,19.93l-1-.39c.41-2,.5-4.08,1.32-5.85,1.67-3.61,3.27-7.4,5.73-10.45,9.55-11.83,21.5-20.8,35-27.7a23.88,23.88,0,0,1,15.52-2.52C427.9,221.57,431,225.25,430.43,230.94Z"/><path class="cls-1" d="M430.7,129.88c10.91-15.12,24.25-26.73,43.77-28.95a20.62,20.62,0,0,1,9.25,1.26c5.66,2.12,7.2,7.35,4.2,13.3-.26-.54-.56-.86-.55-1.19.13-6.2-2.38-9-8.55-8.86-8.23.15-15.78,3.09-22.55,7.35-7.57,4.77-14.55,10.5-21.78,15.82-1,.75-2,1.53-3,2.3Z"/><path class="cls-1" d="M538.24,160.61c-4.67-4.07-9.65-3.65-14.49-1-4.64,2.57-9.53,5.05-13.39,8.58-7.11,6.49-13.72,13.56-20.19,20.7A38.81,38.81,0,0,0,481,206.64c0-2.88-.5-5.88.12-8.62a32.61,32.61,0,0,1,3.76-9.2c6.56-11,14.73-20.72,25.73-27.44a63.63,63.63,0,0,1,16.49-6.7C532.37,153.24,535.88,155.51,538.24,160.61Z"/></g></g></svg>