<svg xmlns="http://www.w3.org/2000/svg" viewBox="0 0 1052 883"><defs><style>.cls-1{fill:none;}.cls-2{fill:#292929;}.cls-3{fill:#e9e7e7;}</style></defs><g id="Layer_2" data-name="Layer 2"><g id="Layer_1-2" data-name="Layer 1"><rect class="cls-1" width="1052" height="883"/><polygon class="cls-2" points="118.75 396.88 118.75 178.63 76.92 178.63 76.92 138.26 204.59 138.26 204.59 178.63 162.76 178.63 162.76 396.88 118.75 396.88"/><path class="cls-3" d="M202.59,140.26v36.37H160.76V394.88h-40V176.63H78.92V140.26H202.59m4-4H74.92v44.37h41.83V398.88h48V180.63h41.83V136.26Z"/><polygon class="cls-2" points="303.52 396.88 303.52 287.75 262.05 287.75 262.05 396.88 218.04 396.88 218.04 138.26 262.05 138.26 262.05 247.38 303.52 247.38 303.52 138.26 348.26 138.26 348.26 396.88 303.52 396.88"/><path class="cls-3" d="M346.26,140.26V394.88H305.52V285.76H260.05V394.88H220V140.26h40V249.38h45.47V140.26h40.74m4-4H301.52V245.38H264.05V136.26H216V398.88h48V289.76h37.47V398.88h48.74V136.26Z"/><path class="cls-2" d="M462.74,396.88l-6.91-46.2H410.17l-6.91,46.2H362.45l41.38-258.62h62l41.37,258.62Zm-13-84.75-17-113.26-17,113.26Z"/><path class="cls-3" d="M464.1,140.26l40.74,254.62H464.46l-6.91-46.2h-49.1l-6.91,46.2H364.8l40.74-254.62H464.1M413.54,314.13H452.1L432.82,185.36,413.54,314.13m54-177.87H402.13l-.54,3.37L360.85,394.25l-.74,4.63H405l.51-3.41,6.4-42.79h42.22l6.4,42.79.51,3.41h48.51l-.74-4.63L468.05,139.63l-.54-3.37ZM418.18,310.13l14.64-97.75,14.63,97.75Z"/><polygon class="cls-2" points="607.33 396.88 561.03 225.53 561.03 396.88 521.02 396.88 521.02 138.26 574.75 138.26 612.32 277.57 612.32 138.26 651.97 138.26 651.97 396.88 607.33 396.88"/><path class="cls-3" d="M650,140.26V394.88h-41.1L559,210.46V394.88H523V140.26h50.2l41.1,152.41V140.26H650m4-4H610.32V262.47L577.08,139.22l-.8-3H519V398.88h44V240.6l42,155.32.8,3H654V136.26Z"/><polygon class="cls-2" points="768.62 396.88 730.78 298.21 720.71 317.17 720.71 396.88 676.7 396.88 676.7 138.26 720.71 138.26 720.71 242.28 769.82 138.26 814.31 138.26 757.63 253.84 814.04 396.88 768.62 396.88"/><path class="cls-3" d="M811.1,140.26,755.44,253.75,811.1,394.88H770L731.07,293.39l-12.36,23.28v78.21h-40V140.26h40V251.2l52.38-110.94h40m6.41-4h-49l-1.08,2.29-44.76,94.81v-97.1h-48V398.88h48V317.67L730.49,303l35.77,93.28,1,2.57H817l-2.15-5.47-55-139.49L814.69,142l2.82-5.76Z"/><rect class="cls-2" x="218.08" y="591.97" width="289.99" height="40.37"/><path class="cls-3" d="M506.07,594v36.37h-286V594h286m4-4h-294v44.37h294V590Z"/><polygon class="cls-2" points="608.45 741.47 608.45 655.37 557.21 482.85 603.26 482.85 632.27 593.03 661.28 482.85 703.7 482.85 652.46 655.37 652.46 741.47 608.45 741.47"/><path class="cls-3" d="M701,484.85,650.46,655.08v84.39h-40V655.08L559.88,484.85h41.84l30.55,116,30.55-116H701m5.36-4H659.74l-.79,3L632.27,585.17,605.58,483.83l-.78-3H554.52l1.53,5.14,50.39,169.67v87.81h48V655.66L704.85,486l1.53-5.14Z"/><path class="cls-2" d="M769,744.38c-20,0-35.71-5.85-46.56-17.37s-16.18-27.77-16.18-48.65V546c0-20.88,5.44-37.25,16.18-48.66S749,479.94,769,479.94s35.71,5.84,46.56,17.36,16.19,27.78,16.19,48.66v132.4c0,20.88-5.45,37.25-16.19,48.65S789.08,744.38,769,744.38Zm0-224.07c-12.78,0-18.73,7.34-18.73,23.1V680.9c0,15.76,6,23.1,18.73,23.1s18.73-7.34,18.73-23.1V543.41C787.76,527.65,781.81,520.31,769,520.31Z"/><path class="cls-3" d="M769,481.94c39.28,0,60.75,23.28,60.75,64v132.4c0,40.74-21.47,64-60.75,64s-60.74-23.27-60.74-64V546c0-40.74,21.46-64,60.74-64M769,706c12.73,0,20.73-6.91,20.73-25.1V543.41c0-18.18-8-25.1-20.73-25.1s-20.73,6.92-20.73,25.1V680.9c0,18.19,8,25.1,20.73,25.1m0-228.06c-41.14,0-64.74,24.79-64.74,68v132.4c0,43.22,23.6,68,64.74,68s64.75-24.79,64.75-68V546c0-43.23-23.6-68-64.75-68ZM769,702c-7.79,0-16.73-2.4-16.73-21.1V543.41c0-18.7,8.94-21.1,16.73-21.1s16.73,2.4,16.73,21.1V680.9c0,18.7-8.94,21.1-16.73,21.1Z"/><path class="cls-2" d="M913.43,744.74c-39.76,0-61.65-23.45-61.65-66V482.85h44V681.27c0,15.72,5.78,22.73,18.73,22.73s18.74-7,18.74-22.73V482.85h41.82V678.72C975.08,721.29,953.19,744.74,913.43,744.74Z"/><path class="cls-3" d="M973.08,484.85V678.72c0,40.74-20.37,64-59.65,64s-59.65-23.28-59.65-64V484.85h40V681.27c0,18.18,8,24.73,20.73,24.73s20.74-6.55,20.74-24.73V484.85h37.82m4-4H931.26V681.27c0,18.27-8.46,20.73-16.74,20.73s-16.73-2.46-16.73-20.73V480.85h-48V678.72c0,21.48,5.43,38.3,16.14,50,11,12,27,18,47.51,18s36.54-6.07,47.51-18c10.71-11.69,16.14-28.51,16.14-50V480.85Z"/></g></g></svg>