<svg xmlns="http://www.w3.org/2000/svg" viewBox="0 0 940.44 830.29"><defs><style>.cls-1{fill:#292929;}.cls-2{fill:#e9e7e7;}</style></defs><g id="Layer_2" data-name="Layer 2"><g id="Layer_1-2" data-name="Layer 1"><path class="cls-1" d="M744.65,828.29c-62.06,0-110.46-18-143.87-53.46-33.13-35.18-49.92-85.87-49.92-150.66V213c0-68.75,16.11-121.46,47.89-156.67C631.29,20.29,680.77,2,745.8,2,807.6,2,855.43,20,888,55.48c32,34.88,48.18,85.56,48.18,150.65V228.8H812.7V198.09c0-52-20.75-77.25-63.46-77.25-23.62,0-39.59,6.29-50.25,19.77-12,15.16-17.8,40.34-17.8,77V356.27c10.8-19.87,25.1-35.38,42.6-46.19,20.06-12.39,44.46-18.67,72.54-18.67,46.61,0,82.46,16.26,106.54,48.32,23.6,31.42,35.57,77.66,35.57,137.43v147c0,64.79-16.8,115.48-49.93,150.66C855.11,810.3,806.71,828.29,744.65,828.29Zm0-418c-42.71,0-63.46,25.27-63.46,77.25V632.2c0,26.93,5.76,46.86,17.13,59.23,10.42,11.35,25.58,16.87,46.33,16.87s35.9-5.52,46.33-16.87c11.37-12.37,17.13-32.3,17.13-59.23V487.5C808.11,435.52,787.35,410.25,744.65,410.25Z"/><path class="cls-2" d="M745.8,4c124,0,188.34,73.5,188.34,202.13V226.8H814.7V198.09c0-57.42-25.26-79.25-65.46-79.25-44.79,0-70,21.83-70,98.77v147c21.82-45.93,60.86-71.2,117.14-71.2,93,0,140.11,65.46,140.11,183.75v147c0,128.62-67.76,202.12-191.79,202.12s-191.79-73.5-191.79-202.12V213c0-135.52,62-209,192.94-209m-1.15,706.3c40.19,0,65.46-20.67,65.46-78.1V487.5c0-57.43-25.27-79.25-65.46-79.25s-65.46,21.82-65.46,79.25V632.2c0,57.43,25.26,78.1,65.46,78.1M745.8,0C712.94,0,683.74,4.66,659,13.85s-45.36,23-61.76,41.16c-16.18,17.93-28.46,40.47-36.5,67-7.9,26.08-11.9,56.69-11.9,91V624.17c0,32.34,4.28,61.65,12.73,87.1s21.15,47.31,37.74,64.93,37.41,31.28,61.62,40.34c24.39,9.12,52.55,13.75,83.7,13.75s59.3-4.63,83.69-13.75c24.22-9.06,44.95-22.63,61.63-40.34s29.29-39.46,37.74-64.93,12.73-54.76,12.73-87.1v-147c0-60.21-12.1-106.86-36-138.63C880,305.94,843.6,289.41,796.33,289.41c-28.45,0-53.21,6.38-73.6,19-15.83,9.78-29.09,23.34-39.54,40.42V217.61c0-36.19,5.68-61,17.37-75.76,10.25-13,25.72-19,48.68-19,20,0,34.71,5.49,44.83,16.76,11,12.3,16.63,32,16.63,58.49V230.8H938.14V206.13c0-65.6-16.39-116.74-48.71-152C856.51,18.21,808.18,0,745.8,0Zm-1.15,706.3c-41.93,0-61.46-23.55-61.46-74.1V487.5c0-26.51,5.59-46.19,16.63-58.49,10.12-11.27,24.79-16.76,44.83-16.76s34.7,5.49,44.82,16.76c11,12.3,16.64,32,16.64,58.49V632.2c0,50.55-19.53,74.1-61.46,74.1Z"/><polygon class="cls-1" points="88 595 41.88 424.31 41.88 595 2 595 2 337.29 55.55 337.29 92.97 476.06 92.97 337.29 132.49 337.29 132.49 595 88 595"/><path class="cls-2" d="M130.49,339.29V593H89.54L39.88,409.24V593H4V339.29H54L95,491.15V339.29h35.52m4-4H91V461L57.88,338.25l-.8-3H0V597H43.88V439.38L85.68,594l.79,3h48V335.29Z"/><polygon class="cls-1" points="242.29 595 242.29 486.27 200.99 486.27 200.99 595 157.12 595 157.12 337.29 200.99 337.29 200.99 446.02 242.29 446.02 242.29 337.29 286.89 337.29 286.89 595 242.29 595"/><path class="cls-2" d="M284.89,339.29V593h-40.6V484.27H199V593H159.12V339.29H199V448h45.3V339.29h40.6m4-4h-48.6V444H203V335.29H155.12V597H203V488.27h37.3V597h48.6V335.29Z"/><path class="cls-1" d="M371.14,597.9c-20,0-35.58-5.82-46.4-17.3s-16.12-27.68-16.12-48.49V400.18c0-20.81,5.42-37.12,16.12-48.49s26.43-17.3,46.4-17.3,35.59,5.82,46.4,17.3,16.13,27.68,16.13,48.49V532.11c0,20.81-5.42,37.12-16.13,48.49S391.12,597.9,371.14,597.9Zm0-223.27c-12.73,0-18.66,7.31-18.66,23v137c0,15.69,5.93,23,18.66,23s18.66-7.31,18.66-23v-137C389.8,381.94,383.87,374.63,371.14,374.63Zm-24.59-46.75,27.1-44.23h44.82l-40.65,44.23Z"/><path class="cls-2" d="M413.91,285.65l-37,40.23H350.12l24.65-40.23h39.14m-42.77,50.74c39.15,0,60.53,23.19,60.53,63.79V532.11c0,40.59-21.38,63.79-60.53,63.79s-60.52-23.2-60.52-63.79V400.18c0-40.6,21.38-63.79,60.52-63.79m0,223.26c12.69,0,20.66-6.88,20.66-25v-137c0-18.12-8-25-20.66-25s-20.65,6.89-20.65,25v137c0,18.12,8,25,20.65,25m51.88-278H372.53l-1.17,1.91-24.65,40.23L343,329.88H378.7l1.19-1.3,37-40.23,6.16-6.7Zm-51.88,50.74c-41,0-64.52,24.71-64.52,67.79V532.11c0,43.08,23.52,67.79,64.52,67.79s64.53-24.71,64.53-67.79V400.18c0-43.08-23.52-67.79-64.53-67.79Zm0,223.26c-7.75,0-16.65-2.38-16.65-21v-137c0-18.62,8.9-21,16.65-21s16.66,2.39,16.66,21v137c0,18.62-8.9,21-16.66,21Z"/><polygon class="cls-1" points="584.8 595 584.8 437.62 560.97 595 519.86 595 493.83 437.9 493.83 595 455.04 595 455.04 337.29 514.2 337.29 541.78 506.52 567.32 337.29 626.49 337.29 626.49 595 584.8 595"/><path class="cls-2" d="M624.49,339.29V593H586.8V411.05L559.25,593H521.56L491.84,413.59V593H457V339.29h55.45l29.36,180.13L569,339.29h55.45m4-4h-62.9l-.51,3.4L541.7,493.62l-25.26-155-.54-3.35H453V597h42.8V462.21l21.77,131.44.55,3.35h44.53l.52-3.4L582.8,464.19V597h45.69V335.29Z"/></g></g></svg>