<svg xmlns="http://www.w3.org/2000/svg" viewBox="0 0 950 950"><defs><style>.cls-1{fill:#e9e7e7;}.cls-2{fill:none;}</style></defs><g id="Layer_2" data-name="Layer 2"><g id="Layer_1-2" data-name="Layer 1"><path class="cls-1" d="M333,382.08H304.42l-4.91-32.71H264.78l-4.9,32.71h-26l28.81-180.44h41.53ZM313.86,162.76q0,31.22-30.71,31.21-29.68,0-30.07-31.21h17.74q.89,12.72,12.33,12.71,12,0,13-12.71ZM268.31,324.83h27.43L282,233.6Z"/><path class="cls-1" d="M371.36,251.47V382.08H345.82V201.64h35.61l29.06,108.09V201.64h25.29V382.08H406.59Z"/><path class="cls-1" d="M414.16,486.19h39.76v57.25q0,45.3-42.28,45.3t-42.28-45.3V449.57q0-45.3,42.28-45.3t42.28,45.3v17.62h-26.8V447.81q0-17.74-14.72-17.74t-14.72,17.74V545.2q0,17.61,14.72,17.62t14.72-17.62V512h-13Z"/><path class="cls-1" d="M482.36,367.4l18.5,30.2h-21.4l-27.8-30.2Zm-10.07,38.88H500.6V586.72H472.29Z"/><path class="cls-1" d="M415.57,708.59h-9.32V685.44h9.32V606.8h44.79q42.28,0,42.28,44.67v91.22q0,44.55-42.28,44.55H415.57Zm28.31-76v52.85h17.49v23.15H443.88v52.85h16q14.46,0,14.47-17.49V650.08q0-17.48-14.47-17.49Z"/><path class="cls-1" d="M612.24,787.24H583.67l-4.9-32.72H544l-4.91,32.72h-26L541.9,606.8h41.52ZM525.16,598.12l24-30.2h27l23.91,30.2H574.61l-12.08-15-11.82,15ZM547.56,730H575l-13.71-91.23Z"/><path class="cls-1" d="M652,727.47,616.14,606.8h29.69l21.64,82.29,21.65-82.29h27L680.31,727.47v59.77H652Z"/><rect class="cls-2" width="950" height="950"/></g></g></svg>