<svg xmlns="http://www.w3.org/2000/svg" viewBox="0 0 950 950"><defs><style>.cls-1{fill:#e9e7e7;}.cls-2{fill:none;}</style></defs><g id="Layer_2" data-name="Layer 2"><g id="Layer_1-2" data-name="Layer 1"><path class="cls-1" d="M264.81,200V344h43.44v24H238.41V200Z"/><path class="cls-1" d="M382.41,270.8v24H346.17V344h45.6v24h-72V200h72v24h-45.6v46.8Z"/><path class="cls-1" d="M472,200v24h-27.6V368H418V224H397.43V200Z"/><path class="cls-1" d="M391.92,518.6c0,12,5.28,16.32,13.68,16.32s13.68-4.32,13.68-16.32V389h25V516.92c0,26.88-13.44,42.24-39.36,42.24s-39.36-15.36-39.36-42.24V389h26.4Z"/><path class="cls-1" d="M497.76,387.08c25.68,0,38.88,15.36,38.88,42.24v5.28h-25v-7c0-12-4.8-16.56-13.2-16.56s-13.2,4.56-13.2,16.56c0,34.56,51.6,41,51.6,89,0,26.88-13.44,42.24-39.36,42.24s-39.36-15.36-39.36-42.24V506.36h25v12c0,12,5.28,16.32,13.68,16.32s13.68-4.32,13.68-16.32c0-34.56-51.6-41-51.6-89C458.88,402.44,472.08,387.08,497.76,387.08Z"/><path class="cls-1" d="M365.2,750V582h26.4v72h30V582h26.88V750H421.6V678h-30v72Z"/><path class="cls-1" d="M530.32,652.8v24H494.08V726h45.6v24h-72V582h72v24h-45.6v46.8Z"/><path class="cls-1" d="M582.39,387.42V726h43.45v24H556V387.42Z"/><path class="cls-1" d="M715.59,623.52v21.84c0,26.88-13,41.52-39.36,41.52H663.75V750h-26.4V582h38.88C702.63,582,715.59,596.64,715.59,623.52Zm-51.84,39.36h12.48c8.4,0,13-3.84,13-15.84v-25.2c0-12-4.56-15.84-13-15.84H663.75Z"/><rect class="cls-2" width="950" height="950"/></g></g></svg>