<svg xmlns="http://www.w3.org/2000/svg" viewBox="0 0 582 582"><defs><style>.cls-1{fill:none;}.cls-2{fill:#e9e7e7;}</style></defs><g id="Layer_2" data-name="Layer 2"><g id="Layer_1-2" data-name="Layer 1"><rect class="cls-1" width="582" height="582"/><path class="cls-2" d="M327.16,458.92V377.87H253.42v81.06c-2,.13-3.62.31-5.2.31-23,0-46,.06-69,0-18.48-.05-30.29-11.91-30.31-30.39q0-56,0-112c0-4.66-.21-9.32-.28-14-.2-13.08,4.61-23.11,15.84-30.79,14.14-9.69,27.41-20.65,41.05-31.07q33-25.18,65.95-50.36c13-9.89,25.53-9.92,38.41-.09,35.37,27,70.39,54.47,106.25,80.78,14.43,10.58,18.74,23.72,16.85,40.3a64.55,64.55,0,0,0-.48,6.94q0,55.5,0,111c0,14.81-8.8,26-22.52,29.05a25.62,25.62,0,0,1-5.45.59q-37,.06-74,0C329.66,459.23,328.84,459.08,327.16,458.92Z"/><path class="cls-2" d="M347.89,160.62c0-3.41-.08-5.71,0-8,.21-5.13,2.93-8.27,8-8.37q15.75-.33,31.49,0c5.45.1,8.23,3.3,8.29,9.17.12,12.16.22,24.32,0,36.48-.08,4.23,1.07,6.94,4.67,9.52,22.84,16.45,45.45,33.22,68.21,49.79,5.22,3.8,8.5,8.49,8.07,15.11a15.78,15.78,0,0,1-24.76,12.08c-6.25-4.13-12.15-8.78-18.19-13.21q-69.35-50.79-138.61-101.67c-3.26-2.4-5.28-2.44-8.58,0q-76.77,56.72-153.8,113.08a24.12,24.12,0,0,1-9.32,4.35c-7,1.32-13.79-2.78-16.61-9.23a15.39,15.39,0,0,1,4.37-18.53c5-4.1,10.39-7.79,15.63-11.64l151.77-111.6c9.39-6.91,15-6.94,24.4,0q19.95,14.63,39.9,29.25C344.14,158.13,345.52,159,347.89,160.62Z"/></g></g></svg>