<svg xmlns="http://www.w3.org/2000/svg" viewBox="0 0 233.15 299"><defs><style>.cls-1{fill:#292929;}.cls-2{fill:#e9e7e7;}.cls-3{fill:none;}</style></defs><g id="Layer_2" data-name="Layer 2"><g id="Layer_1-2" data-name="Layer 1"><path class="cls-1" d="M192.9,210a4.91,4.91,0,0,1-2.33-.7,51,51,0,0,1-5.62-3.63,38.71,38.71,0,0,0-6.36-3.94,33.41,33.41,0,0,0-13.72-2.66h-.73c-1.64,0-3.37.13-5.14.31a91.63,91.63,0,0,0-10,1.76c-2.78.6-5.65,1.21-8.56,1.61a11.63,11.63,0,0,1-1.54.11c-4.83,0-7.62-3.34-10.07-6.28-.34-.4-.67-.8-1-1.2-3-3.45-6.27-6.89-10.79-7.57l-.27,0c-5-.77-10.75-1.64-15.64-4.27-3.08-1.66-9.45-7.11-10.89-12.76a7.67,7.67,0,0,1,.86-6.23c1.64-2.53,4.85-3.82,9.52-3.82a32.75,32.75,0,0,1,3.65.22c10.12,1.08,17.87,6.06,25.35,10.87a38.86,38.86,0,0,0,21,6.06c1.3,0,2.62-.07,3.91-.19l.72-.07c2.73-.27,5.56-.54,8.39-.54l1.37,0c15.53.52,30.48,11,35.55,25l-3.76,1.36,1.88-.68-.06,2a1.62,1.62,0,0,0,.91-.25,49.85,49.85,0,0,0-3.68,3.95,4.18,4.18,0,0,1-1.84,1.41A3.27,3.27,0,0,1,192.9,210Z"/><path class="cls-2" d="M100.56,162.74c1.24,0,2.43.1,3.43.2,9.44,1,16.73,5.58,24.49,10.57a40.9,40.9,0,0,0,22.1,6.38c1.37,0,2.75-.07,4.11-.2,3-.29,6-.6,8.92-.6l1.3,0c14.37.48,28.78,10,33.74,23.67a.05.05,0,0,0-.06,0c-.52,0-4.08,4.14-4.31,4.42a2.34,2.34,0,0,1-1,.81,1.54,1.54,0,0,1-.42.07,3.1,3.1,0,0,1-1.39-.46c-4.22-2.24-7.73-5.66-12.1-7.63a35.39,35.39,0,0,0-14.54-2.84h-.77c-1.77,0-3.54.14-5.3.32-6.33.63-12.4,2.52-18.67,3.38a9.37,9.37,0,0,1-1.27.09c-4.45,0-6.74-3.5-9.57-6.78-3.23-3.75-6.89-7.47-12-8.25s-10.6-1.58-15.26-4.09c-4.18-2.25-12.85-10.68-9.3-16.14,1.52-2.34,4.82-2.91,7.84-2.91m0-4c-5.39,0-9.16,1.59-11.2,4.73a9.64,9.64,0,0,0-1.12,7.82c1.54,6,8,11.93,11.88,14,5.2,2.8,11.09,3.69,16.29,4.48l.27,0c3.47.53,6.24,3,9.58,6.91.34.39.67.79,1,1.18,2.6,3.11,5.84,7,11.61,7a14,14,0,0,0,1.81-.13c3-.4,5.89-1,8.71-1.63a88.88,88.88,0,0,1,9.82-1.73c1.72-.18,3.39-.28,5-.3h.7a31.35,31.35,0,0,1,12.9,2.49,36.81,36.81,0,0,1,6,3.74,52.91,52.91,0,0,0,5.85,3.77,6.87,6.87,0,0,0,3.26.93,5.19,5.19,0,0,0,1.75-.3,6.13,6.13,0,0,0,2.71-2c.7-.84,2.79-3.17,3.36-3.63a3.53,3.53,0,0,1-2.13.66h0a3.94,3.94,0,0,1-3.7-2.6l7.52-2.73a39.1,39.1,0,0,0-14.83-18.71,42.83,42.83,0,0,0-22.53-7.59l-1.44,0c-2.92,0-5.81.28-8.59.55l-.71.07c-1.23.12-2.49.18-3.73.18a36.72,36.72,0,0,1-19.93-5.75c-7.69-4.93-15.63-10-26.23-11.17a36.43,36.43,0,0,0-3.86-.23Z"/><path class="cls-1" d="M191.86,296.32a6.41,6.41,0,0,1-5.2-2.93c-2.06-2.89-2.81-6.13-3.53-9.26-.41-1.79-.8-3.53-1.18-5.28-.89-4-1.8-8.16-2.91-12.15A62.63,62.63,0,0,0,169.91,247c-5.27-7.47-11.86-12-20.13-13.78a38.29,38.29,0,0,0-8.24-.85,51,51,0,0,0-5.26.29c-2.09.21-4.21.32-6.3.32a61.44,61.44,0,0,1-7.88-.51C109.42,230.79,97,226.54,83,219c-8.73-4.68-17.28-8.94-27.54-14A255.83,255.83,0,0,0,27.93,193.1c-2.91-1-6-1.91-8.93-2.74l-2.16-.61a6,6,0,0,1-4.59-4.68,6,6,0,0,1,2.2-6.12,14.83,14.83,0,0,1,9-3.13c.63,0,1.25,0,1.88,0a53.93,53.93,0,0,1,14.57,2.4l.63.18c.29.09.57.18.86.25s.83.2,1.23.31c-3.31-3.58-6.66-7.19-10-10.75a28.21,28.21,0,0,0-2.71-2.43c-.47-.39-1-.78-1.4-1.17a6,6,0,0,1-2-6.54,5.61,5.61,0,0,1,5.27-4.24c.59,0,1.18,0,1.78,0a19.41,19.41,0,0,1,3,.2c6.18.93,11.72,4.09,16.47,9.39,1.38,1.53,2.73,3.07,4.09,4.61l1.35,1.53q-1.2-3-2.11-6.07a81.51,81.51,0,0,0-6.33-14.68c-1.59-3.05-1.39-5.67.6-7.79a5.87,5.87,0,0,1,4.55-1.88,12.75,12.75,0,0,1,1.89.16c4.28.64,7.69,3.17,10.14,7.52a58.89,58.89,0,0,1,3.5,7.15,78.77,78.77,0,0,0,9.39,16.4l.79,1.11a56.25,56.25,0,0,1-1.09-11.2c0-1.67,0-3.34-.06-5,0-1,0-2.05,0-3.08,0-3.27,1.48-5.67,4.17-6.56a5.92,5.92,0,0,1,1.91-.31,6.84,6.84,0,0,1,5.61,3.15,21,21,0,0,1,2.87,7.41c.83,3.67,1.43,6.64,1.88,9.36A28,28,0,0,0,99,173.08c.83,1.63,1.69,3.24,2.55,4.85,1.08,2,2.2,4.11,3.23,6.22,1.43,2.91,3.8,5.06,7.45,6.75a61.91,61.91,0,0,0,14.32,4.36c1,.21,2.11.39,3.16.56l2,.34a7.08,7.08,0,0,0,1.19.1,6.14,6.14,0,0,0,2.24-.42l1.44-.57c3.46-1.35,7-2.76,10.52-4.19a64.34,64.34,0,0,1,15.52-4.7,50.52,50.52,0,0,1,7.1-.54,30.32,30.32,0,0,1,10.79,1.82,35.14,35.14,0,0,1,11.9,7.88c5.37,5.1,10.16,11.38,15.08,19.77a128.48,128.48,0,0,1,11.88,25.92l0,.1c1.95,6.07,2.11,6.57.54,10.73-.2.52-.43,1.13-.69,1.85a160.64,160.64,0,0,1-13.59,29.33,76.71,76.71,0,0,1-6.34,8.73,14.84,14.84,0,0,1-4.24,3.42A6.49,6.49,0,0,1,191.86,296.32Z"/><path class="cls-2" d="M55.2,141.05a10.91,10.91,0,0,1,1.59.14c4.07.61,6.77,3.1,8.69,6.52a55.82,55.82,0,0,1,3.39,6.9,80.31,80.31,0,0,0,9.62,16.82c1.07,1.52,2.15,3,3.33,4.49a14.5,14.5,0,0,1,2.12,4.63c.9,2.44,1.74,4.89,2.62,7.34a7.35,7.35,0,0,0,.49,1l.32-.09a7.35,7.35,0,0,0-.13-1.05c-1.32-5.11-2.59-10.24-4-15.32a49.26,49.26,0,0,1-1.41-12.26c-.07-2.68,0-5.38-.08-8.06,0-2.42.93-4,2.81-4.65a4,4,0,0,1,1.27-.2,4.89,4.89,0,0,1,4,2.28,19,19,0,0,1,2.57,6.72c.7,3.07,1.34,6.15,1.86,9.25a29.37,29.37,0,0,0,3,8.5c1.88,3.71,3.94,7.32,5.77,11.05a16.43,16.43,0,0,0,8.4,7.68,64.85,64.85,0,0,0,14.77,4.52c1.73.34,3.49.59,5.23.9a9,9,0,0,0,1.54.13,8.07,8.07,0,0,0,3-.56c4-1.57,8-3.13,12-4.78a61.91,61.91,0,0,1,15-4.56,49.19,49.19,0,0,1,6.83-.52,28.59,28.59,0,0,1,10.08,1.69A33.38,33.38,0,0,1,191.09,197a86.16,86.16,0,0,1,14.74,19.32,127.69,127.69,0,0,1,11.69,25.52c2.22,6.92,1.9,5.84-.09,11.39a159,159,0,0,1-13.42,29,78.81,78.81,0,0,1-6.18,8.51,13.45,13.45,0,0,1-3.69,3,4.55,4.55,0,0,1-2.28.66,4.43,4.43,0,0,1-3.57-2.09c-1.84-2.58-2.53-5.59-3.22-8.6-1.35-5.83-2.51-11.71-4.11-17.47a65.31,65.31,0,0,0-9.41-20.36c-5.31-7.51-12.26-12.61-21.34-14.58a40.4,40.4,0,0,0-8.67-.9,52.92,52.92,0,0,0-5.47.3,59.71,59.71,0,0,1-13.71-.18c-13.71-1.76-26.31-6.68-38.42-13.17-9.1-4.87-18.35-9.46-27.61-14a260.6,260.6,0,0,0-27.72-12c-3.68-1.31-7.47-2.31-11.22-3.39a4.08,4.08,0,0,1-3.19-3.17,4,4,0,0,1,1.52-4.15,13.06,13.06,0,0,1,7.84-2.68c.59,0,1.18,0,1.77,0a52,52,0,0,1,14,2.32c.53.15,1,.33,1.59.46a18.19,18.19,0,0,1,9.67,5.39,33.18,33.18,0,0,0,2.86,2.57c.23.21.49.39.74.58l.21-.21a4.46,4.46,0,0,0-.41-.56c-6.63-7.18-13.25-14.39-19.93-21.53a54.51,54.51,0,0,0-4.26-3.74,4,4,0,0,1-1.36-4.45,3.62,3.62,0,0,1,3.44-2.82c.56,0,1.12,0,1.69,0a17.08,17.08,0,0,1,2.68.18c6.21.93,11.2,4.19,15.29,8.75,3.4,3.79,6.72,7.66,10.17,11.42A95.81,95.81,0,0,1,68,184.48c1.4,1.92,2.79,3.86,4.2,5.78a7.69,7.69,0,0,0,.62.66l.24-.18a6.89,6.89,0,0,0-.4-.82c-2.16-3.33-4.34-6.65-6.49-10a66,66,0,0,1-7.83-17.1,85.09,85.09,0,0,0-6.48-15c-1.17-2.26-1.1-4,.29-5.49a3.94,3.94,0,0,1,3.09-1.25m0-4a7.9,7.9,0,0,0-6,2.51c-1.48,1.58-3.57,5-.91,10.08a98,98,0,0,1,5.12,11.14A28.89,28.89,0,0,0,36.88,152a22.08,22.08,0,0,0-3.28-.22c-.57,0-1.19,0-1.88,0a7.59,7.59,0,0,0-7.08,5.65,8,8,0,0,0,2.56,8.63c.48.41,1,.81,1.45,1.2a27.38,27.38,0,0,1,2.52,2.26c1.76,1.88,3.53,3.78,5.29,5.68a48.24,48.24,0,0,0-11.13-1.44c-.67,0-1.33,0-2,.06a16.94,16.94,0,0,0-10.15,3.57,8.13,8.13,0,0,0,3.1,14.27l2.14.61c3.08.87,6,1.68,8.83,2.7a251.88,251.88,0,0,1,27.3,11.84c10.25,5.07,18.79,9.32,27.49,14,14.21,7.62,26.86,11.94,39.8,13.61a63.4,63.4,0,0,0,8.13.52,64.16,64.16,0,0,0,6.5-.33,50.1,50.1,0,0,1,5.06-.28,37,37,0,0,1,7.82.8c7.75,1.69,13.94,5.94,18.92,13a60.6,60.6,0,0,1,8.83,19.12c1.09,3.94,2,8.06,2.88,12q.58,2.63,1.18,5.25v.06c.73,3.16,1.56,6.75,3.86,10a8.34,8.34,0,0,0,6.82,3.77,8.46,8.46,0,0,0,4.28-1.2,16.93,16.93,0,0,0,4.8-3.9,79.51,79.51,0,0,0,6.5-9,162.94,162.94,0,0,0,13.76-29.69c.25-.7.47-1.3.67-1.81,1.75-4.64,1.55-5.64-.5-12.05l0-.1a130.77,130.77,0,0,0-12.05-26.33c-5-8.55-9.93-15-15.44-20.2a37.1,37.1,0,0,0-12.57-8.31,32.36,32.36,0,0,0-11.48-1.94,53,53,0,0,0-7.39.56,66.11,66.11,0,0,0-16,4.83c-3.48,1.43-7,2.84-10.52,4.2l-1.41.55a4,4,0,0,1-1.5.28,4.92,4.92,0,0,1-.84-.07l-2.07-.35c-1.07-.17-2.08-.34-3.08-.54a59.79,59.79,0,0,1-13.87-4.22c-3.26-1.51-5.26-3.3-6.49-5.82-1-2.13-2.18-4.24-3.27-6.28-.84-1.57-1.71-3.2-2.52-4.81a25.85,25.85,0,0,1-2.67-7.35c-.45-2.76-1.06-5.77-1.9-9.47a22.82,22.82,0,0,0-3.17-8.1,8.91,8.91,0,0,0-7.26-4,7.86,7.86,0,0,0-2.54.41c-3.52,1.17-5.59,4.35-5.54,8.48,0,1,0,2,0,3.07,0,1.65,0,3.35.06,5.05,0,1.07.06,2.13.11,3.19a61.32,61.32,0,0,1-5.34-10.28,58.66,58.66,0,0,0-3.62-7.4c-2.76-4.91-6.66-7.78-11.58-8.52a14.91,14.91,0,0,0-2.19-.18Z"/><path class="cls-1" d="M105.76,104.82a4.87,4.87,0,0,1-4.83-3.75c-.64-2.66-2.4-4.7-4.27-6.86-.48-.56-1-1.12-1.43-1.69A34.7,34.7,0,0,1,87.38,76a29.4,29.4,0,0,1,6.73-23.76,28.49,28.49,0,0,1,21.6-10.32h.84c.35,0,.71,0,1.06,0,13.32,0,27.62,10.61,28.5,28.36a29.32,29.32,0,0,1-5.88,19.2c-.73,1-1.51,1.94-2.27,2.86-.91,1.1-1.77,2.15-2.53,3.25a41.37,41.37,0,0,0-3.19,5.63c-1.49,3.17-3.71,3.64-4.9,3.64a5.42,5.42,0,0,1-1.25-.16,5.31,5.31,0,0,1-3.73-6.56c.77-3.59,2.83-6.38,4.7-8.72.44-.55.89-1.09,1.33-1.63A53.8,53.8,0,0,0,133,81.6a19.61,19.61,0,0,0,2-15.94A19.07,19.07,0,0,0,124.66,53.9,20.36,20.36,0,0,0,116.27,52a18.48,18.48,0,0,0-11.62,4.36c-6,4.72-8.26,11.12-6.87,19,.6,3.41,2.16,6.56,5.08,10.2.51.64,1,1.27,1.57,1.91A46.25,46.25,0,0,1,108,92.07a22.67,22.67,0,0,1,2.75,6.21,5,5,0,0,1-.47,3.91,5.24,5.24,0,0,1-3.24,2.47A5.12,5.12,0,0,1,105.76,104.82Z"/><path class="cls-2" d="M117.61,43.86c12.09,0,25.68,9.85,26.5,26.46a27.43,27.43,0,0,1-5.5,17.92c-1.54,2.11-3.35,4-4.83,6.16a41.91,41.91,0,0,0-3.34,5.91c-.74,1.55-1.8,2.49-3.1,2.49a2.87,2.87,0,0,1-.75-.1,3.34,3.34,0,0,1-2.28-4.2c.65-3,2.4-5.5,4.31-7.89a76,76,0,0,0,6-8,21.39,21.39,0,0,0-9.19-30.56A22.15,22.15,0,0,0,116.27,50a20.43,20.43,0,0,0-12.86,4.79c-6.71,5.33-9.09,12.48-7.6,20.93a24.53,24.53,0,0,0,5.48,11.11c1.7,2.12,3.57,4.12,5,6.38a21.48,21.48,0,0,1,2.5,5.67,3.14,3.14,0,0,1-2.29,3.89,3.06,3.06,0,0,1-.79.1,2.9,2.9,0,0,1-2.89-2.22c-.94-3.88-3.73-6.46-6.09-9.35a32.7,32.7,0,0,1-7.42-15.62c-2.74-16.89,10.84-31.76,26.35-31.76h.85c.35,0,.7,0,1,0m0-4c-.36,0-.72,0-1.08,0h-.82a30.54,30.54,0,0,0-23.13,11,31.41,31.41,0,0,0-7.17,25.38,36.6,36.6,0,0,0,8.27,17.51c.48.58,1,1.16,1.47,1.73,1.77,2.06,3.31,3.84,3.84,6a6.91,6.91,0,0,0,6.77,5.28,6.82,6.82,0,0,0,1.79-.23,7.28,7.28,0,0,0,4.48-3.4,7,7,0,0,0,.65-5.46,24.83,24.83,0,0,0-3-6.75A50.44,50.44,0,0,0,106,86.15c-.53-.62-1-1.24-1.55-1.87-2.69-3.37-4.13-6.23-4.67-9.3-1.27-7.22.74-12.81,6.14-17.1A16.53,16.53,0,0,1,116.27,54a18.4,18.4,0,0,1,7.56,1.77A17.13,17.13,0,0,1,133,66.25a17.59,17.59,0,0,1-1.78,14.31,54,54,0,0,1-4.4,5.9l-1.34,1.65c-2,2.51-4.25,5.53-5.11,9.56a7.23,7.23,0,0,0,6.94,9.13c2.83,0,5.27-1.74,6.71-4.78a39.39,39.39,0,0,1,3-5.35c.72-1,1.55-2,2.43-3.12s1.58-1.9,2.34-3a31.29,31.29,0,0,0,6.27-20.48,31.86,31.86,0,0,0-10.34-22.23,30.56,30.56,0,0,0-20.16-8Z"/><path class="cls-1" d="M111.67,113.36q-1.62,0-3.24,0c-3.55-.07-5.82-2.1-5.79-5.17a5.35,5.35,0,0,1,5.58-5.13c2.86,0,5.75-.07,8.59-.07,2.68,0,5.37,0,8,.06a5.92,5.92,0,0,1,4.35,1.84,4.94,4.94,0,0,1,1.29,3.72c-.16,2.24-1.75,4.67-5.72,4.75q-1.62,0-3.24,0l-4.85,0Z"/><path class="cls-2" d="M116.81,105c2.67,0,5.35,0,8,.06,2.31,0,3.81,1.59,3.68,3.41s-1.46,2.85-3.77,2.9l-3.22,0-4.89,0h0l-4.93,0c-1.07,0-2.14,0-3.2,0-2.47,0-3.85-1.24-3.83-3.15,0-1.71,1.44-3.11,3.61-3.15,2.85,0,5.71-.07,8.56-.07m0-4c-2.84,0-5.75,0-8.63.07-4.25.07-7.5,3.13-7.54,7.11,0,4.14,3.14,7.1,7.75,7.19,1,0,2,0,3.28,0h9.85c1.27,0,2.32,0,3.3,0,4.38-.09,7.39-2.69,7.68-6.61a6.91,6.91,0,0,0-1.82-5.21A7.87,7.87,0,0,0,124.9,101c-2.67,0-5.39-.06-8.09-.06Z"/><path class="cls-1" d="M121.8,122.71h-3.56l-1.5,0h-7.91a8.86,8.86,0,0,1-1.88-.15,5.12,5.12,0,0,1,.79-10.18c3-.05,6-.08,8.94-.08s5.83,0,8.65.08a5.29,5.29,0,0,1,3.76,1.6,5,5,0,0,1,1.41,3.62,5.27,5.27,0,0,1-5.23,5.06C124.24,122.69,123.14,122.71,121.8,122.71Z"/><path class="cls-2" d="M116.68,114.29q4.3,0,8.61.08a3.14,3.14,0,0,1,3.21,3.18,3.27,3.27,0,0,1-3.32,3.1c-1.12,0-2.25.06-3.39.06l-5.05,0v0h-7.9a8.06,8.06,0,0,1-1.48-.1,3.22,3.22,0,0,1-2.72-3.31,3.13,3.13,0,0,1,3.14-2.92q4.44-.08,8.9-.08m0-4c-2.92,0-5.94,0-9,.08a7.12,7.12,0,0,0-1.16,14.14,10.64,10.64,0,0,0,2.29.19h13c1.38,0,2.51,0,3.57-.07a7.23,7.23,0,0,0,7.14-7,7,7,0,0,0-2-5,7.26,7.26,0,0,0-5.15-2.21c-2.84-.05-5.76-.08-8.69-.08Z"/><path class="cls-1" d="M116.42,132c-1.66,0-3.33-.05-4.94-.14a5.17,5.17,0,0,1-3.69-1.81,5.06,5.06,0,0,1-1.22-3.75,5.32,5.32,0,0,1,5.14-4.61q1-.06,2-.06l1.46,0h2.82l1.49,0c.65,0,1.29,0,1.94,0a5.27,5.27,0,0,1,5.21,5.07,5.15,5.15,0,0,1-4.87,5.1C119.94,132,118.16,132,116.42,132Z"/><path class="cls-2" d="M119.44,123.65c.6,0,1.2,0,1.8,0a3.29,3.29,0,0,1,3.34,3.06,3.14,3.14,0,0,1-3,3.11c-1.72.1-3.44.15-5.17.15s-3.23,0-4.84-.14a3.16,3.16,0,0,1-3-3.37,3.32,3.32,0,0,1,3.28-2.81c.6,0,1.21,0,1.82,0,1,0,1.9,0,2.85,0h0c1,0,1.93,0,2.9,0m0-4-1.53,0h-2.76l-1.49,0c-.8,0-1.46,0-2.09.06a7.3,7.3,0,0,0-7,6.42,7.06,7.06,0,0,0,1.7,5.25,7.14,7.14,0,0,0,5.08,2.5c1.66.09,3.36.14,5.07.14s3.58-.05,5.4-.15a7.15,7.15,0,0,0,6.75-7.09,7.23,7.23,0,0,0-7.08-7.07c-.63,0-1.28-.06-2.06-.06Z"/><path class="cls-1" d="M116.2,39.19A4.31,4.31,0,0,1,112,35.51a23.36,23.36,0,0,1-.17-6,4.59,4.59,0,0,1,4.73-4.26,4.74,4.74,0,0,1,4.76,4,13.94,13.94,0,0,1,.29,1.95c0,.27.06.54.09.83l0,.28,0,.28c0,.22,0,.46-.06.71a6.32,6.32,0,0,1-.73,2.92,6.49,6.49,0,0,1-3.71,2.9A4,4,0,0,1,116.2,39.19Z"/><path class="cls-2" d="M116.58,27.24a2.77,2.77,0,0,1,2.78,2.42,25.39,25.39,0,0,1,.35,2.57,8.12,8.12,0,0,1-.53,2.91,4.51,4.51,0,0,1-2.47,2,2.22,2.22,0,0,1-.51.06,2.34,2.34,0,0,1-2.24-2,21.62,21.62,0,0,1-.15-5.51,2.6,2.6,0,0,1,2.75-2.44h0m0-4h0a6.63,6.63,0,0,0-6.72,6.08,26,26,0,0,0,.19,6.52,6.3,6.3,0,0,0,6.19,5.35,6.39,6.39,0,0,0,1.45-.17,8.48,8.48,0,0,0,5-3.82,8.18,8.18,0,0,0,1-3.81c0-.21,0-.43,0-.54l.09-.56-.07-.57c0-.26-.06-.52-.09-.77a18.55,18.55,0,0,0-.33-2.21,6.71,6.71,0,0,0-6.68-5.5Z"/><path class="cls-1" d="M142.6,50a4.82,4.82,0,0,1-3.41-1.46,4.74,4.74,0,0,1-1.4-3.42c0-2.88,4.92-7.81,7.8-7.88h.11A5,5,0,0,1,150,40a4.35,4.35,0,0,1-.26,4.61,19.68,19.68,0,0,1-4.61,4.63A4.41,4.41,0,0,1,142.6,50Z"/><path class="cls-2" d="M145.7,39.24c2.06,0,3.64,2.47,2.44,4.16A17.73,17.73,0,0,1,144,47.55a2.4,2.4,0,0,1-1.4.45,2.89,2.89,0,0,1-2.81-2.85c0-1.83,4-5.87,5.85-5.91h.06m0-4h-.15c-4,.09-9.71,5.89-9.76,9.85a6.72,6.72,0,0,0,2,4.85A6.86,6.86,0,0,0,142.6,52a6.38,6.38,0,0,0,3.7-1.18,21.62,21.62,0,0,0,5.09-5.1A6.4,6.4,0,0,0,151.8,39a7,7,0,0,0-6.1-3.8Z"/><path class="cls-1" d="M87.4,105.21a4.76,4.76,0,0,1-3.61-1.72,4.61,4.61,0,0,1,0-6.3A23.12,23.12,0,0,1,88,93.26a4.42,4.42,0,0,1,2.48-.76,5.09,5.09,0,0,1,4.92,5V98l-.18.41,0,.15a4.79,4.79,0,0,1-.94,1.82,34.47,34.47,0,0,1-3.73,3.72A4.82,4.82,0,0,1,87.4,105.21Z"/><path class="cls-2" d="M90.45,94.5a3.09,3.09,0,0,1,2.92,3.09A4.47,4.47,0,0,1,92.72,99a31.44,31.44,0,0,1-3.51,3.51,2.84,2.84,0,0,1-1.81.69,2.76,2.76,0,0,1-2.09-1,2.61,2.61,0,0,1-.06-3.68,21.76,21.76,0,0,1,3.84-3.6,2.41,2.41,0,0,1,1.36-.42m0-4h0a6.41,6.41,0,0,0-3.59,1.1,25.06,25.06,0,0,0-4.6,4.26,6.61,6.61,0,0,0,0,8.92,6.68,6.68,0,0,0,9.48.84,35.94,35.94,0,0,0,4-3.94,6.66,6.66,0,0,0,1.36-2.53l0-.07.31-.72,0-.89a7.11,7.11,0,0,0-6.92-7Z"/><path class="cls-1" d="M90.56,50a4.09,4.09,0,0,1-2.36-.75,20,20,0,0,1-5-5.12,4,4,0,0,1-.21-4,5.11,5.11,0,0,1,4.13-2.89h.24c2.19,0,4.5,2.14,5.39,3.06s2.65,3,2.58,5A5,5,0,0,1,90.56,50Z"/><path class="cls-2" d="M87.36,39.25c2,0,6,4,6,6A3,3,0,0,1,90.56,48a2.05,2.05,0,0,1-1.21-.39,18.05,18.05,0,0,1-4.5-4.6c-1-1.47.58-3.67,2.41-3.8h.1m0-4H87a7.13,7.13,0,0,0-5.78,4,6,6,0,0,0,.35,6,22.2,22.2,0,0,0,5.51,5.63A6.14,6.14,0,0,0,90.56,52a7,7,0,0,0,6.77-6.69c.09-2.52-1.66-4.89-3.14-6.43-1.33-1.37-4-3.67-6.83-3.67Z"/><path class="cls-1" d="M144.64,105l-.18-.06a5.48,5.48,0,0,1-1.94-1A36.66,36.66,0,0,1,139,100.5a4.53,4.53,0,0,1,0-6.28,4.53,4.53,0,0,1,6.64-.64,20.31,20.31,0,0,1,4,4.21,4.56,4.56,0,0,1,.35,4.65,5.18,5.18,0,0,1-4.54,2.75l-.47,0Z"/><path class="cls-2" d="M142.65,94.42a2.84,2.84,0,0,1,1.78.71,18.31,18.31,0,0,1,3.62,3.79c1.27,1.85-.06,4.16-2.62,4.27a5.48,5.48,0,0,1-1.6-.74,35.33,35.33,0,0,1-3.31-3.28,2.55,2.55,0,0,1,0-3.65,2.77,2.77,0,0,1,2.08-1.1m0-4h0a6.72,6.72,0,0,0-5.13,2.51,6.51,6.51,0,0,0,0,8.9,40.78,40.78,0,0,0,3.68,3.65,7.47,7.47,0,0,0,2.63,1.39l.08,0,.76.33.92,0a7.27,7.27,0,0,0,6.25-3.86,6.52,6.52,0,0,0-.49-6.66A22.2,22.2,0,0,0,147,92a6.81,6.81,0,0,0-4.31-1.61Z"/><path class="cls-1" d="M77.18,76.31l-.59-.06a12.43,12.43,0,0,1-2.48-.37A4.79,4.79,0,0,1,75,66.5c.82-.07,1.69-.11,2.58-.11.7,0,1.41,0,2.11.07a4.88,4.88,0,0,1,4.87,4.43,5.08,5.08,0,0,1-4.15,5.2,10.27,10.27,0,0,1-1.9.18c-.28,0-.58,0-.92,0h-.18Z"/><path class="cls-2" d="M77.54,68.39c.66,0,1.33,0,2,.06a2.89,2.89,0,0,1,3,2.61,3.06,3.06,0,0,1-2.59,3.07,18,18,0,0,1-2.52.19A15.05,15.05,0,0,1,74.66,74a2.56,2.56,0,0,1-2-2.77,2.6,2.6,0,0,1,2.54-2.68,23.75,23.75,0,0,1,2.39-.11m0-4c-1,0-1.88,0-2.76.12A6.78,6.78,0,0,0,73.56,77.8a14.57,14.57,0,0,0,2.88.45l.49,0,.38,0,.38,0,.86,0A12.25,12.25,0,0,0,80.79,78a7.07,7.07,0,0,0,5.72-7.32,6.83,6.83,0,0,0-6.74-6.26c-.77,0-1.52-.07-2.23-.07Z"/><path class="cls-1" d="M155.24,76.15a22.16,22.16,0,0,1-2.47-.14,4.71,4.71,0,0,1-4.17-4.85c0-2.48,1.93-4.41,4.7-4.7l.5,0v-.13l2,.1.71,0a12.42,12.42,0,0,1,2,.15,4.62,4.62,0,0,1,4,4.36,4.36,4.36,0,0,1-3.65,4.94A23.6,23.6,0,0,1,155.24,76.15Z"/><path class="cls-2" d="M155.71,68.38a20.55,20.55,0,0,1,2.49.15,2.64,2.64,0,0,1,2.34,2.55,2.4,2.4,0,0,1-2,2.81,21.68,21.68,0,0,1-3.33.26A18.57,18.57,0,0,1,153,74a2.7,2.7,0,0,1-2.4-2.86c0-1.45,1.18-2.53,2.91-2.71a7.5,7.5,0,0,1,.82,0c.46,0,.92,0,1.37,0v-.06m-3.89-4.19v.52a6.73,6.73,0,0,0-5.21,6.46A6.65,6.65,0,0,0,152.54,78a21.64,21.64,0,0,0,2.7.16,26.49,26.49,0,0,0,3.95-.31,6.38,6.38,0,0,0,5.34-7.09,6.64,6.64,0,0,0-5.62-6.16,14,14,0,0,0-2.36-.18l-.65,0-4.08-.2Z"/><rect class="cls-3" width="233.15" height="299" transform="translate(233.15 299) rotate(180)"/></g></g></svg>