<svg xmlns="http://www.w3.org/2000/svg" viewBox="0 0 548 702.76"><defs><style>.cls-1{fill:#292929;}.cls-2{fill:#e9e7e7;}.cls-3{fill:none;}</style></defs><g id="Layer_2" data-name="Layer 2"><g id="Layer_1-2" data-name="Layer 1"><path class="cls-1" d="M453.38,491a9.07,9.07,0,0,1-4.19-1.3,119,119,0,0,1-12.92-8.36c-4.88-3.46-9.93-7.05-15.42-9.52-9.57-4.31-20.79-6.49-33.35-6.49h-1.76c-3.91.07-8.05.31-12.31.74a220.46,220.46,0,0,0-23.89,4.2c-6.48,1.39-13.19,2.82-19.91,3.74a24.36,24.36,0,0,1-3.25.23c-10.1,0-15.95-7-21.61-13.78-.79-.94-1.59-1.9-2.41-2.85-7-8.13-15.47-17-27-18.71l-.64-.1c-12.19-1.85-24.81-3.77-35.88-9.73-6.89-3.72-21.08-15.82-24.27-28.28-1.21-4.74-.65-8.94,1.67-12.51,3.34-5.14,10.11-7.75,20.12-7.75a79.76,79.76,0,0,1,8.28.49c23.16,2.49,41.09,14,58.43,25.14a93.8,93.8,0,0,0,50.86,14.67c3.15,0,6.33-.15,9.47-.45l1.65-.16c6.38-.62,13-1.26,19.5-1.26,1.05,0,2.09,0,3.13.05,35.45,1.19,69.56,25.14,81.1,56.94L465,477.29a1.88,1.88,0,0,0,1.75,1.23,1.25,1.25,0,0,0,.66-.15c-1.29.74-7.42,7.6-9.26,9.81a7.24,7.24,0,0,1-3.13,2.5A4.82,4.82,0,0,1,453.38,491Z"/><path class="cls-2" d="M236.36,382.5a77.06,77.06,0,0,1,8.07.48c22.16,2.39,39.31,13.12,57.56,24.84a96,96,0,0,0,51.94,15q4.83,0,9.66-.46c7-.67,14-1.41,21-1.41,1,0,2,0,3.05.05,33.77,1.13,67.63,23.49,79.29,55.63a.12.12,0,0,0-.13-.09c-1.22,0-9.59,9.73-10.14,10.39a5.54,5.54,0,0,1-2.25,1.89,3.12,3.12,0,0,1-1,.16,7.27,7.27,0,0,1-3.25-1.07c-9.93-5.27-18.17-13.3-28.45-17.93-10.71-4.82-22.49-6.67-34.18-6.67h-1.79c-4.16.07-8.32.33-12.48.75-14.87,1.5-29.14,5.94-43.87,7.95a22.32,22.32,0,0,1-3,.21c-10.46,0-15.85-8.22-22.5-15.93-7.59-8.81-16.18-17.56-28.22-19.39s-24.91-3.71-35.87-9.61c-9.84-5.3-30.22-25.1-21.87-37.94,3.57-5.5,11.34-6.84,18.44-6.84m0-4c-10.73,0-18.07,2.92-21.8,8.66a17.35,17.35,0,0,0-1.92,14.09c3.33,13.06,18.09,25.69,25.25,29.55,11.38,6.13,24.74,8.16,36.52,9.95l.65.09c10.86,1.65,18.7,9.82,25.79,18.05.81.94,1.6,1.89,2.39,2.82,5.95,7.13,12.1,14.5,23.14,14.5a25.13,25.13,0,0,0,3.52-.25c6.8-.93,13.54-2.37,20.06-3.76A219,219,0,0,1,373.63,468c4.2-.42,8.29-.67,12.14-.73h1.73c12.27,0,23.22,2.12,32.53,6.32,5.31,2.39,10.06,5.76,15.08,9.32a120.19,120.19,0,0,0,13.14,8.49,10.87,10.87,0,0,0,5.13,1.54,7,7,0,0,0,2.33-.39,9.16,9.16,0,0,0,4-3.11c1.62-1.95,7.41-8.45,8.8-9.4a3.24,3.24,0,0,1-1.74.46h0a3.89,3.89,0,0,1-3.63-2.55l7.52-2.73c-5.84-16.11-17.51-30.8-32.84-41.37A95.2,95.2,0,0,0,387.75,417c-1,0-2.11-.05-3.19-.05-6.62,0-13.26.64-19.69,1.26l-1.66.17c-3.08.29-6.2.44-9.28.44a91.82,91.82,0,0,1-49.78-14.35c-17.53-11.26-35.66-22.9-59.3-25.44a78.41,78.41,0,0,0-8.49-.51Z"/><path class="cls-1" d="M451,693.77c-3.81,0-7.36-2-10-5.76-4.54-6.35-6.23-13.69-7.87-20.78l0-.15q-1.41-6.12-2.75-12.25c-2.09-9.47-4.25-19.26-6.88-28.71-5-18.11-12.17-33.56-21.83-47.25-12.82-18.14-28.83-29.09-48.95-33.47a92.83,92.83,0,0,0-19.94-2A124.26,124.26,0,0,0,320,544a141.43,141.43,0,0,1-32.7-.42c-29.48-3.8-58.4-13.7-91-31.17-20.52-11-40.64-21-64.81-33-24.67-12.2-45.31-21.15-65-28.16-6.94-2.48-14.19-4.52-21.21-6.5l-5-1.43c-4.93-1.41-7.93-4.42-8.9-9a11.38,11.38,0,0,1,4.26-11.73C40.75,418.55,47,416.4,55.27,416c1.4-.08,2.83-.12,4.26-.12,12.17,0,23.78,2.8,33.52,5.53.48.13.94.28,1.41.42.77.24,1.5.46,2.23.63a49.47,49.47,0,0,1,13.76,5.26C100,416.34,89.3,404.75,78.67,393.39A68.68,68.68,0,0,0,72,387.44c-1.09-.89-2.17-1.79-3.24-2.71-3.93-3.42-5.25-7.75-3.79-12.54,1.5-4.95,5-7.8,9.91-8,1.51-.08,2.84-.11,4-.11a44.34,44.34,0,0,1,6.62.44c13.87,2.09,26.36,9.23,37.11,21.22q4.82,5.37,9.58,10.8c4.66,5.29,9.48,10.75,14.31,16,.39.42.76.84,1.13,1.27a158.32,158.32,0,0,1-12.6-30.51c-3.45-11.65-8.52-22.41-15.08-35-3.19-6.13-2.87-11.11,1-15.22a11.29,11.29,0,0,1,8.73-3.56,27.08,27.08,0,0,1,4,.35c9.33,1.4,16.48,6.74,21.87,16.32a130.47,130.47,0,0,1,8.07,16.47c5.75,14.62,14.16,27.44,22.39,39.12,2.45,3.47,5,7.05,7.75,10.42a20.31,20.31,0,0,1,2.88,4.81c-1-3.77-2-7.54-3.05-11.27-2.71-9.67-3.14-19.37-3.38-29.29-.1-3.92-.12-7.9-.14-11.75,0-2.42,0-4.83,0-7.24-.09-6.54,2.74-11.09,8-12.83a11.45,11.45,0,0,1,3.63-.59c4.23,0,8.22,2.27,10.94,6.24,3.6,5.26,5.17,11.27,6.35,16.48,1.94,8.57,3.33,15.51,4.38,21.85,1.23,7.42,4.21,14,7,19.41,1.94,3.84,4,7.71,6,11.45,2.53,4.73,5.15,9.62,7.55,14.53,3.65,7.44,9.63,12.88,18.8,17.13,9.55,4.42,20.11,7.65,34.26,10.46,2.48.5,5,.91,7.51,1.32,1.58.26,3.17.51,4.75.79a18.5,18.5,0,0,0,3.27.3,17.07,17.07,0,0,0,6.24-1.18l3.42-1.35c8.13-3.19,16.53-6.49,24.74-9.87,12.87-5.32,23.89-9.2,35.82-10.86a116.58,116.58,0,0,1,16.33-1.25,68.65,68.65,0,0,1,24.4,4.11c9.12,3.4,17.72,9.11,27.05,18,12.43,11.8,23.55,26.37,35,45.86,12.32,21,21.38,40.75,27.68,60.39l.07.23c4.5,14,4.67,14.55,1.31,23.44-.47,1.25-1,2.68-1.62,4.39-9.45,26.39-19.82,48.78-31.71,68.45a180.76,180.76,0,0,1-14.69,20.21,32.78,32.78,0,0,1-9.23,7.41A12.69,12.69,0,0,1,451,693.77Z"/><path class="cls-2" d="M129.75,331.52a25.2,25.2,0,0,1,3.73.33c9.57,1.43,15.91,7.29,20.43,15.32a132.29,132.29,0,0,1,8,16.22c5.63,14.31,13.83,27.08,22.62,39.54,2.52,3.58,5.06,7.17,7.84,10.54s3.6,7.14,5,10.89c2.1,5.73,4.08,11.5,6.14,17.24a21.54,21.54,0,0,0,1.16,2.3l.76-.23a20,20,0,0,0-.31-2.45c-3.11-12-6.09-24.07-9.44-36-2.64-9.46-3.07-19.11-3.3-28.8-.16-6.32-.12-12.64-.19-19-.08-5.68,2.18-9.43,6.6-10.91a9.65,9.65,0,0,1,3-.48,11.43,11.43,0,0,1,9.29,5.37c3.27,4.77,4.8,10.27,6.05,15.8,1.63,7.2,3.15,14.44,4.36,21.73,1.18,7.13,3.94,13.64,7.15,20,4.41,8.71,9.26,17.2,13.56,26S253.38,449,261.88,453c11.09,5.13,22.79,8.24,34.71,10.61,4.08.81,8.21,1.39,12.3,2.11a20.42,20.42,0,0,0,3.63.33,18.9,18.9,0,0,0,7-1.32c9.41-3.7,18.84-7.37,28.19-11.23,11.44-4.73,23-9,35.34-10.73a116,116,0,0,1,16.05-1.23,67,67,0,0,1,23.7,4c10.13,3.78,18.61,10.18,26.37,17.55,14,13.26,24.94,28.87,34.64,45.41,11.18,19.06,20.73,38.92,27.49,60,5.22,16.25,4.45,13.73-.22,26.78-8.45,23.62-18.52,46.57-31.53,68.08a182.7,182.7,0,0,1-14.54,20,31.36,31.36,0,0,1-8.67,6.93,10.75,10.75,0,0,1-5.35,1.56c-3.2,0-6.11-1.74-8.39-4.93-4.34-6.06-5.95-13.13-7.58-20.21-3.17-13.7-5.89-27.52-9.65-41-4.75-17.09-11.82-33.26-22.13-47.86-12.47-17.65-28.81-29.63-50.16-34.28a95.94,95.94,0,0,0-20.36-2.09,126.06,126.06,0,0,0-12.86.69,138.88,138.88,0,0,1-32.23-.42c-32.21-4.14-61.84-15.69-90.31-30.95-21.38-11.46-43.13-22.24-64.88-33-21.24-10.5-42.83-20.27-65.17-28.24-8.63-3.09-17.53-5.45-26.36-8-4-1.14-6.63-3.44-7.49-7.46A9.38,9.38,0,0,1,37,424.24c5.37-4.4,11.74-5.93,18.43-6.29,1.39-.08,2.77-.12,4.15-.12,11.24,0,22.16,2.42,33,5.46,1.25.35,2.47.78,3.73,1.07,8.81,2,16.53,5.91,22.72,12.68a86.31,86.31,0,0,0,6.74,6c.55.48,1.16.9,1.74,1.35l.49-.5a15.63,15.63,0,0,0-1-1.31c-15.6-16.88-31.15-33.81-46.85-50.59-3-3.24-6.66-5.89-10-8.81s-4.44-6.33-3.19-10.45c1.19-3.94,3.91-6.42,8.1-6.63,1.31-.06,2.63-.1,3.95-.1a42.83,42.83,0,0,1,6.32.42c14.6,2.2,26.32,9.86,35.92,20.57,8,8.92,15.81,18,23.91,26.85,5.49,6,9.79,13.1,14.62,19.71,3.3,4.53,6.57,9.08,9.87,13.6a17.63,17.63,0,0,0,1.46,1.54l.57-.42a18,18,0,0,0-.94-1.92c-5.08-7.83-10.2-15.64-15.26-23.48A155.33,155.33,0,0,1,137,382.72c-3.66-12.39-9.27-23.94-15.21-35.35-2.77-5.31-2.61-9.43.66-12.92a9.37,9.37,0,0,1,7.28-2.93m0-4a13.22,13.22,0,0,0-10.19,4.19c-4.45,4.74-4.88,10.63-1.3,17.51,6.5,12.48,11.53,23.14,14.93,34.64a162.61,162.61,0,0,0,6.54,18.06l-6-6.75c-3.13-3.55-6.37-7.22-9.58-10.81-11.07-12.34-24-19.7-38.3-21.86A47,47,0,0,0,79,362c-1.25,0-2.61,0-4.14.11-5.72.28-10,3.73-11.74,9.46-1.67,5.52-.11,10.71,4.4,14.63,1.09.95,2.2,1.86,3.28,2.75a66.55,66.55,0,0,1,6.45,5.77c8.41,9,16.88,18.13,25.23,27.17q-2.55-.84-5.31-1.47c-.65-.15-1.35-.37-2.08-.59-.48-.15-1-.3-1.46-.43-9.88-2.77-21.65-5.61-34.06-5.61-1.47,0-2.93,0-4.37.12-8.74.48-15.34,2.77-20.75,7.2a13.41,13.41,0,0,0-4.94,13.69c.78,3.65,3.2,8.44,10.3,10.47l5,1.42c7,2,14.22,4,21.09,6.46,19.57,7,40.14,15.91,64.74,28.07,24.15,11.94,44.25,21.94,64.76,32.94,32.82,17.59,62,27.57,91.69,31.39a143.14,143.14,0,0,0,33.15.43,120.37,120.37,0,0,1,12.45-.67,90.68,90.68,0,0,1,19.51,2c19.61,4.27,35.23,15,47.74,32.68,9.53,13.49,16.58,28.74,21.55,46.62,2.61,9.4,4.76,19.16,6.84,28.59.89,4,1.81,8.2,2.76,12.29l0,.14c1.68,7.29,3.42,14.83,8.19,21.5,3.05,4.26,7.18,6.6,11.65,6.6a14.64,14.64,0,0,0,7.35-2.1,34.5,34.5,0,0,0,9.78-7.88,182.36,182.36,0,0,0,14.85-20.44c12-19.78,22.39-42.28,31.88-68.81.6-1.68,1.14-3.1,1.61-4.35,3.61-9.55,3.24-10.7-1.27-24.76l-.08-.24c-6.34-19.77-15.46-39.66-27.85-60.78-11.53-19.66-22.76-34.37-35.33-46.3-9.54-9-18.35-14.89-27.73-18.39a70.75,70.75,0,0,0-25.1-4.23,118.81,118.81,0,0,0-16.6,1.27c-12.87,1.79-25.06,6.34-36.32,11-8.2,3.39-16.63,6.69-24.77,9.89L318,461a14.81,14.81,0,0,1-5.5,1.05,16.38,16.38,0,0,1-2.93-.27c-1.59-.28-3.19-.54-4.78-.8-2.46-.4-5-.81-7.44-1.3-14-2.78-24.42-6-33.81-10.31-8.73-4.05-14.4-9.2-17.84-16.2-2.42-4.94-5.05-9.85-7.58-14.59-2-3.73-4.06-7.59-6-11.41-2.68-5.3-5.59-11.69-6.77-18.84-1.06-6.38-2.46-13.36-4.41-22-1.22-5.4-2.85-11.62-6.65-17.17A15.33,15.33,0,0,0,201.72,342a13.49,13.49,0,0,0-4.27.69c-3.54,1.18-9.46,4.67-9.33,14.75,0,2.41,0,4.82,0,7.23,0,3.85,0,7.84.14,11.79.24,10,.68,19.84,3.43,29.71-1.37-1.86-2.69-3.74-4-5.59-8.16-11.57-16.49-24.26-22.17-38.69a132.86,132.86,0,0,0-8.18-16.72c-5.64-10-13.48-15.84-23.32-17.32a28.47,28.47,0,0,0-4.33-.37Z"/><path class="cls-1" d="M248.57,243.67a8.78,8.78,0,0,1-8.72-6.75c-1.67-6.9-6-11.94-10.61-17.27-1.1-1.27-2.23-2.58-3.31-3.91C216,203.6,210.18,191.28,208,178.08a66.43,66.43,0,0,1,15.21-53.67c12.6-14.81,30.36-23.31,48.72-23.31.66,0,1.32,0,2,0q1.23-.06,2.49-.06c15,0,30.5,6.18,42.4,17a67.5,67.5,0,0,1,21.88,47.13c.78,15.66-3.7,30.26-13.32,43.4-1.66,2.28-3.47,4.48-5.23,6.6-2.08,2.52-4.23,5.13-6.09,7.83a96.5,96.5,0,0,0-7.7,13.61c-2.14,4.51-5.36,7-9.08,7a8.89,8.89,0,0,1-2.26-.3c-5.18-1.32-8-6.46-6.81-12.22,1.68-7.87,6.31-14.13,10.53-19.38,1-1.28,2.06-2.55,3.1-3.82a131.9,131.9,0,0,0,10.95-14.7,48.78,48.78,0,0,0,4.93-39.66,47.51,47.51,0,0,0-25.63-29.3,50.18,50.18,0,0,0-20.82-4.83c-10.19,0-20,3.64-29,10.83C229.47,142,223.7,157.9,227.15,177.51c1.48,8.38,5.44,16.39,12.49,25.2,1.22,1.52,2.51,3.06,3.76,4.54a111.87,111.87,0,0,1,8.21,10.62,51.25,51.25,0,0,1,6.12,13.86,9.2,9.2,0,0,1-.84,7.12,9.66,9.66,0,0,1-5.95,4.52A9.45,9.45,0,0,1,248.57,243.67Z"/><path class="cls-2" d="M276.44,103.08c28.4,0,60.34,23.15,62.28,62.2.77,15.36-3.77,29.6-12.93,42.12-3.62,4.95-7.88,9.43-11.36,14.47a100.39,100.39,0,0,0-7.86,13.89c-1.73,3.66-4.21,5.86-7.27,5.86a7.42,7.42,0,0,1-1.77-.23c-4.08-1-6.37-5.06-5.34-9.87,1.52-7.17,5.63-12.94,10.13-18.55,4.9-6.11,10.15-12.07,14.2-18.74,15.64-25.75,5.52-59.48-21.58-71.81a52,52,0,0,0-21.65-5c-10.61,0-20.8,3.76-30.25,11.26-15.77,12.51-21.35,29.32-17.86,49.19,1.76,10,6.7,18.34,12.9,26.1,4,5,8.39,9.68,11.85,15a49.92,49.92,0,0,1,5.87,13.32,7.36,7.36,0,0,1-5.36,9.15,7.44,7.44,0,0,1-1.87.24,6.8,6.8,0,0,1-6.78-5.22c-2.21-9.12-8.78-15.18-14.31-22-8.83-10.84-15.18-22.64-17.46-36.72-6.44-39.7,25.49-74.65,62-74.66.66,0,1.32,0,2,0,.82,0,1.65-.06,2.48-.06m0-4c-.84,0-1.68,0-2.5.06-.66,0-1.31,0-2,0-19,0-37.27,8.76-50.25,24a68.38,68.38,0,0,0-15.65,55.28c2.2,13.56,8.19,26.18,18.31,38.6,1.1,1.36,2.24,2.68,3.34,4,4.44,5.14,8.63,10,10.19,16.43a10.75,10.75,0,0,0,10.66,8.28,11.57,11.57,0,0,0,10.05-5.83,11.09,11.09,0,0,0,1-8.66,53.28,53.28,0,0,0-6.37-14.4A111.66,111.66,0,0,0,244.93,206c-1.24-1.47-2.52-3-3.73-4.5-6.92-8.66-10.64-16.15-12.08-24.29-3.31-18.84,2.21-34.1,16.41-45.37,8.69-6.9,18-10.39,27.76-10.39a48.19,48.19,0,0,1,20,4.65,45.53,45.53,0,0,1,24.55,28.07,46.8,46.8,0,0,1-4.73,38,131.8,131.8,0,0,1-10.78,14.47q-1.57,1.92-3.12,3.84c-4.36,5.43-9.15,11.91-10.93,20.21-1.46,6.85,2,13,8.27,14.58a11,11,0,0,0,2.76.36c2.62,0,7.53-1.06,10.89-8.15a95.22,95.22,0,0,1,7.54-13.33c1.81-2.62,3.84-5.08,6-7.69,1.77-2.14,3.6-4.36,5.3-6.69,9.89-13.52,14.5-28.55,13.7-44.68-1-19-9-36.21-22.53-48.51C307.92,105.45,292,99.08,276.44,99.08Z"/><path class="cls-1" d="M262.46,263.74c-2.91,0-5.31,0-7.56-.07-6.82-.14-11-3.75-11-9.43.05-5.33,4.45-9.28,10.45-9.38,6.72-.11,13.51-.17,20.16-.17,6.3,0,12.65.05,18.87.15a11.26,11.26,0,0,1,8.26,3.44A8.9,8.9,0,0,1,304,255c-.38,5.29-4.42,8.53-10.81,8.67-2.25,0-4.66.06-7.6.06h-5.74l-5.73,0-5.83,0Z"/><path class="cls-2" d="M274.56,246.69q9.42,0,18.84.15c5.44.09,9,3.73,8.64,8s-3.42,6.7-8.86,6.82c-2.52.05-5,.06-7.56.06l-11.49,0h-.07l-11.61,0c-2.51,0-5,0-7.51-.06-5.8-.12-9-2.91-9-7.41.05-4,3.38-7.31,8.49-7.4q10.06-.17,20.13-.17m0-4c-6.67,0-13.46.06-20.2.17-7,.12-12.35,5-12.41,11.36-.08,6.79,5,11.29,12.91,11.45,2.26,0,4.66.06,7.59.06h5.85l5.76,0h.07l5.73,0h5.76c2.95,0,5.38,0,7.65-.07,7.41-.15,12.29-4.18,12.76-10.52a10.89,10.89,0,0,0-2.86-8.21,13.24,13.24,0,0,0-9.7-4.09c-6.24-.1-12.6-.15-18.91-.15Z"/><path class="cls-1" d="M286.25,285.72c-2,0-4,0-5.95,0l-4.09,0-1.83.06H255.81a18.8,18.8,0,0,1-3.88-.3c-5-1-8.34-5.18-8-9.88a9.32,9.32,0,0,1,9.34-8.71c7.08-.12,14.13-.18,21-.18s13.67.06,20.3.18a9.75,9.75,0,0,1,6.92,2.92,9.21,9.21,0,0,1,2.58,6.59c-.1,5-4.27,9-9.71,9.24C291.94,285.67,289.37,285.72,286.25,285.72Z"/><path class="cls-2" d="M274.23,268.63q10.14,0,20.26.18a7.39,7.39,0,0,1,7.54,7.47c-.08,3.82-3.19,7.08-7.8,7.29-2.65.11-5.31.15-8,.15-4,0-7.92-.08-11.88-.08v.07H255.8a17.31,17.31,0,0,1-3.46-.25c-4-.84-6.68-4.14-6.41-7.78a7.37,7.37,0,0,1,7.39-6.86q10.46-.18,20.91-.18m0-4c-6.83,0-13.89.06-21,.18A11.43,11.43,0,0,0,242,275.38c-.43,5.7,3.6,10.74,9.58,12a20.52,20.52,0,0,0,4.27.34h22.58v0l1.9,0c2,0,4,0,6,0,3.15,0,5.74-.05,8.15-.16,6.5-.29,11.5-5.1,11.62-11.2a11.21,11.21,0,0,0-3.14-8,11.71,11.71,0,0,0-8.33-3.52c-6.63-.13-13.47-.19-20.33-.19Z"/><path class="cls-1" d="M273.65,307.59c-3.87,0-7.73-.1-11.49-.31A9.57,9.57,0,0,1,255.4,304a9.21,9.21,0,0,1-2.23-6.82c.43-4.53,4.45-8.06,9.56-8.4,1.31-.08,2.71-.12,4.4-.12l3.39,0c1.11,0,2.22,0,3.33,0s2.28,0,3.39,0,2.32,0,3.48,0c1.68,0,3.06,0,4.37.13,5.56.36,9.74,4.31,9.72,9.19a9.41,9.41,0,0,1-8.88,9.31C281.81,307.48,277.68,307.59,273.65,307.59Z"/><path class="cls-2" d="M280.72,290.62c1.42,0,2.83,0,4.24.12,4.6.3,7.87,3.48,7.85,7.19a7.38,7.38,0,0,1-7,7.32q-6.06.35-12.16.34-5.7,0-11.38-.31a7.45,7.45,0,0,1-7.11-7.94c.33-3.46,3.44-6.31,7.7-6.59,1.42-.09,2.85-.12,4.28-.12,2.23,0,4.47.07,6.7.07h.07c2.27,0,4.54-.08,6.81-.08m0-4c-1.17,0-2.34,0-3.51,0s-2.2,0-3.3,0h-.07c-1.1,0-2.19,0-3.29,0s-2.27,0-3.41,0c-1.74,0-3.19,0-4.54.13-6.09.4-10.89,4.69-11.42,10.2a11.23,11.23,0,0,0,2.71,8.31,11.5,11.5,0,0,0,8.16,4c3.79.22,7.7.32,11.6.32,4.06,0,8.23-.11,12.39-.34A11.42,11.42,0,0,0,296.81,298c0-5.95-4.95-10.77-11.59-11.2-1.35-.09-2.78-.13-4.5-.13Z"/><path class="cls-1" d="M273.12,89.41A7.53,7.53,0,0,1,265.87,83a53.25,53.25,0,0,1-.37-13.45A8.11,8.11,0,0,1,274,62c4.36,0,7.45,2.63,8.55,7.23a33.21,33.21,0,0,1,.62,4.25c.07.65.14,1.31.22,2l0,.29,0,.28c-.09.56-.14,1.2-.18,1.88a12.54,12.54,0,0,1-1.33,5.67c-1.36,2.26-4.07,4.87-7,5.59A7.26,7.26,0,0,1,273.12,89.41Z"/><path class="cls-2" d="M274,64c3.6,0,5.73,2.3,6.54,5.7a60.7,60.7,0,0,1,.81,6c-.34,2.15-.1,4.91-1.25,6.83a10.53,10.53,0,0,1-5.79,4.67,5,5,0,0,1-1.2.15,5.49,5.49,0,0,1-5.27-4.71,51.39,51.39,0,0,1-.36-12.94A6.14,6.14,0,0,1,274,64H274m0-4h-.07a10.15,10.15,0,0,0-10.43,9.38,55.41,55.41,0,0,0,.39,14,9.44,9.44,0,0,0,9.22,8,9.08,9.08,0,0,0,2.14-.26c3.78-.91,6.82-4.07,8.28-6.5a14.29,14.29,0,0,0,1.61-6.56c.05-.64.09-1.24.16-1.72l.09-.56-.07-.56c-.09-.67-.15-1.32-.22-2a34.87,34.87,0,0,0-.67-4.51C283.14,63.3,279.24,60,274,60Z"/><path class="cls-1" d="M335.17,114.82a8.66,8.66,0,0,1-6.11-2.64,8.48,8.48,0,0,1-2.5-6.09c.07-5.37,10.34-15.74,15.7-15.86h.18a8.93,8.93,0,0,1,7.77,4.91,7.62,7.62,0,0,1-.41,8,43.6,43.6,0,0,1-10.19,10.23A7.69,7.69,0,0,1,335.17,114.82Z"/><path class="cls-2" d="M342.44,92.23c4.84,0,8.57,5.8,5.73,9.78a41.51,41.51,0,0,1-9.72,9.76,5.67,5.67,0,0,1-3.28,1,6.79,6.79,0,0,1-6.62-6.71c.06-4.3,9.46-13.78,13.76-13.88h.13m0-4h-.22c-6.52.15-17.58,11.31-17.66,17.83a10.44,10.44,0,0,0,3.08,7.53,10.69,10.69,0,0,0,7.53,3.23,9.72,9.72,0,0,0,5.59-1.78,45.4,45.4,0,0,0,10.67-10.71A9.58,9.58,0,0,0,352,94.22a10.93,10.93,0,0,0-9.54-6Z"/><path class="cls-1" d="M205.43,244.58a8.51,8.51,0,0,1-6.44-3.09c-3.05-3.59-3.09-7.91-.1-11.27a52.11,52.11,0,0,1,9.39-8.78,7.72,7.72,0,0,1,4.32-1.33c4.73,0,8.7,4.12,8.85,9.19v.45l-.18.41c-.07.16-.13.37-.21.61a8.65,8.65,0,0,1-1.65,3.28,77.93,77.93,0,0,1-8.48,8.47A8.63,8.63,0,0,1,205.43,244.58Z"/><path class="cls-2" d="M212.6,222.11a7.25,7.25,0,0,1,6.85,7.25,10.73,10.73,0,0,1-1.52,3.35,75.7,75.7,0,0,1-8.25,8.26,6.73,6.73,0,0,1-4.25,1.61,6.44,6.44,0,0,1-4.91-2.38c-2.38-2.81-2.52-6-.14-8.65a49.37,49.37,0,0,1,9-8.45,5.68,5.68,0,0,1,3.2-1m0-4h0a9.71,9.71,0,0,0-5.43,1.67,53.39,53.39,0,0,0-9.78,9.12c-3.69,4.16-3.66,9.48.08,13.89a10.49,10.49,0,0,0,8,3.79,10.66,10.66,0,0,0,6.78-2.51,79.31,79.31,0,0,0,8.7-8.69,10.57,10.57,0,0,0,2.07-4q.08-.25.15-.45l.35-.81,0-.87c-.19-6.15-5-11.14-10.85-11.14Z"/><path class="cls-1" d="M212.84,114.9a6.91,6.91,0,0,1-4-1.27,44.72,44.72,0,0,1-11.07-11.33,6.65,6.65,0,0,1-.29-6.79A9.39,9.39,0,0,1,205,90.26l.39,0c3.36,0,7.73,3.3,10.71,6.38,1.64,1.71,5.45,6.06,5.32,9.7C221.2,110.89,217.22,114.9,212.84,114.9Z"/><path class="cls-2" d="M205.33,92.24c4.63,0,14.2,9.47,14,14a7,7,0,0,1-6.53,6.65A4.92,4.92,0,0,1,210,112a43,43,0,0,1-10.57-10.82c-2.35-3.46,1.36-8.61,5.67-8.93h.23m0-4-.52,0a11.31,11.31,0,0,0-9.12,6.38,8.62,8.62,0,0,0,.43,8.79,46.61,46.61,0,0,0,11.58,11.84,8.89,8.89,0,0,0,5.14,1.63c5.5,0,10.32-4.81,10.53-10.51.15-4.24-3.62-8.81-5.88-11.16-2-2.1-7.27-7-12.16-7Z"/><path class="cls-1" d="M341,244.37c-.16-.07-.38-.14-.64-.23a10.35,10.35,0,0,1-3.64-1.83,85.54,85.54,0,0,1-7.95-7.89c-3.07-3.45-3-7.54.09-11.21a8.38,8.38,0,0,1,6.41-3.29,8.53,8.53,0,0,1,5.43,2.12,44.86,44.86,0,0,1,8.91,9.34,8,8,0,0,1,.65,8.17,9.49,9.49,0,0,1-8.37,5l-.46,0Z"/><path class="cls-2" d="M335.29,221.92a6.64,6.64,0,0,1,4.17,1.67A43.84,43.84,0,0,1,348,232.5c3,4.36-.15,9.79-6.16,10-.79-.35-2.58-.7-3.77-1.74a80.68,80.68,0,0,1-7.76-7.71c-2.47-2.77-2.27-5.78.11-8.58a6.48,6.48,0,0,1,4.89-2.59m0-4h0a10.47,10.47,0,0,0-7.94,4c-3.72,4.38-3.74,9.68-.06,13.83a87,87,0,0,0,8.14,8.07,12.1,12.1,0,0,0,4.33,2.22l.48.17.84.37.91-.05a11.48,11.48,0,0,0,10.08-6.08,10,10,0,0,0-.78-10.2,47.32,47.32,0,0,0-9.3-9.76,10.61,10.61,0,0,0-6.7-2.57Z"/><path class="cls-1" d="M181.72,176.67c-.44,0-.94-.09-1.49-.13a26.68,26.68,0,0,1-5.29-.8c-4.19-1.2-6.54-4.4-6.28-8.57.29-4.7,3.2-7.75,7.78-8.17,1.85-.17,3.8-.25,5.8-.25,1.54,0,3.15.05,4.8.15,5,.3,8.54,3.42,8.92,7.95.37,4.29-2.92,8.31-7.65,9.34a21.57,21.57,0,0,1-4,.38c-.68,0-1.42.05-2.24.11h-.19Z"/><path class="cls-2" d="M182.24,160.75c1.56,0,3.13.05,4.68.14,4.17.25,6.76,2.68,7.05,6.13.28,3.24-2.26,6.38-6.08,7.22a46.23,46.23,0,0,1-5.93.44,38.29,38.29,0,0,1-6.47-.86c-3.09-.89-5.05-3.06-4.84-6.52.23-3.71,2.33-6,6-6.31,1.86-.17,3.74-.24,5.62-.24m0-4h0c-2.06,0-4.08.09-6,.26-5.57.51-9.24,4.35-9.6,10-.32,5.09,2.64,9.16,7.73,10.61a27.51,27.51,0,0,0,5.68.87l1.41.12.38,0,.38,0c.78,0,1.49-.08,2.18-.1a24.06,24.06,0,0,0,4.32-.43c5.71-1.24,9.67-6.17,9.22-11.46-.48-5.58-4.72-9.41-10.8-9.78-1.69-.1-3.34-.15-4.92-.15Z"/><path class="cls-1" d="M364.87,176.28a46.82,46.82,0,0,1-5.49-.32c-4.42-.52-7.39-4-7.4-8.7,0-4.4,3.53-7.84,8.62-8.37.64-.06,1.32-.09,2.13-.09.43,0,.86,0,1.29,0v-.19l2,.1c.58,0,1.17,0,1.76.05a27.15,27.15,0,0,1,4.36.32,8.19,8.19,0,0,1,7.13,7.81c.39,4.57-2.14,8.08-6.3,8.73A53.78,53.78,0,0,1,364.87,176.28Z"/><path class="cls-2" d="M366,160.73a45.8,45.8,0,0,1,5.87.34,6.2,6.2,0,0,1,5.49,6c.29,3.42-1.46,6.09-4.62,6.58a51.17,51.17,0,0,1-7.84.62,45.85,45.85,0,0,1-5.26-.3c-3.37-.4-5.63-3-5.63-6.73,0-3.4,2.77-5.94,6.83-6.37.64-.06,1.28-.08,1.92-.08,1.08,0,2.16,0,3.23,0v-.12m-3.88-4.2v.27c-.61,0-1.15,0-1.68.1-6.15.64-10.44,4.9-10.42,10.36,0,5.66,3.78,10.06,9.17,10.69a48.58,48.58,0,0,0,5.72.33,55.21,55.21,0,0,0,8.46-.67c5.18-.8,8.46-5.28,8-10.87a10.21,10.21,0,0,0-8.77-9.61,28.48,28.48,0,0,0-4.68-.35c-.57,0-1.14,0-1.71-.05l-4.07-.2Z"/><rect class="cls-3" width="548" height="702.76" transform="translate(548 702.76) rotate(180)"/></g></g></svg>