<svg xmlns="http://www.w3.org/2000/svg" viewBox="0 0 862.44 697"><defs><style>.cls-1{fill:#215ade;}</style></defs><g id="Layer_2" data-name="Layer 2"><g id="Layer_1-2" data-name="Layer 1"><path class="cls-1" d="M858.93,360.23q-2.68-3.89-5.24-7.85c-15.15-23.7-24.25-50.25-35.45-75.8-2-4.52-1.75-9.28,0-14.12,11.52-31.45,14.53-63.84,8.46-96.71-6.53-35.32-22.73-66.1-46.91-92.62-24-26.33-53.51-44.39-86.61-56.85C651.65.64,582.38,0,582.38,0H0V697s630.29-.37,654.25-.37c-3.86-11.29-12.31-18.67-21.68-25.17a77.19,77.19,0,0,0-21.39-10.32c-6.39-2-8.49-5.23-7.13-11.85,2.85-13.91,5.8-27.81,9-41.64,3-12.81,6.14-25.62,9.85-38.24,2.15-7.36,3.39-15.07,7.19-21.91L630,546c1.4-3.51,2.73-7,4.21-10.52,6.53-15.3,18.89-21.68,35-18a108,108,0,0,1,10.8,3.38c22.23,7.67,44.32,15.82,67.61,19.85,6.21,1.08,12.42,1.87,18.77.83,14-2.29,23.66-13,24.26-27.2.34-8.16-.77-16.38,1.14-24.49,1.57-6.72,3.87-11.95,12.13-13,7.68-1,11.53-8.52,10.05-16.19-.65-3.35-3.07-5.81-4-8.82,3.12-2.43,6.12-4.42,8.69-6.85a42.24,42.24,0,0,0,6.89-9c1.55-2.56,1.82-4.69-.11-7.45a31.8,31.8,0,0,1-5.83-19c.06-5.17,2.16-8.74,7.13-10.72,5.46-2.17,10.85-4.55,16.16-7.07,5.52-2.62,10.79-5.71,14.89-10.39C863.6,374.75,864,367.54,858.93,360.23ZM807.38,227.15c-3.87,1.77-7.88.81-11.78.87-3,0-3-2.28-3-4.48V209.48l-27.06,27.41c16.6,27.71,3.75,53.12-12.14,64.18a46.43,46.43,0,0,1-64.82-64.47c14.19-20.52,37.11-24.9,65.68-11.7q12.71-13.15,25.37-26.29a13.83,13.83,0,0,0,1.24-2.13,105.5,105.5,0,0,0-19.61-.49,54.17,54.17,0,0,1,.13-15.14c15.38-.07,30.58-.43,46,.24Z"/><path class="cls-1" d="M726.24,232c-17.5,0-31.43,13.62-31.53,30.86a31.19,31.19,0,0,0,31,31.46c17.8.11,31.7-13.51,31.85-31.19C757.67,246.06,743.51,232,726.24,232Z"/></g></g></svg>