<svg xmlns="http://www.w3.org/2000/svg" viewBox="0 0 307.69 331.76">
    <defs>
        <style>
            .cls-1 {
                fill: #dc2219;
            }
        </style>
    </defs>
    <g id="Layer_2" data-name="Layer 2">
        <path
            d="M0,1 l0.02,-0.108 L0.044,0.759 l-0.007,-0.018,0,-0.055 L0.044,0.598 v-0.037 l-0.013,-0.013 L0.034,0.536 l0.037,-0.139,0.02,0.049,0.014,0.023,0.003,-0.058,0.002,-0.073,-0.005,-0.019,0.061,-0.11,0.043,0.119,0.036,-0.048,0.006,-0.029,0.017,-0.006,0.016,-0.014 s0.1,0.007,0.11,0.007 s0.074,0.022,0.074,0.022 l0.016,0.067,0.056,-0.02,0.044,-0.021,0.005,-0.028,0.017,-0.01,0.008,-0.054,0.018,0.003,-0.002,0.064,0.049,0.001,0.02,-0.003,0.041,0.105,0.039,0.067 s0.014,-0.038,0.02,-0.051 c0.005,-0.013,0.016,-0.03,0.016,-0.03 h0.004 l0.013,-0.04,0.004,0.001,0.013,-0.052 s0.006,-0.009,0.009,-0.009 c0.003,0,0.025,-0.005,0.025,-0.005 l0.031,-0.017 s0.002,-0.011,0.003,-0.014 c0.001,-0.002,0.004,-0.006,0.004,-0.006 l0.024,0.078,0.012,-0.017,0.001,0.011,-0.006,0.017,0.005,0.053 s0.012,0.011,0.023,0.034 c0.011,0.023,0.018,0.037,0.018,0.037 L1,0 H0 v1">
        </path>
    </g>
</svg>