<svg xmlns="http://www.w3.org/2000/svg" viewBox="0 0 582 582"><defs><style>.cls-1{fill:none;}.cls-2{fill:#e9e7e7;}</style></defs><g id="Layer_2" data-name="Layer 2"><g id="Layer_1-2" data-name="Layer 1"><rect class="cls-1" width="582" height="582"/><path class="cls-2" d="M450.12,390.67v68.2H335.32V339.48h-91.4V458.93H131v-199H450.12V390.67ZM180.29,441.28v-37.7H159.81v37.7Zm42.63,0V403.58H202.39v37.74ZM180.5,317.05V279.57H159.83v37.48Zm42.7-37.41H202.52v37.28H223.2Zm91.19-.17v37.32H335V279.47Zm42.66,0v37.41h20.5V279.45Zm-176.5,62.43H159.82V379.4h20.73Zm21.92-.1v37.56h20.65V341.78Zm175.12-.17H357V379h20.57ZM245.51,317.05h20.55V279.61H245.51Zm175-.11v-37.4H400.18v37.4Zm0,62.05V341.68H400.14V379Zm-63.58,24.44v37.43h20.31V403.43ZM420.42,441V403.5H400.05V441Z"/><path class="cls-2" d="M390.24,153.13v16.13h3.66c8.55,0,17.1.07,25.64,0A22.62,22.62,0,0,1,437,176.68c8.79,9.25,17.8,18.29,26.73,27.4,3.16,3.22,5.59,6.76,6.45,11.36a19.45,19.45,0,0,1-19,23.15q-68.92.06-137.85,0l-108.21,0q-36.79,0-73.58,0c-11.93,0-20.53-9-20-20.9a18.19,18.19,0,0,1,5.41-12.19q14.76-15.12,29.61-30.16a20.38,20.38,0,0,1,15-6.08c8.11-.06,16.21,0,24.31,0h4.05c0-4.79.12-9.31-.11-13.81,0-.79-1.5-1.67-2.46-2.21-5.64-3.13-8.77-7.82-8.49-14.32a14.32,14.32,0,0,1,9.36-13.36,16.61,16.61,0,0,1,6.15-1.08q28-.11,55.94,0c7.79,0,13.7,5.16,15.05,12.83a15.12,15.12,0,0,1-10,16.5c-1.78.61-2.5,1.3-2.44,3.21.14,3.88,0,7.76,0,12h74.32V153c-6-1.77-10-5.52-11.37-11.73a14.78,14.78,0,0,1,14.35-18.16c16-.12,32,0,47.95,0,2.88,0,5.77,0,8.65,0,7.81.1,13.78,5,15.16,12.33,1.32,7.07-2.53,13.86-9.53,16.81C391.81,152.5,391.19,152.75,390.24,153.13Z"/><path class="cls-2" d="M257.61,353.16h64.12V458.9H257.61Z"/></g></g></svg>