<svg xmlns="http://www.w3.org/2000/svg" viewBox="0 0 264.46 165.43"><defs><style>.cls-1{fill:#292929;}</style></defs><g id="Layer_2" data-name="Layer 2"><g id="Layer_1-2" data-name="Layer 1"><path class="cls-1" d="M145.86,107.34a27.58,27.58,0,0,0,2-7.86H63A18.17,18.17,0,0,0,64.14,105c.7,2.4.72,2.39,3.2,2.39h78.52Z"/><path class="cls-1" d="M106.49,136.09c15-.35,26.61-7.4,35.21-20.12H69.08C78.29,129.38,90.6,136.47,106.49,136.09Z"/><path class="cls-1" d="M264.46,12.78A13,13,0,0,0,251.63,0Q132.29.13,12.94,0C5.9,0-.23,5.94,0,12.88c.22,6.67,0,13.34,0,20q0,59.73,0,119.45a12.59,12.59,0,0,0,4.52,10.17,12.94,12.94,0,0,0,8.8,2.89q59.42-.06,118.83,0c39.81,0,79.63-.06,119.45.05a13,13,0,0,0,12.83-12.77Q264.31,82.72,264.46,12.78ZM117,143.5a51.63,51.63,0,0,1-57.8-27.56,54.76,54.76,0,0,1-5.32-17.89,6.52,6.52,0,0,1,6.6-7.25c11.82.1,23.65,0,35.48,0h9.49c14.92,0,29.84,0,44.77,0,3,0,5.92,1.73,6.48,4.62a15.89,15.89,0,0,1-.08,5.28C153.51,121.38,137.27,138.9,117,143.5ZM90.59,61.62c3.46,4.23,3.49,11,0,15A6.42,6.42,0,0,0,89,80.37,4.22,4.22,0,0,1,84.62,84a4.35,4.35,0,0,1-4.1-4.14,11.23,11.23,0,0,1,2.53-7.64c2.1-2.78,2.17-3.42,0-6.12a12,12,0,0,1,0-14.88,6.44,6.44,0,0,0,1.62-3.47,4.15,4.15,0,0,1,4.48-3.88,4.24,4.24,0,0,1,4,4.41c0,.21,0,.41,0,.62a11,11,0,0,1-2.59,6.79C88.57,58.32,88.47,59,90.59,61.62Zm18.57,0a12.07,12.07,0,0,1-.06,15,6.71,6.71,0,0,0-1.57,3.7A4.23,4.23,0,0,1,103.19,84a4.39,4.39,0,0,1-4.09-4.14,10.41,10.41,0,0,1,1.82-6.63c.5-.74,1.07-1.43,1.57-2.16a3,3,0,0,0,0-3.82c-.37-.5-.73-1-1.11-1.49a11.89,11.89,0,0,1-.11-14,8.71,8.71,0,0,0,2.09-4.58,4,4,0,0,1,4.37-3.27,4.2,4.2,0,0,1,4,3.78c0,.4,0,.82,0,1.23a11,11,0,0,1-2.57,6.8C107.14,58.33,107,59,109.16,61.61Zm18.68.2a11,11,0,0,1,2.45,7.29,10.73,10.73,0,0,1-2.51,7.4,7.27,7.27,0,0,0-1.69,3.88A4.19,4.19,0,0,1,121.74,84a4.31,4.31,0,0,1-4.08-4.15,10.59,10.59,0,0,1,2.07-7c.43-.62.92-1.2,1.34-1.82a3,3,0,0,0,0-3.82c-.36-.5-.72-1-1.11-1.49a11.88,11.88,0,0,1-.09-14,8.69,8.69,0,0,0,2.08-4.59c.21-2,2.36-3.4,4.39-3.25a4.17,4.17,0,0,1,4,3.79,11.07,11.07,0,0,1-2.45,7.87C125.65,58.39,125.64,58.86,127.84,61.81Zm65.4,78.67a8.21,8.21,0,0,1-7.29,4.27H137.48c-.52,0-1-.09-2-.17.87-.63,1.4-1,1.93-1.4,2.51-1.92,5.07-3.77,7.49-5.79a4.58,4.58,0,0,1,3.15-1.18c11.62,0,23.24,0,34.86,0h2.41c.51-1.59.72-102.66.27-106.65-1.45-.46-152-.67-156-.22-.45,1.44-.65,102.81-.16,106.87h2.32c10.24,0,20.49,0,30.73,0a5.21,5.21,0,0,1,3.69,1.38c2.3,2,4.77,3.71,7.18,5.53.53.4,1.09.77,2,1.41-.93.11-1.42.22-1.91.22-14.72,0-29.43-.09-44.15.06a8.88,8.88,0,0,1-8.65-8.8q.16-53.31,0-106.64a8.9,8.9,0,0,1,8.72-8.73c20,.14,40,.06,60,.06q47.85,0,95.71,0a8.82,8.82,0,0,1,5.49,1.41,8.19,8.19,0,0,1,3.69,7c0,4,0,8,0,12q0,47.23,0,94.48A8.92,8.92,0,0,1,193.24,140.48Zm62.65,10.29c0,.34,0,.68,0,1,0,3.52-1.52,5-5,5-7.9,0-15.81,0-23.71,0-3.58,0-7.15,0-10.73,0-.4,0-.8-.07-1.36-.12V8.58h35.38a13,13,0,0,1,1.65.05,4,4,0,0,1,3.75,3.75,18.9,18.9,0,0,1,0,2.26Q255.9,82.71,255.89,150.77Z"/><path class="cls-1" d="M247.9,113.64a12.51,12.51,0,1,1-12.59-12.49A12.38,12.38,0,0,1,247.9,113.64Zm-12.47-3.92a4,4,0,1,0,3.89,4A4.09,4.09,0,0,0,235.43,109.72Z"/><path class="cls-1" d="M235.24,49.83c-.69,0-1.38,0-2.06,0a4.25,4.25,0,0,1,0-8.49c1.51-.06,3-.07,4.53,0a4.24,4.24,0,0,1,0,8.47C236.89,49.87,236.06,49.83,235.24,49.83Z"/><path class="cls-1" d="M235.28,66.33c-.76,0-1.51,0-2.27,0a4.09,4.09,0,0,1-3.94-4.19,4,4,0,0,1,3.85-4.26,40.71,40.71,0,0,1,4.94,0,4.24,4.24,0,0,1,.09,8.44c-.88.08-1.78,0-2.67,0Z"/></g></g></svg>