<svg xmlns="http://www.w3.org/2000/svg" viewBox="0 0 369.94 605.4"><defs><style>.cls-1{fill:#292929;}</style></defs><g id="Layer_2" data-name="Layer 2"><g id="Layer_1-2" data-name="Layer 1"><path class="cls-1" d="M368.77,429.68c-.94,5.48-1.53,10.48-2.67,15.36q-21.21,91.5-106.92,130c-7.37,3.32-13.11,8-16.13,15.68a12.46,12.46,0,0,1-7.93,7.5c-5.64,1.85-11.34,3.79-17.16,4.72a180.35,180.35,0,0,1-65.47-1.09A77.38,77.38,0,0,1,140,597.72a12.3,12.3,0,0,1-7-7.13c-3-7.36-8.37-12.23-15.63-15.3a179.06,179.06,0,0,1-56.64-37.78q-44.47-44-53-106c-.06-.43,0-.86-.08-1.55a4.39,4.39,0,0,1,1.26.3c15.54,10.58,33,16.66,51,21.44,21.16,5.62,42.71,8.91,64.45,11.24a590.72,590.72,0,0,0,83.26,3c37.77-1.3,75.25-5.12,111.86-15.1,16.76-4.57,33-10.5,47.5-20.39A16.13,16.13,0,0,1,368.77,429.68Z"/><path class="cls-1" d="M251.16,378.57a44.47,44.47,0,0,0-14.88-20.46c-10.54-8-22.65-10-35.43-8.74a99.75,99.75,0,0,0-14.55,2.94c-12.77,3.25-21.92,11.44-29.18,22-4.48,6.5-3.55,9.56,4.12,11.76,5.58,1.6,11.44,2.22,17.17,3.27a29.08,29.08,0,0,1,3.26.48,5.57,5.57,0,0,1,4,6.07,5.26,5.26,0,0,1-5.23,5c-10.29-.47-20.55-1.48-29.66-6.86-7.4-4.37-10.06-11.81-6.47-19.65a48.18,48.18,0,0,1,9-13.69c9.5-9.67,19.49-18.87,29.52-28,13.36-12.16,24.67-25.82,32.16-42.4a70,70,0,0,0,5.64-20c.62-4.79,1.95-9.49,2.82-14.25.39-2.13.43-4.31.63-6.46.38,0,.67-.06.78,0a54.1,54.1,0,0,0,10.48,7.91c6.1,3.66,9.33,9.57,10.81,16.39a9.26,9.26,0,0,0,2.9,5C260,289.3,270.71,299.78,281.66,310a5.49,5.49,0,0,1-.79,9c-2.23,1.37-4.09,1.11-6.56-1.1q-12.58-11.26-25.11-22.58c-.81-.73-1.65-1.44-2.9-2.53A87.73,87.73,0,0,1,232.81,324c14.77,4.5,26.07,13.11,35.07,25.15,1.33-1,2.41-1.93,3.57-2.74,8.16-5.66,17.09-8.75,27.09-7.35a22.68,22.68,0,0,1,16.07,10.06,8.92,8.92,0,0,1,1.35,5.52c-.3,3.1-3.12,4.69-6,3.58a21.53,21.53,0,0,1-6.21-3.43A19.65,19.65,0,0,0,282.06,352c-3,1.55-5.61,3.8-8.6,5.87l3.29,6.2c3.49-1.81,6.67-3.54,9.92-5.13,3.89-1.91,7.23-1.08,8.82,2.06s.13,6.18-3.64,8.3c-6.43,3.62-12.77,7.41-19.13,11.16-1,.6-1.9,1.38-3.22,2.35,1,.46,1.55.76,2.13,1a117.88,117.88,0,0,1,38.28,23.74,4.71,4.71,0,0,0,5.29,1.21c8.62-2.79,17.2-5.71,25-10.44a39.52,39.52,0,0,0,8.63-7.09c4.53-5,5.47-10.91,2.79-17.24-.25-.59-.48-1.19-.76-1.89,7.24,2.08,16.93,11.91,18.62,18.88a17,17,0,0,1-2.82,14.15c-3.31,4.84-7.77,8.41-12.64,11.5-11.66,7.41-24.54,12-37.72,15.76-23.62,6.76-47.79,10.45-72.2,12.75a590.53,590.53,0,0,1-71.74,2.4c-33.47-.93-66.7-4-99.38-11.73-15.48-3.65-30.67-8.22-44.84-15.68a60,60,0,0,1-15.28-10.92c-8.78-9-8.94-18.91-.33-28.11a43.29,43.29,0,0,1,10.74-8.33c0,4-.65,8,.14,11.56,1.45,6.7,6.44,10.8,12.25,14,10.82,5.91,22.41,9.79,34.24,13A361.38,361.38,0,0,0,122.17,421a10.57,10.57,0,0,0-.92-1.21c-14.93-13.74-19.06-30.45-13.37-49.68,4.71-15.95,14.13-29.07,25.64-40.76,5.8-5.9,12.12-11.27,18-17.09,4.77-4.74,9.18-9.84,13.85-14.69,1.39-1.44,1.32-2.62.52-4.35-5.63-12.2-9.48-24.91-10.42-38.41-.84-12.18,1.12-23.73,7.42-34.36.32-.56.59-1.15,1-2l-79-71.24,12.61-13.65L174,207c3.7-2.75,7.2-5.34,10.9-8.1L95,99.53l13.85-12.19c.87.94,1.62,1.7,2.31,2.51q43.13,50.64,86.22,101.33a5.46,5.46,0,0,0,5,2.24c12.93-.81,22.63,4.38,28.87,15.87a9.63,9.63,0,0,0,2.4,2.66c10.37,8.49,14.51,19.14,11.18,32.33-.46,1.82.21,2.89,1.25,4.11q13.33,15.6,26.61,31.25c.72.84,1.48,1.65,2.12,2.54a5.08,5.08,0,0,1-.77,7.11,5,5,0,0,1-7.13,0c-1.27-1.21-2.41-2.58-3.59-3.89Q241.14,260.82,219,236.24c-.81-.89-1.55-1.84-2.27-2.71,1.34-3.1,2.78-6,3.86-9,2.77-7.7.1-14.14-7.28-17.83a10.47,10.47,0,0,0-3.12-1c3.57,4.71,8.37,8.67,7.45,15.52A23.47,23.47,0,0,1,214,230.8l-21-23.06-10.35,7c1.8,2.4,3.13,3.91,6.21,3.42,2.76-.44,4.51,1.67,5.62,4.25a62.18,62.18,0,0,1,2.71,43c-3.87,13.39-11.11,24.92-19.72,35.67-9.07,11.32-19.48,21.34-30.19,31.06-11.07,10-20.44,21.37-26.3,35.26-3.35,8-5,16.24-3.25,24.88a33.24,33.24,0,0,0,13.47,20.59,102.34,102.34,0,0,0,16.76,9.84,16.48,16.48,0,0,0,13.21.17c4.87-2,9.6-4.36,14.38-6.56l-.12-.89h-3.23c-9.21,0-18.31-.84-27-4.17-9.54-3.67-16.77-9.72-19.59-20-1.79-6.48-1.12-12.91.8-19.25,3.57-11.79,10.42-21.61,18.76-30.42a159.16,159.16,0,0,1,13.3-12.4c18.82-15.77,33.85-34.39,43.32-57.21,3.1-7.47,5.43-15.21,5-23.43-.16-2.8-1.07-5.58-1.69-8.35-.14-.64-.6-1.22-.68-1.86-.66-4.87-1.27-9.75-1.94-15a21.93,21.93,0,0,1,11.8,9.58c3.76,6.17,4.65,13,4.16,20.07-.82,11.77-4.73,22.61-10,33-10.18,19.94-24.24,36.78-41.42,51-8.18,6.79-15.84,14.07-21.88,22.88-4.28,6.24-7.73,12.85-8.78,20.49s1.91,13.94,8.6,17.88c5.85,3.45,12.36,4.63,19,5.22,7.5.67,15,.71,22.38-1.09a27.09,27.09,0,0,0,6.18-2.26c4.64-2.43,5-5.54,1-9a24.59,24.59,0,0,0-5.82-3.71,40,40,0,0,0-16.39-3.46c-5.15-.1-7.83-2.24-7.72-6.08s3-5.81,8.14-5.54c7.44.38,14.72,1.54,21.44,4.92a37.85,37.85,0,0,1,7.75,5c9.57,8.3,9.56,22.18-.11,30.39-4.1,3.49-8.69,6.4-13.08,9.56-.85.62-1.75,1.18-3.31,2.23,5,0,9.13,0,13.27,0a4,4,0,0,0,2.08-.88c9.15-6.63,17.68-13.94,24.47-23.06,3.65-4.9,6.64-10.14,7.92-16.22,2.61-12.37-6-21.48-18.51-19.7a33,33,0,0,0-15,6.53,10.18,10.18,0,0,1-5,2.08,5.07,5.07,0,0,1-5.06-3.6,5.27,5.27,0,0,1,1.29-6.1c9.71-8.72,25.39-14.21,39-8,8.21,3.74,13.13,10.18,14.92,19,.83,4.08.78,4.1,4.86,4.19C249.32,378.71,250.07,378.62,251.16,378.57ZM185.69,259.35l.92,0c1.3-5.81,2-11.68,1.07-17.64a4.87,4.87,0,0,0-1-2.67c-4.48-4.2-9.07-8.27-13.66-12.42-9.56,13.64-6.93,39.42,2,57.77,2.39-2.81,3.95-5.38,2.6-9.46a75.35,75.35,0,0,1-3.88-26c.09-3,.59-6,.95-9.52,3.26,1.88,5.88,3.49,8.59,4.92a3.68,3.68,0,0,1,2.19,3.93C185.34,252,185.6,255.66,185.69,259.35Zm55.16,135.89c.32.28.39.4.48.42,1.06.28,2.12.56,3.19.8,14.7,3.3,28.44,8.64,40,18.65a2.86,2.86,0,0,0,2,.68c3.87-.71,7.71-1.55,11.78-2.4-10.9-12.53-42.92-25.55-55.87-22.85Zm26.2-25.15c-2.8-4.61-5.25-9.17-8.19-13.39a54.39,54.39,0,0,0-33.46-22.61c-7.16-1.64-14.42-1.58-21.71-1.73-4.64-.09-6.54,2.91-9.58,5.93,31.21-3.67,54.74,6,68,35.47Zm-36.16-90.82c-3.7,15.41-11.26,28.57-20.68,41.35,3.37.23,6,.54,8.62.52a3.88,3.88,0,0,0,2.7-1.36A73.57,73.57,0,0,0,235.37,288C236.08,283.73,234.61,281.34,230.89,279.27ZM247.66,410c-.12-.36-.24-.72-.37-1.07-3.85-.76-7.68-1.65-11.57-2.17-.85-.12-2.06.93-2.81,1.72-4,4.22-8,8.52-11.94,12.8l-1.9,2.06a132.2,132.2,0,0,0,16.61-.47,3.28,3.28,0,0,0,2-1.07C241,417.89,244.33,413.93,247.66,410Zm11.46,2.95-5.32,8.17L269.19,419l.06-.89Zm-25.35-179.2.63-.23c-.65-1.81-1.3-3.63-2.13-5.92C229.92,231,232.58,232.13,233.77,233.74Z"/><path class="cls-1" d="M103.07,80.49,89,92.82c-1.77-1.89-3.43-3.61-5-5.39Q52.88,53.1,21.74,18.79c-3-3.27-4.09-6.79-2.53-10.91A11.63,11.63,0,0,1,28.74.13c4-.63,7,1,9.52,4.07,13,15.34,26,30.59,39,45.88l23.82,28C101.67,78.71,102.2,79.41,103.07,80.49Z"/><path class="cls-1" d="M91,127.5,78.22,141.16c-1.51-1.33-2.82-2.47-4.11-3.63C50.75,116.48,27.53,95.28,4,74.47c-6.81-6-4.12-15.24,2.59-18.59a9.74,9.74,0,0,1,11.61,1.67q35.63,34.1,71.21,68.24C89.84,126.24,90.25,126.74,91,127.5Z"/><path class="cls-1" d="M103.25,414.69a94.88,94.88,0,0,1-27.87-6.07c-14.14-5.47-26.09-14.17-36.53-25-2.71-2.82-2.76-6.09-.34-8.52s5.92-2.26,8.76.62a97.42,97.42,0,0,0,24.07,18.4A73.56,73.56,0,0,0,95.06,402c2.73.39,4.28,1.41,5,4.21A76.43,76.43,0,0,0,103.25,414.69Z"/><path class="cls-1" d="M120.36,335.3c-3.24,5-6.08,9.57-9.12,14a7.21,7.21,0,0,1-2.93,2c-5.1,2.39-10,5.12-14.45,9.74,3,.91,5.64,1.59,8.17,2.46a5.57,5.57,0,0,1,3.76,6.79,5.73,5.73,0,0,1-6.52,4.3,20.9,20.9,0,0,1-2.59-.54,77.31,77.31,0,0,1-21.3-9.61c-3.18-2-4.08-5.43-2.35-8.23s4.83-3.42,8.14-1.76c.58.29,1.15.62,2,1.07a54.18,54.18,0,0,1,16.88-13A82,82,0,0,1,120.36,335.3Z"/><path class="cls-1" d="M96.76,381.59v11a12.12,12.12,0,0,1-2.57,0,81.68,81.68,0,0,1-33.11-15.74,19.32,19.32,0,0,1-1.74-1.52,5.94,5.94,0,0,1-.52-8.07,5.63,5.63,0,0,1,8-.66,72.33,72.33,0,0,0,29,14.52A4.82,4.82,0,0,1,96.76,381.59Z"/><path class="cls-1" d="M280.46,383.3a14.33,14.33,0,0,0,2-1.12,91.68,91.68,0,0,1,32-16.87,13.33,13.33,0,0,1,3.23-.6,5.57,5.57,0,0,1,5.63,4.22,5.71,5.71,0,0,1-3.09,6.64,11.15,11.15,0,0,1-1.87.64A71.76,71.76,0,0,0,296,386.75a5.5,5.5,0,0,1-6.06.62c-2.91-1.25-6-2.17-8.94-3.23C280.8,383.86,280.63,383.58,280.46,383.3Z"/><path class="cls-1" d="M304,393c9.42-7.41,19-13.75,29.9-18a5.7,5.7,0,0,1,7.66,3.22c1.15,3-.34,5.82-3.51,7.56q-10.56,5.77-20.93,11.88c-1.52.9-2.58,1.19-4.16.24C310.12,396.22,307.18,394.76,304,393Z"/><path class="cls-1" d="M251,326.53c11.84-1.24,35.76,1.54,45.54,7.49-.92.24-1.55.43-2.19.57-5.67,1.33-11.37,2.54-17,4-4.46,1.15-8.7-.43-13.05-.69-.27,0-.53-.36-.77-.57Z"/><path class="cls-1" d="M215.9,396.8c-5.54-15.68-5.54-15.68-13.56-22.13,4.5-2.61,8.75-4.92,14-3.37,4,1.18,6.37,4.63,6.28,9.1C222.48,386.6,219.49,391.65,215.9,396.8Z"/></g></g></svg>