<svg xmlns="http://www.w3.org/2000/svg" viewBox="0 0 320.7 289.39"><defs><style>.cls-1{fill:#292929;}</style></defs><g id="Layer_2" data-name="Layer 2"><g id="Layer_1-2" data-name="Layer 1"><path class="cls-1" d="M277.59,179.09V223.4c0,9.56-.3,19.12.05,28.67.9,24.35-18,37.6-36.82,37.29-52.92-.87-105.87-.76-158.79,0-23.26.34-38.43-15.87-37.93-37.53.49-20.94.11-41.9.11-62.85v-9.76c-8.26-1.89-14.53.16-20.55,4.27A38.54,38.54,0,0,1,13,189.08c-6.29,1.83-11-1.33-12.47-7.43-2-8.23,1.33-15.68,7.74-16.84a50.55,50.55,0,0,1,8.8-.4q139.5,0,279,0c5.51,0,11,.09,16.53.38,5.21.27,8.07,3.06,8,8.46,0,2.57.18,5.17-.1,7.71-.7,6.18-4.35,9.4-10.42,8.25a26.9,26.9,0,0,1-10.91-4.75C293.29,180,287,177.84,277.59,179.09Zm-202,35.67H75.4c0-9.18.12-18.36-.05-27.53-.08-4.3-2.55-6.76-7-6.87-3.92-.09-6.07,2.18-7,5.72a17.18,17.18,0,0,0-.57,4.34c0,16.53-.21,33.05.05,49.57.11,6.78,3.31,10.33,8,9.73,5.55-.71,6.8-4.79,6.79-9.63C75.56,231.65,75.58,223.2,75.58,214.76Z"/><path class="cls-1" d="M45.86,148.7C47.82,132,59.24,121,76,120.3c14.31-.6,28.65-.17,43-.19,9.15,0,18.3,0,29,0-1.13-5.43-2.07-9.88-3-14.33-.44-2.14-1.36-4.33-1.15-6.41.63-6.3,8-8.73,21.69-7.41,7.28.69,10.38,3.82,9.55,10.48-.67,5.35-2.09,10.61-3.55,17.72h14c19.84,0,39.68-.17,59.51.08a32.14,32.14,0,0,1,30.34,21.48c.69,1.93.56,4.16.9,7Z"/><path class="cls-1" d="M89.05,0,103,10c2.06,8,3.41,13.91,5.09,19.68.81,2.8,2.28,5.39,3.33,8.12,7.1,18.42,3.28,28.68-15.36,39.54L85.25,60.75c9.35-7.18,6.63-15.22,2.54-23.6-5-10.17-7.62-20.67-2.31-31.64A61.9,61.9,0,0,1,89.05,0Z"/><path class="cls-1" d="M202.44.12l13.81,9.54c2.86,9.55,5.08,17.1,7.4,24.62.53,1.74,1.42,3.36,2,5.07,5,13.6,4.11,27.28-15.57,38.05-1.77-2.48-3.66-5-5.42-7.65s-3.53-5.56-5.86-9.25c8.92-6.45,7-14.21,2.78-22.8C195.78,25.81,192.9,13.51,202.44.12Z"/><path class="cls-1" d="M154.67,77.69,143.51,60.27C152.26,54.33,150.86,47,147.2,39c-2.41-5.27-4.67-10.82-5.66-16.48-1.34-7.65-.42-15.24,6.29-22l13.33,9.14c2.78,9.39,5,16.92,7.27,24.43.53,1.73,1.5,3.32,2.1,5C175.49,53.15,174.85,66,154.67,77.69Z"/></g></g></svg>