<svg xmlns="http://www.w3.org/2000/svg" viewBox="0 0 406.7 290.65"><defs><style>.cls-1{fill:#292929;}</style></defs><g id="Layer_2" data-name="Layer 2"><g id="Layer_1-2" data-name="Layer 1"><path class="cls-1" d="M314.63,174.92c1.64-2.55,3.25-4.61,4.4-6.89,12.05-23.88,31.86-36.1,58.07-38.42a138,138,0,0,1,19.4,0c8.15.45,13.37,5.49,8,14.79-9.29,16.16-17.77,32.8-27.26,48.85-4.2,7.1-4.15,12.83.05,19.86,9,15,17.22,30.48,25.74,45.77a38.41,38.41,0,0,1,3.11,6.09c1.68,4.89-.66,10.1-5.54,10.45-23.87,1.69-47.81,2-66.18-16.85-7.55-7.75-13.22-17.35-20.54-27.17-1.56.79-4.54,2.1-7.31,3.74C281,250.3,254.75,264,226.93,274.64c-22.9,8.79-46.4,16.06-70.84,16-43.45-.1-85.79-6.67-122.61-32.51-13.27-9.31-24.22-20.73-29.93-36.48C-3.94,201,.82,182.78,14,166.17c14.73-18.54,34.65-29.51,56.41-37.27a231,231,0,0,1,89.72-13.34c25.66,1.3,50.48,8,73.73,18.64,24.86,11.41,48.86,24.66,73.25,37.1C309.43,172.47,311.79,173.55,314.63,174.92Zm-170.2,26.52c.76-11-2.76-23.89-6.6-36.66-2.08-6.91-4.55-13.72-7.14-20.47-1.46-3.82-4.08-6.95-8.7-4.94-4,1.72-5.54,5-3.57,9.38.77,1.73,1.35,3.55,2,5.36,2.37,7.24,4.84,14.44,7,21.73a93.5,93.5,0,0,1-1,58.28c-2.45,7.21-5,14.39-7.45,21.58-2.1,6-1.07,10.29,3.17,11.36,4.7,1.18,6.75-2.24,8.49-5.78.17-.34.36-.67.51-1C138.55,242.2,144.59,223.82,144.43,201.44ZM80.83,160.9a20.6,20.6,0,0,0-1.35,41.17c12,.46,21.13-8.11,21.38-20.07C101.12,169.35,93.3,161.1,80.83,160.9Z"/><path class="cls-1" d="M143.83,84.38c-.05-10.1,3.49-15.87,7.95-21.18,2.43-2.9,5.4-5.37,7.71-8.35,4.71-6.1,4.18-10.54-1.63-15.76-2.54-2.28-5.49-4.11-7.91-6.48-7.71-7.57-9.49-18.13-4.89-27.07,2.15-4.19,5.14-6.69,10-5s6.66,5.65,4.69,10c-3.53,7.75,1.45,11.31,6.4,14.9,6.68,4.85,12.06,10.31,12.68,19.18.58,8.07-2.28,14.88-7.17,21a66.13,66.13,0,0,1-6.25,6.61c-4.18,4-7,7.93-2.84,13.78,2.55,3.54,2,7.45-1.58,10-3.92,2.79-8.41,2.21-11.29-1.35S145,86.41,143.83,84.38Z"/><path class="cls-1" d="M121,60.74c-1.08,10.07-3.43,16.7-9.19,21.8-5.16,4.56-9.58,9.46-11.46,16.55-1.26,4.75-5.67,6.42-9.9,5s-6.42-5.34-5-8.93c2.49-6.61,6.18-12.8,9.78-18.93,1.29-2.21,3.68-3.81,5.68-5.56,4.47-3.93,4.64-8.33,1.72-13.24A48.2,48.2,0,0,1,99,50.38c-1.53-3.94-1-7.69,2.94-9.88,3.82-2.1,7.9-1.35,10,2.31C115.71,49.22,118.7,56.08,121,60.74Z"/><path class="cls-1" d="M229,96c-.52,8.23-3.3,13.77-9.12,17.59-3.56,2.33-7.19,2.6-10.37-.51s-3.88-7.32-.86-10.21c6.12-5.88,2.87-10.51-.32-16a70.18,70.18,0,0,1-7-16.49c-.8-2.94.1-7,1.66-9.72,1.24-2.16,4.75-4.37,7.06-4.18s6.57,3.4,6.45,5.05c-.74,10.86,7.24,18,10.5,27.08A74.77,74.77,0,0,1,229,96Z"/><path class="cls-1" d="M87.93,181.38c-.25,4.51-3.82,7.77-8.19,7.27s-6.71-3.09-6.68-7.49a7.53,7.53,0,0,1,8.23-7.33A7,7,0,0,1,87.93,181.38Z"/></g></g></svg>