<svg xmlns="http://www.w3.org/2000/svg" viewBox="0 0 235.39 325.02"><defs><style>.cls-1{fill:#292929;}</style></defs><g id="Layer_2" data-name="Layer 2"><g id="Layer_1-2" data-name="Layer 1"><path class="cls-1" d="M168.36,251.7l33.14,67.38-12,5.94c-1.27-2.55-2.5-5-3.71-7.44q-5.52-11.18-11-22.37a1.73,1.73,0,0,0-1.86-1.17c-1.13.07-2.26,0-3.4,0q-52.91,0-105.82,0a3.18,3.18,0,0,0-3.44,2.06c-4.47,9.34-9.11,18.6-13.69,27.89-.14.28-.31.55-.56,1L34,319.1l33.11-67.34c-25.32-14.64-42.1-35.83-50.4-63.88H5.58c-3.05,0-4.67-1.29-5.35-4.3a7.35,7.35,0,0,1,.37-4.76c.93-2,2.34-3.27,4.76-3.18,2.85.09,5.7,0,8.81,0-.3-2.8-.58-5.47-.89-8.43,1.68,1.42,3,2.67,4.45,3.74,5.74,4.19,12.24,6.8,18.92,9a183.29,183.29,0,0,0,29.42,6.83,312,312,0,0,0,31.71,3.28c12.14.64,24.29.73,36.44.2A307.86,307.86,0,0,0,173,186.23a194,194,0,0,0,23-5.32,75.52,75.52,0,0,0,17.88-7.44,91.91,91.91,0,0,0,7.51-5.59,1.38,1.38,0,0,1,.85-.36c-.29,2.64-.57,5.28-.88,8.15h6.72l1.79,0c3.1,0,4.9,1.31,5.41,4.39a10.84,10.84,0,0,1-.32,4.6c-.66,2.27-2.27,3.23-4.65,3.23H218.74a105.38,105.38,0,0,1-50.38,63.82Zm-12.15,5.74a105.56,105.56,0,0,1-76.89,0c-4.85,9.87-9.67,19.66-14.57,29.64h106Z"/><path class="cls-1" d="M119.05,184.45c-12.55-.06-24-.42-35.39-1.52a243.9,243.9,0,0,1-37.32-6.14c-7.74-2-15.37-4.36-22.38-8.32a25,25,0,0,1-8.48-7.11,9.14,9.14,0,0,1,.09-10,25.5,25.5,0,0,1,8.62-7.17,83.46,83.46,0,0,1,19.13-7.36,234.85,234.85,0,0,1,36.75-6.56,372.84,372.84,0,0,1,49.33-1.76A311.18,311.18,0,0,1,168.9,132a186.43,186.43,0,0,1,26.22,5.68c6.46,2,12.81,4.24,18.54,7.93a21,21,0,0,1,6.39,5.87,8.55,8.55,0,0,1,0,9.88c-2.6,3.84-6.42,6.18-10.45,8.2-8.7,4.37-18,6.85-27.47,8.88a269.68,269.68,0,0,1-28.29,4.29C141.91,184,129.94,184.28,119.05,184.45Zm-1.34-51c-7,.27-14,.37-21,.86-8.45.58-16.89,1.33-25.3,2.33a168.34,168.34,0,0,0-30.5,6.42c-5.78,1.82-11.48,3.85-16.55,7.25a22.76,22.76,0,0,0-4.36,4,3,3,0,0,0,0,4.15,22.25,22.25,0,0,0,4.13,3.81c5.93,4,12.66,6.2,19.45,8.2a178.26,178.26,0,0,0,28.83,5.8c8.14,1,16.33,1.77,24.51,2.25a365.73,365.73,0,0,0,37.9.16c10.14-.46,20.25-1.23,30.31-2.69A186.76,186.76,0,0,0,195,169.6c5.67-1.8,11.26-3.81,16.24-7.14a24.31,24.31,0,0,0,4.45-4.16,2.81,2.81,0,0,0,0-3.88,24.46,24.46,0,0,0-4.35-4c-6.27-4.19-13.39-6.46-20.57-8.47A203.88,203.88,0,0,0,157,135.7Q137.43,133.63,117.71,133.48Z"/><path class="cls-1" d="M117.54,0a29.2,29.2,0,0,1,8.93,7.37,29.82,29.82,0,0,1,6.6,18.54c.3,9-2,17.41-5.52,25.56-2.7,6.3-5.6,12.51-8.23,18.82a45.81,45.81,0,0,0-1.67,31.81c1.11,3.65,2.34,7.27,3.56,11a5.44,5.44,0,0,1-.9-.47c-9.7-7.36-14.84-17.15-15.57-29.28a57.37,57.37,0,0,1,4.79-26.34c2.14-5,4.65-9.83,7-14.72,2.51-5.14,4.88-10.3,6.16-15.94,1.5-6.6.45-12.86-2-19-.73-1.85-1.62-3.64-2.43-5.46C118.1,1.41,117.9.88,117.54,0Z"/><path class="cls-1" d="M88.17,90.26a23.29,23.29,0,0,1-8.7-10.68c-2.86-6.94-2.63-14-.84-21.11,1.66-6.58,5-12.36,8.29-18.2A43.28,43.28,0,0,0,91.43,29.4c1.34-5.51,0-10.69-2.16-15.73a10,10,0,0,1-.72-2.08,18.58,18.58,0,0,1,8.15,8.88C99,25.65,99,31,97.92,36.48c-1.23,5.94-3.85,11.3-6.56,16.65a66.36,66.36,0,0,0-5.75,14.2,29.44,29.44,0,0,0,0,13.78c.61,2.62,1.42,5.19,2.14,7.79Z"/><path class="cls-1" d="M148.1,29.5A17.46,17.46,0,0,1,155.72,37c2.62,4.88,2.93,10.09,2.12,15.43A52.91,52.91,0,0,1,152.45,68c-2,4-3.92,8-5.66,12.16-3.17,7.5-2.86,15.15-.56,22.81.51,1.69,1,3.37,1.41,5.15a18.83,18.83,0,0,1-5.1-4.8c-4.58-6.06-6.18-12.92-5.46-20.42.7-7.29,3.36-13.89,6.88-20.21,1.7-3.06,3.36-6.15,4.91-9.3a23.64,23.64,0,0,0,.43-20.94C148.87,31.47,148.5,30.48,148.1,29.5Z"/><path class="cls-1" d="M129.92,173.81c-4.61,0-9,0-13.34,0-1.12,0-1.31-.72-1.58-1.49q-3.18-9-6.37-18c-1.61-4.52-3.25-9-4.86-13.55-.14-.4-.23-.82-.39-1.38a7.66,7.66,0,0,1,1.27-.25c4,0,8,0,12-.13a1.39,1.39,0,0,1,1.51,1.1q5.76,16.23,11.56,32.45C129.79,172.84,129.8,173.11,129.92,173.81Z"/><path class="cls-1" d="M122.75,139.25c3.62,0,7,0,10.4,0,.91,0,1.84.2,2.74.12,1.22-.11,1.7.47,2.07,1.52q3.82,10.9,7.71,21.79c1,2.79,2,5.58,3,8.38.15.44.27.89.45,1.51-.67.1-1.18.22-1.7.25-3.77.21-7.54.38-11.31.63-1.07.08-1.37-.48-1.66-1.33q-3.31-9.47-6.69-18.89C126.11,148.62,124.45,144,122.75,139.25Z"/><path class="cls-1" d="M84.09,140.29l4.73-.34c2.8-.17,5.6-.33,8.4-.51a1.23,1.23,0,0,1,1.48.88q5.73,16.34,11.51,32.64a2.83,2.83,0,0,1,.09.59c-.45,0-.85.09-1.26.08-4-.11-8-.27-12-.33A1.63,1.63,0,0,1,95.33,172q-3.69-10.44-7.4-20.88c-.94-2.65-1.9-5.28-2.84-7.92C84.78,142.36,84.5,141.49,84.09,140.29Z"/><path class="cls-1" d="M168,170.66c-2.65.33-5.05.64-7.45.92-1.76.21-3.54.36-5.31.58-.78.1-1.26,0-1.58-.87-3.51-10-7.07-19.92-10.61-29.88-.15-.44-.23-.9-.42-1.64.77,0,1.34,0,1.9,0,4,.32,8,.68,11.94,1a1.4,1.4,0,0,1,1.35,1.13q3.47,9.84,7,19.67c.87,2.44,1.76,4.87,2.64,7.3C167.6,169.37,167.74,169.89,168,170.66Z"/><path class="cls-1" d="M90.68,173c-1.83-.13-3.43-.22-5-.36-2.9-.26-5.8-.55-8.7-.82a1.64,1.64,0,0,1-1.65-1.19q-4.75-13.5-9.58-27c-.11-.3-.16-.61-.3-1.16,1.72-.26,3.34-.54,5-.73,2.57-.31,5.15-.51,7.72-.87,1-.13,1.34.23,1.64,1.07q3.42,9.76,6.9,19.5,1.71,4.8,3.43,9.59C90.27,171.57,90.42,172.14,90.68,173Z"/><path class="cls-1" d="M186.07,167.43,172.73,170c-3.37-9.49-6.68-18.81-10.13-28.5,1.83.21,3.4.33,5,.57q4.71.72,9.41,1.57a1.93,1.93,0,0,1,1.29.92c2.66,7.41,5.26,14.84,7.86,22.26A2.77,2.77,0,0,1,186.07,167.43Z"/><path class="cls-1" d="M47.25,145.91l13.37-2.78c3.33,9.38,6.58,18.5,9.93,27.91-2-.26-3.67-.45-5.36-.72-3-.5-6.06-1-9.07-1.62a1.91,1.91,0,0,1-1.28-.92c-2.53-7-5-14-7.48-21.05A5.61,5.61,0,0,1,47.25,145.91Z"/><path class="cls-1" d="M183.82,145c6.93,1.55,13.81,3.3,20.19,6.57a20.06,20.06,0,0,1,3.35,2.22c2.19,1.75,2.21,3.57,0,5.31a21.11,21.11,0,0,1-4.66,2.85c-3.76,1.57-7.62,2.91-11.7,4.44l-7.51-21.13Z"/><path class="cls-1" d="M49.73,167.41c-7.15-1.79-13.87-3.52-19.92-7.12a11.68,11.68,0,0,1-2.14-1.7c-1.5-1.46-1.57-3.19.1-4.46a31.52,31.52,0,0,1,5.88-3.62c2.77-1.28,5.71-2.21,8.86-3.39C44.92,153.91,47.26,160.47,49.73,167.41Z"/></g></g></svg>