<svg xmlns="http://www.w3.org/2000/svg" viewBox="0 0 1153 904">
    <defs>
        <style>
            .cls-1 {
                fill: aqua;
            }
        </style>
    </defs>
    <g id="Layer_2" data-name="Layer 2">
        <g id="Layer_1-2" data-name="Layer 1">
            <path class="cls-1"
                d="M0,0V904H1153V0ZM962.74,226.43l.1,0v.07l-.09-.09-.12,0s0-.13,0-.13ZM457.07,426.81c5.21-14.11,13.43-26.5,23.12-37.9,20-23.67,44-42.78,69.41-60.22,7.68-5.28,15.52-10.35,23.34-15.43,46.88-30.45,98-50.89,151.9-65,54.42-14.27,109.66-23.27,165.86-25.86a372,372,0,0,1,68.6,3.19,16.24,16.24,0,0,1,1.86.44l.47.17-.48.19c-9.15.26-18.31.46-27.47.82-11.91.48-23.8,1.24-35.64,2.54-61.43,6.75-121,20.91-178,45.11a520,520,0,0,0-71.78,37c-6.63,4.11-13.11,8.43-19.56,12.8a476.14,476.14,0,0,0-57.36,45.17c-22.91,21.34-43.36,44.67-57.06,73.11C506,460,500.77,477.83,500.85,497a74.5,74.5,0,0,0,6.81,32.06c.2.48.74,1,.1,1.51s-1.23,0-1.78-.25c-3.62-1.95-7.12-4.11-10.56-6.32a117.65,117.65,0,0,1-21.88-18.81C452.09,482.42,446.17,456.31,457.07,426.81Zm391-178.6a.3.3,0,0,1-.08.08s-.07,0-.14-.1ZM668.6,543.43l39.93-39.93c13.37-13.36,26.7-26.76,40.14-40.05,1.67-1.67,1.56-2.57-.06-4.19-7.58-7.42-15-15-22.6-22.44-1.71-1.71-1.5-2.57.09-4.16q6.87-6.6,13.44-13.51c1.34-1.4,2.11-1.34,3.44,0l32.25,32.25c11.83,11.83,23.61,23.71,35.49,35.49,1.4,1.39,1.51,2.2,0,3.66-4.64,4.45-9.22,9-13.64,13.65-1.56,1.64-2.38,1.3-3.79-.12-7.47-7.55-15.06-15-22.48-22.56-1.64-1.73-2.53-1.85-4.31-.07q-39.93,40.1-79.94,80.11c-2.26,2.25-2.27,2.25-4.58-.07L668.52,548C666.11,545.57,666,546.08,668.6,543.43Zm-17.37-92.59c-10.31-8.32-19.46-17.8-28.78-27.12-3.15-3.14-3.15-3.14-6.34,0q-16.44,16.34-32.76,32.76c-1.49,1.5-2.34,1.55-3.84.06-5-4.92-9.77-10-15-14.66-.6-.53-1.09-1.18-1.66-1.74-1.47-1.35-1.24-2.36.27-3.65l48.46-48.46Q635.73,364,659.82,339.8c1.39-1.41,2.2-1.75,3.8-.14,14.29,14.73,29.17,28.83,43.24,43.76a73.51,73.51,0,0,1,8.44,10.2c8.74,13.54,8.7,27.4.81,41.26a52.88,52.88,0,0,1-17.92,18.49A40.88,40.88,0,0,1,651.23,450.84Zm-209.72,8.35a149,149,0,0,0,4,19.14c3.28,8.14,7,16,12.36,23.1a127.81,127.81,0,0,0,35.29,31.74c29.76,18.36,62.68,27.68,96.72,33.55,37.27,6.43,74.79,10.07,112.66,9,21.66-.67,43.16-3,64.1-8.94a129.3,129.3,0,0,0,14.32-5c1.16.25,2.34-.55,3.54.07-.11,1.21-1.1,1.73-1.81,2.44-9.55,9.62-19.09,19.26-28.77,28.76-5.88,5.78-11.15,12.22-18.05,16.91a220.23,220.23,0,0,1-50.31,8.63c-24.77,1.37-49.36-.59-73.77-4.79A448.69,448.69,0,0,1,536,594a165.07,165.07,0,0,1-47.45-25.83A131.07,131.07,0,0,1,461.08,539c-10.87-16-16.84-33.88-19.57-52.94a4.06,4.06,0,0,1,.42-2.32,3.5,3.5,0,0,1-.39-.86C440.37,475,440.82,467.11,441.51,459.19Zm74.4,239.55a2.35,2.35,0,0,0-.41-.58c-.51-8.24-4.46-14.83-10.08-20.52-12.18-12.4-24.55-24.61-36.87-36.86-15.2-15.11-30.54-30.22-45.75-45.36q-45.1-45-90.31-89.91c-1.66-1.66-1.88-2.51-.07-4.32q9.88-9.54,19.45-19.45c1.69-1.74,2.61-1.64,4.32.07Q440,565.74,523.9,649.61c3.4,3.42,7.11,6.53,9.85,10.57A31.46,31.46,0,0,1,539,680.56q-9.57,9.47-19.11,19C517.07,702.39,517.09,702.4,515.91,698.74ZM742.4,872.8c-6.56,6.58-13.12,13.05-19.65,19.68-1.36,1.38-2.11,1.3-3.43,0q-51.93-52.15-103.83-104.31-33-33-65.78-66.26a52,52,0,0,0-19.06-12.76c-3.49-.1-7-.5-10.47.08l-.28-.58,4-4c5.7-5.7,11.46-11.25,17-17,1.87-1.86,3.68-2.65,6.17-1.92a3.2,3.2,0,0,1,2.33-.3,31.33,31.33,0,0,1,19.27,9l6.49,6.48L742.36,868.08C745.05,870.77,745.05,870.14,742.4,872.8ZM756.3,859a55.17,55.17,0,0,0-4.81,4.74c-1,1-1.71,1-2.56-.06-.42-.49-.91-.91-1.37-1.36L576.73,691.45c-3.18-3.18-6.32-6.43-10.21-8.8-3.39-2.07-6.85-3.56-11-2.56-1.17.27-8.51-6-8.15-7.08,2.46-7.47-2.8-12-6.47-17.08a31.84,31.84,0,0,0-3.49-3.67L361.81,476.63c-2.4-2.4-2.4-2.4,0-4.79,1.31-1.31,2.71-2.54,3.92-3.93s2-1.13,2.91.08a15,15,0,0,0,1.2,1.19l90.24,90.25q43.49,43.4,86.87,86.87c5.69,5.71,10.28,12.11,12,20.24a2.9,2.9,0,0,0,2.48,2.32c9.12,1.81,16,7.31,22.34,13.62L705.33,804q25.36,25.43,50.93,50.78C758,856.41,758.11,857.46,756.3,859Zm46.94-298.73q-.06,17.25,0,34.51a4.2,4.2,0,0,1-1.18,3.17q-19.46,19.27-38.78,38.68c-1.52,1.51-2.7,1.55-4.11.13-5.66-5.83-12.35-10.53-18.1-16.29-1.12-1.12-1.11-1.72,0-2.83q30-29.86,60-59.82a2.67,2.67,0,0,1,1.66-1.18A7.31,7.31,0,0,1,803.24,560.24Zm9.46,26-1.28,1.28a3.42,3.42,0,0,1-.3-2.6c.61-9.62,1.24-19.24,2-28.84.15-1.9-.42-2.58-2.28-3q-27.93-6.89-55.84-13.85a11.56,11.56,0,0,1-3.64-1.53c1.3-1.23,2.81-.9,4.13-1.23,1.23-1,2.79-1.19,4.25-1.55q26.34-6.54,52.7-13l7.48-24.9c.39-1.2.8-2,1.9-.49a6.8,6.8,0,0,1,3.34,2.31c6.38,6.25,12.76,12.47,19.06,18.78a3.46,3.46,0,0,0,4,1q32.92-9.75,65.91-19.43c1.16-.35,2.3-.81,3.5-.15,2.24-1.66,5-1.9,8.21-3.11a13.06,13.06,0,0,1-3.55,3.67q-26,19.44-52,38.83c-1.1.83-2.27,1.56-2.42,3.12l2,1.81a1,1,0,0,1,.74.74l.93.93a5.47,5.47,0,0,1,2.12,2.12l1,1a115.6,115.6,0,0,1,12,12.07l.81.92c.88.48,1.79,1.36,1.6,2.14s-1.31.6-2.14.44l-40.58-7.77a14.56,14.56,0,0,1-1.59-.48q-14,14.13-28.1,28.19C815.46,584.69,814.41,586,812.7,586.25ZM962.86,639q-7.2,7.13-14.33,14.34c-1.23,1.26-2,1.2-3.28-.07-7.56-7.69-15.25-15.24-22.8-22.93-1.38-1.39-2.13-1.27-3.44,0L878.39,671l-39.93,39.93c-2.24,2.25-2.48,2.33-4.8,0s-4.39-4.92-6.72-7.24-4.66-4.17-6.9-6.37-2.19-2.61,0-4.83q33.41-33.32,66.76-66.68c4.67-4.67,9.29-9.39,14-14,1.21-1.19,1.15-1.91,0-3.09-7.75-7.61-15.36-15.36-23.11-23-1.36-1.33-1.38-2.07,0-3.42,4.74-4.6,9.38-9.29,14-14,1.09-1.1,1.8-1.44,3.09-.15q34,34.11,68.06,68.08C963.81,637.29,963.94,638,962.86,639Zm157.8-247.61c-4.66,14.46-12.57,27-22,38.84A265.93,265.93,0,0,1,1069,462.19a420.25,420.25,0,0,1-47.2,37c-30.47,20.61-62.48,38.34-96.59,52.22-6.71,2.73-13.57,5-20.5,7.13a34,34,0,0,1-9.74,1.67c.28-.79,1-.84,1.43-1.06a475.3,475.3,0,0,0,93.17-56.69c20.43-15.94,39.14-33.64,54.39-54.78,14.37-19.92,24.84-41.57,27.37-66.32,2.68-26.44-3.15-50.85-18.46-72.71a101.39,101.39,0,0,0-20.61-21.57c-17.6-13.81-37.81-22.4-59.22-28.34-29.08-8-58.75-11.06-88.8-11.16-10.24,0-20.43,0-30.63.82a16,16,0,0,1-4.79,0,.5.5,0,0,1-.65-.13,2.85,2.85,0,0,0,.63-.38,257.69,257.69,0,0,1,36.24-8c26.36-4,52.82-6.75,79.55-5.53,38.28,1.71,73.75,12.43,105.12,34.62,21.12,14.93,37.8,34.13,48.65,57.92C1128.08,348,1127.68,369.63,1120.66,391.41Z" />
            <path class="cls-1"
                d="M690.08,419.72c3.85-7,2.59-14.17-2.23-20.4-6.51-8.46-14.69-15.44-22.14-23.11-1.12-1.15-1.78-.38-2.55.41l-12.62,12.62-12.62,12.62c-.77.77-1.58,1.38-.41,2.55,7.38,7.27,14.3,15,22.49,21.44C671.07,434.49,683.66,431.2,690.08,419.72Z" />
        </g>
    </g>
</svg>