<svg xmlns="http://www.w3.org/2000/svg" viewBox="0 0 552.76 702.1">
    <defs>
        <style>
            .cls-1 {
                fill: #dc2219;
            }
        </style>
    </defs>
    <g id="Layer_2" data-name="Layer 2">
        <g id="Layer_1-2" data-name="Layer 1">
            <path class="cls-1"
                d="M35.56,547.1c13.15,28.57,35.8,42.85,67.06,43.77a117.79,117.79,0,0,0,28.77-2.17c4-.87,8-1.82,11.94-3,.6-.18,1.33-.29,1.44-1.08s-.66-.8-1.14-1a74.56,74.56,0,0,1-27.49-17.85c-13.6-13.49-22.55-29.81-28.79-47.73C76.93,488.24,74.89,457.28,76,426a475.34,475.34,0,0,1,8.62-72.5c1.47-7.66,3-15.29,4.78-22.88A519.65,519.65,0,0,1,114,253.7c23.22-57.44,55.33-109.58,94-157.79,7.45-9.29,15.32-18.23,23.4-27,6.22-6.73,12.56-13.35,18.84-20h0l.21-.48-.45.22c-.54.33-1.12.61-1.63,1a372.29,372.29,0,0,0-50.76,46.25c-37.91,41.58-70.61,87-99,135.57-28.12,48.15-49.79,98.73-61.41,153.41-1.94,9.12-3.89,18.25-5.59,27.41-5.64,30.31-9.09,60.78-6.5,91.66C26.32,518.87,29.27,533.44,35.56,547.1Z" />
            <path class="cls-1"
                d="M206.05,112.3a258.72,258.72,0,0,0-20,31.25h0c0,.24-.11.48-.17.71a.49.49,0,0,0,.55-.36,16,16,0,0,0,3.4-3.38c6.61-7.81,13.83-15,21.08-22.24,21.32-21.17,44.45-40,70.68-54.89,19.34-10.94,39.71-19.16,61.91-21.84a101.49,101.49,0,0,1,29.83.68C399.61,46.86,421,60,437.8,80.59c15.71,19.29,23.62,42,27.54,66.25,4.16,25.73,3.45,51.47.28,77.19A475.18,475.18,0,0,1,439.82,330c-.18.49-.62,1-.26,1.76a34.21,34.21,0,0,0,5.71-8.07c3.41-6.38,6.63-12.86,9.45-19.54,14.3-33.93,24.4-69.1,31.37-105.22a420.1,420.1,0,0,0,7.22-59.54,267.5,267.5,0,0,0-1.62-43.55c-1.71-15-5-29.48-11.93-43-10.44-20.36-25.42-35.91-47.2-44C408.07-.31,382.69-2.09,357.2,2.28c-37.87,6.5-70.53,24-98.81,49.85C238.63,70.17,221.86,90.83,206.05,112.3Z" />
            <path class="cls-1"
                d="M88.92,599.27c-8.78-1.22-17-4.16-25.08-7.59A148.84,148.84,0,0,1,47.46,581c5.11,6.09,10.38,12,16.77,16.73a3.58,3.58,0,0,0,.88.34A4.07,4.07,0,0,0,66.45,600c15.41,11.55,32.3,20,51.28,23.6a130.89,130.89,0,0,0,40.06,1.18,165.09,165.09,0,0,0,51.82-15.28,450,450,0,0,0,67.55-39.66c20.23-14.3,39-30.3,55.55-48.78a220.11,220.11,0,0,0,29.47-41.68c1.56-8.19.74-16.47.81-24.72.13-13.56.05-27.12,0-40.68,0-1,.33-2.07-.44-3-1.29.41-1.56,1.81-2.56,2.45a127.29,127.29,0,0,1-6.56,13.69c-10.61,19-24.16,35.86-39,51.65-26,27.56-55.1,51.52-86,73.32-28.22,19.92-58.09,36.61-92.11,44.67A127.59,127.59,0,0,1,88.92,599.27Z" />
            <path class="cls-1"
                d="M254.8,657.9c-4.8-.92-9.62-.5-14.44-.51q-118.62,0-237.24-.06c-2.42,0-3.14.58-3.11,3,.15,9.17.17,18.35,0,27.51,0,2.56.76,3,3.11,3q63.72-.21,127.43-.28c21.47-.05,43-.21,64.43-.28,17.37-.05,34.75-.16,52.13,0,8,.05,15.45,1.91,21.64,7.38a2.28,2.28,0,0,1,.7.12c3.42,1.75,3.4,1.76,3.4-2.24q0-13.49.08-26.95A31.42,31.42,0,0,0,254.8,657.9Z" />
            <path class="cls-1"
                d="M552.68,660.71c0-3.76.44-3.31-3.36-3.31H312.87c-3.06,0-6.11,0-9.17,0a31.37,31.37,0,0,0-20,7.26,3.17,3.17,0,0,0-1.43,1.86c-2.28,1.24-3,3.08-3,5.72.15,8,0,16,0,24.06,0,1.88,0,3.77,0,5.65l.6.21c2.07-2.88,4.81-5.06,7.35-7.45a52,52,0,0,1,22.5-4.46q46.68.3,93.37.34,73.58.18,147.17.34c1.87,0,2.46-.48,2.44-2.41C552.63,679.21,552.7,670,552.68,660.71Z" />
            <path class="cls-1"
                d="M119.79,481.79c.8,0,1.61.11,2.41.06,7-.45,14-.23,21-.27,2.11,0,2.68-.64,2.67-2.75-.09-15.44-.05-30.89,0-46.33,0-4.52,0-4.52,4.45-4.52,13.18,0,26.35.23,39.52-1.18a40.87,40.87,0,0,0,35-31.41,53,53,0,0,0-.4-25.75c-4.23-15.38-14-25.21-29.75-28.6a73.47,73.47,0,0,0-13.18-1.25c-20.51-.6-41-.06-61.52-.37-2.27,0-2.6.81-2.59,2.79q.09,34.14,0,68.28h0q0,34.26,0,68.53C117.25,481,117.8,481.88,119.79,481.79Zm27.52-118c10.69.16,21.41-.69,32,.69,7.81,1,13.77,5.17,16,12.85,3.58,12.65-3,23.88-16.93,25.6-10.32,1.27-20.71.66-31.07.74-1.65,0-1.51-1-1.51-2.09V383.73c0-6,0-11.9,0-17.85C145.78,364.78,145.71,363.77,147.31,363.79Z" />
            <path class="cls-1"
                d="M293.86,650.62c4.43-1.08,8.94-1,13.44-1H548.9c.64,0,1.29-.05,1.93,0,1.33.13,1.89-.39,1.85-1.77a56.27,56.27,0,0,1,.05-6.75c.21-2.35-.62-3-3-2.94q-36,.15-71.92.1-85.92,0-171.84,0c-8.92,0-17.7,1-25.42,6.17a2.91,2.91,0,0,1-3.4.11c-7-4.5-14.77-5.78-22.83-5.79q-61.43-.06-122.85,0H3.84a15.88,15.88,0,0,1-1.69,0c-1.53-.18-2.21.35-2.11,2,.12,1.84,0,3.7,0,5.55,0,3.39,0,3.39,3.39,3.39H251.81a31.57,31.57,0,0,1,5.06.13c6.19,1,13.11.48,16.65,7.5.49,1,10.14.26,10.77-.76C286.5,652.94,290,651.55,293.86,650.62Z" />
            <path class="cls-1"
                d="M445,337.6c-1.82,0-2.08.74-2.07,2.29.07,6.59.1,13.19,0,19.79,0,1.91.54,2.42,2.44,2.4,10.86-.1,21.72,0,32.58-.1,1.67,0,2.22.47,2.21,2.17-.07,6.59,0,13.19,0,19.79q0,47.18-.05,94.36c0,3.13.24,3.46,3.39,3.43s6.26-.38,9.39-.38c3.29,0,6.58.36,9.87.37s3.4-.22,3.4-3.39V421.86c0-19.15,0-38.29,0-57.44,0-1.85.45-2.47,2.4-2.46,10.78.1,21.56,0,32.34.09,1.8,0,2.39-.51,2.37-2.27q-.07-10.14,0-20.27c0-1.52-.56-1.9-2-1.9Q493.19,337.66,445,337.6Z" />
            <path class="cls-1"
                d="M328.11,339.51c-16.73.07-33.46,0-50.19,0-15.2,0-30.41,0-45.61,0-1.89,0-2.47.5-2.43,2.44.15,6.35.18,12.71.05,19.06,0,2.24.46,3,2.88,3,10.62-.14,21.24,0,31.85-.11,2.29,0,3,.56,3,2.92-.1,18.9-.06,37.8-.06,56.7s0,37.65,0,56.47c0,3.74-.25,3.28,3.18,3.29,6.35,0,12.7,0,19.06,0,3.27,0,3.28,0,3.28-3.19q0-56.59-.12-113.17c0-2.52.72-3.06,3.1-3,10.62.12,21.23,0,31.85.06,2,0,2.82-.34,2.76-2.6-.17-6.43-.14-12.87,0-19.3C330.73,340,330.08,339.5,328.11,339.51Z" />
            <path class="cls-1"
                d="M399.05,421.11q-12.21-12.19-24.36-24.44a7.3,7.3,0,0,0-3-2.13,2.7,2.7,0,0,0-.34,2q0,42.36-.09,84.7c0,1.56.42,2,2,2,8.14,0,16.19-1.4,24.32-1.28,2,0,2.81-.86,2.81-3q-.06-27.39.07-54.77A4.13,4.13,0,0,0,399.05,421.11Z" />
            <path class="cls-1"
                d="M436.22,339.94c.69-.47,1.62-1.13,1.2-1.82s-1.69-.67-2.65-.38l-1.22-.08a116.63,116.63,0,0,0-17-.08h-1.36a5.48,5.48,0,0,0-3,0h-1.32a1,1,0,0,0-1.05,0l-2.7.15c-1-1.21-.69-2.56-.5-3.92q4.67-32.1,9.31-64.22a13,13,0,0,0-.09-5.1c-1.41,3.12-3.19,5.24-3.61,8-1.31.38-1.79,1.52-2.36,2.58Q393.39,305.24,377,335.42a3.45,3.45,0,0,1-3.53,2.12c-8.91,0-17.83.11-26.75.2-1.36,0-2.75-.09-4,.73-1.84-.29-1.57.57-1,1.69l12.32,22.9Q340,386.3,326,409.54c-.78,1.29-1.75,2.52-1.91,4.1-.7,1.17-2,2-2.05,3.79a11.39,11.39,0,0,0,3.65-1.49q24.66-14.81,49.28-29.69c1.63-1,2.51-.93,3.75.52,6.27,7.31,12.63,14.55,19,21.79.53.6.93,1.44,2.05,1.63v-1.81c1-1.42.85-3.06.85-4.65q0-19.89-.06-39.8a14.75,14.75,0,0,0,1.47-.79Q419.11,351.55,436.22,339.94Z" />
            <path class="cls-1" d="M251.52,47.79l-.09.06h.13Z" />
            <path class="cls-1" d="M251.33,47.91l.1-.06-.22,0S251.3,47.92,251.33,47.91Z" />
            <path class="cls-1" d="M185.83,144.3v0h-.05Z" />
            <path class="cls-1"
                d="M185.74,144.46a.35.35,0,0,0,0-.11l-.17.14C185.65,144.48,185.73,144.49,185.74,144.46Z" />
            <path class="cls-1" d="M185.83,144.3l0,0a.29.29,0,0,0,0,.09Z" />
        </g>
    </g>
</svg>