<svg xmlns="http://www.w3.org/2000/svg" viewBox="0 0 1108.01 616">
    <defs>
        <style>
            .cls-1 {
                fill: none;
            }

            .cls-2 {
                fill: #292929;
            }

            .cls-3,
            .cls-4 {
                fill: #e9e7e7;
            }

            .cls-4 {
                stroke: #292929;
                stroke-miterlimit: 10;
                stroke-width: 4px;
            }
        </style>
    </defs>
    <g id="Layer_2" data-name="Layer 2">
        <g id="Layer_1-2" data-name="Layer 1">
            <rect class="cls-1" width="1104" height="616" transform="translate(1104 616) rotate(180)" />
            <g id="Hand">
                <g id="Middle_Fing">
                    <path class="cls-2"
                        d="M598.8,396.18c-.54,0-1.08,0-1.63,0-4-.17-6-2.2-6-6.22,0-9-.63-18.06-1.19-26.86-.42-6.62-.86-13.46-1.07-20.23-.36-11.44,2.13-22.23,4.53-32.65,1.31-5.68,2.66-11.54,3.53-17.44a5.43,5.43,0,0,1,.8-2.4,5.33,5.33,0,0,1,1.41-1.36c7.68-5.55,18-12.22,29.59-14.56,9.62-1.94,18.86-6.06,27.79-10,2.09-.93,4.18-1.86,6.27-2.77,11.41-4.93,21.86-7.33,32-7.33,1,0,2.11,0,3.16.08l.92,0,.57.74c2.1,2.72.16,5.2-.48,6s-1.42,2-2.12,3.11-1.48,2.32-2.36,3.44a18.9,18.9,0,0,0-4,11.2,29.69,29.69,0,0,0,.8,6.07c.25,1.24.5,2.52.68,3.83a24.72,24.72,0,0,1-.1,5.66,26.43,26.43,0,0,0-.17,4.13,22.14,22.14,0,0,0,2.26,7.11c.52,1.19,1.06,2.42,1.5,3.67.89,2.5,1.75,5,2.62,7.51.62,1.8,1.25,3.61,1.88,5.41l5.93,17c4.37,8.39,5.32,17.52,2.9,27.9a14,14,0,0,1-6,8.89,10.94,10.94,0,0,1-6,2.12c-3,0-5.66-1.83-7.75-5.43l-1.44-2.52a145.94,145.94,0,0,0-7.94-12.76,30,30,0,0,0-5.89-5.69C670.23,349,666.6,346,665,340.53c-.36-1.24-.73-2.48-1.09-3.72-1.8-6.16-3.66-12.53-5.07-18.91-.69-3.11-1.31-6.27-1.92-9.33-1-5.06-2-10.3-3.36-15.36-.41-1.55-.78-3.12-1.15-4.68-.54-2.28-1.09-4.63-1.75-6.88-.72-2.49-1.19-3.15-1.37-3.33-.39.05-1.34.5-3.66,2.27-8.76,6.67-12.29,19.12-15.41,30.11-.46,1.62-.9,3.21-1.36,4.74-2.73,9.18-3.41,17.32-4.19,26.75l-.16,1.91c-.25,2.9-.35,5.88-.46,8.76A105.94,105.94,0,0,1,622.64,369c-.59,7.3-1.84,15.56-8.92,21.63C610,394.42,605.2,396.18,598.8,396.18Z" />
                    <path class="cls-3"
                        d="M694.75,256.28c1,0,2,0,3.06.08,1,1.34.4,2.47-.46,3.56-1.63,2.09-2.85,4.47-4.48,6.56a20.75,20.75,0,0,0-4.39,12.41c0,3.46,1,6.78,1.49,10.18s-.5,6.42-.27,9.67c.28,4,2.56,7.61,3.87,11.31,1.51,4.29,3,8.61,4.49,12.91q3,8.55,6,17.11c4.48,8.51,4.94,17.44,2.8,26.65a12.09,12.09,0,0,1-5.15,7.67,9.18,9.18,0,0,1-4.92,1.79c-2.34,0-4.31-1.49-6-4.44a177.91,177.91,0,0,0-9.49-15.44c-4.56-6.3-12-8.26-14.33-16.32-2.16-7.46-4.46-14.93-6.13-22.52-1.82-8.24-3.17-16.58-5.3-24.75-1-3.87-1.79-7.79-2.91-11.62-1-3.31-1.81-4.77-3.23-4.77-1.15,0-2.67,1-4.93,2.68-10.63,8.08-13.86,23.7-17.48,35.87-3,10-3.57,18.88-4.43,29.07-.69,8.25-.28,16.6-1.87,24.79-.61,7.68-2,15.06-8.29,20.43-3.81,3.85-8.47,5-13.56,5l-1.55,0c-2.85-.12-4.11-1.22-4.13-4.24-.08-15.78-1.78-31.41-2.26-47.14-.54-17.35,5.54-32.91,8-49.74a3.73,3.73,0,0,1,.47-1.58,3.77,3.77,0,0,1,.93-.85c8.57-6.19,18.32-12.1,28.81-14.22,12.08-2.43,23.2-8.06,34.46-12.93,10.07-4.35,20.3-7.17,31.18-7.17m0-4h0c-10.39,0-21.1,2.45-32.76,7.5-2.11.91-4.24,1.86-6.3,2.77-8.83,3.94-18,8-27.37,9.91-12,2.42-22.52,9.23-30.36,14.9a6.6,6.6,0,0,0-3,5.07c-.87,5.84-2.21,11.66-3.51,17.3-2.43,10.55-4.94,21.46-4.58,33.16.21,6.8.65,13.66,1.07,20.3.57,8.76,1.15,17.83,1.19,26.74,0,5.08,2.85,8,8,8.21.58,0,1.16,0,1.71,0,6.84,0,12.17-2,16.28-6.08,7.21-6.22,8.87-14.63,9.54-22.83a106.81,106.81,0,0,0,1.44-16.34c.1-2.86.21-5.81.45-8.66l.16-1.92c.78-9.32,1.45-17.36,4.12-26.34q.68-2.31,1.37-4.76c3-10.69,6.46-22.81,14.69-29.07.64-.48,1.14-.85,1.54-1.12.11.31.23.69.36,1.15.64,2.2,1.17,4.42,1.72,6.78.37,1.54.75,3.14,1.16,4.73,1.3,5,2.34,10.2,3.34,15.24.61,3.07,1.23,6.24,1.92,9.37,1.43,6.45,3.3,12.86,5.11,19.05.37,1.24.73,2.47,1.09,3.71,1.76,6.09,5.82,9.36,9.41,12.25a28.46,28.46,0,0,1,5.52,5.31,140.09,140.09,0,0,1,7.82,12.58c.49.84,1,1.68,1.45,2.52,2.48,4.26,5.67,6.43,9.48,6.43a12.88,12.88,0,0,0,7.12-2.45,16,16,0,0,0,6.84-10.11c2.52-10.81,1.54-20.34-3-29.14l-5.88-16.84c-.64-1.81-1.26-3.62-1.89-5.44-.87-2.49-1.73-5-2.61-7.48-.47-1.33-1-2.59-1.56-3.82a20.7,20.7,0,0,1-2.09-6.44,23.85,23.85,0,0,1,.16-3.8,26.12,26.12,0,0,0,.09-6.1c-.18-1.38-.44-2.7-.7-4a28.13,28.13,0,0,1-.76-5.66,16.79,16.79,0,0,1,3.54-10,43.42,43.42,0,0,0,2.46-3.59c.68-1.07,1.32-2.07,2-3,3.07-3.93,1.62-7,.48-8.48l-1.13-1.46-1.84-.09c-1.08-.05-2.18-.08-3.26-.08Z" />
                </g>
                <g id="Last_Fing">
                    <path class="cls-2"
                        d="M733.94,340.1c-7.31,0-11.54-11.43-13.81-17.57-.18-.49-.35-.93-.49-1.3L711.51,300c-.63-1.63-1.16-3.24-1.68-4.8-1.35-4.09-2.63-8-5.34-11.4-3.35-4.25-4.11-8.67-4.9-13.35-.1-.55-.19-1.1-.29-1.67-.07-.39-.61-3.49-1.11-6.5-.25-1.51-.49-3-.66-4.11-.31-2-.56-3.66,1.29-4.09l8.45-2c10.25-2.43,20.86-4.93,31.3-7.35a9.1,9.1,0,0,1,2.07-.21q.57,0,1.14,0l1,0h.17a2.9,2.9,0,0,1,2.69,1.47c.34.63,1.23,2.3-2.06,7.25a93.84,93.84,0,0,0-5.56,9.49,9.72,9.72,0,0,0-.78,1.87c-.58,2.37,0,5.26.5,8,.19,1,.38,2,.52,2.93.42,3,.88,6,1.34,9,.91,6,1.86,12.29,2.59,18.42.11.95.23,1.91.35,2.88.27,2.17.55,4.42.77,6.69.52,5.43.89,12.48-1,18.95-.74,2.58-2,6.91-6.37,8.23A7.08,7.08,0,0,1,733.94,340.1Z" />
                    <path class="cls-3"
                        d="M740.64,246.53c.71,0,1.42.06,2.13.06H743c2.64,0-.85,5.24-1.1,5.61a93,93,0,0,0-5.67,9.7,11.38,11.38,0,0,0-.94,2.29c-.91,3.72.45,8.05,1,11.74,1.28,9,2.84,18.24,3.92,27.37.36,3.06.8,6.27,1.12,9.52.6,6.17.75,12.47-.89,18.21-.84,2.93-1.87,5.92-5,6.87a5.23,5.23,0,0,1-1.44.21c-6.48,0-10.76-13.21-12.44-17.59l-8.14-21.21c-2.27-5.93-3.31-11.65-7.31-16.72-3.41-4.33-3.86-8.87-4.79-14.14-.14-.77-2.15-12.37-2-12.41,13.25-3.13,26.49-6.28,39.74-9.35a7.29,7.29,0,0,1,1.62-.15m0-4a10.73,10.73,0,0,0-2.52.26c-10.42,2.41-21,4.91-31.22,7.33l-8.54,2c-.59.14-3.49,1-3,4.89,0,.35.12.85.21,1.45.17,1.12.41,2.62.67,4.14.5,3,1,6.12,1.11,6.52.1.56.19,1.11.29,1.66.8,4.72,1.63,9.59,5.3,14.25,2.49,3.16,3.66,6.7,5,10.79.52,1.58,1.06,3.21,1.71,4.89L714,312.08l3.78,9.86.48,1.28c2.44,6.6,7,18.88,15.7,18.88a9.23,9.23,0,0,0,2.59-.38c5.45-1.63,6.93-6.82,7.73-9.6,1.94-6.79,1.56-14.09,1-19.69-.22-2.3-.51-4.55-.78-6.74-.12-1-.24-1.93-.35-2.88-.73-6.16-1.68-12.42-2.6-18.47-.44-3-.91-6-1.33-9-.15-1-.34-2-.53-3-.49-2.58-1-5.25-.52-7.2a7.61,7.61,0,0,1,.62-1.45,89.65,89.65,0,0,1,5.43-9.28c3.55-5.33,2.93-7.86,2.16-9.3a4.86,4.86,0,0,0-4.39-2.53h-.23l-.91,0c-.41,0-.81,0-1.22,0Z" />
                </g>
                <g id="Pointer_Ping">
                    <path class="cls-2"
                        d="M685.76,351c-8.54,0-16.14-3.5-20.33-9.36l-.11-.16-.08-.18c-3.41-7.48-.56-15,2-21.64.53-1.42,1-2.76,1.49-4.09,2.54-7.55,9-13,14.6-17.73l2.07-1.76a308.23,308.23,0,0,1,24.93-18.68c7.28-5.08,14.81-10.34,21.78-16.05,1.46-1.2,3-2.33,4.45-3.42,2-1.49,3.9-2.89,5.68-4.47a30.85,30.85,0,0,0,2.67-2.92,4.94,4.94,0,0,1-.55.15,7.18,7.18,0,0,1-1.59.17c-.45,0-.91,0-1.37-.07s-.63-.06-1-.06h-.23c-3.46,0-7.53,1.41-11.47,2.78-2.31.8-4.48,1.56-6.59,2.07a207.6,207.6,0,0,1-20.69,3.88l-.67.34a8.4,8.4,0,0,1-2.39,1.14l-.35.09-.35,0c-1.42-.13-2.87-.19-4.31-.19-8,0-16.06,1.86-26.23,6-2.21.9-4.41,1.82-6.62,2.74-11.6,4.83-23.61,9.83-36.26,12.85-8.78,2.1-16,8-23.06,13.71l-.44.36-.57.07a6.08,6.08,0,0,0-2.91,1.62l-.45.36c-5,3.92-9.89,8.44-14.58,12.82-8.69,8.1-17.67,16.48-28.58,21.78-2.28,1.11-4.57,2.49-6.8,3.83a62.92,62.92,0,0,1-10.39,5.43,37.56,37.56,0,0,1-12.4,2.16h0c-8.34,0-14.16-3.08-16.4-8.68-2-5.07,3.07-9.07,6.44-11.71a26.2,26.2,0,0,0,2.35-2,50.65,50.65,0,0,0,4.5-5.54,41.18,41.18,0,0,1,6.87-7.8c12.71-10.74,27.5-23.86,40.77-39.68,1.65-2,3.25-4,4.81-5.93,6.75-8.49,13.13-16.51,23.49-21.51,13.23-6.39,30.59-14.92,47.63-24.29,1.84-1,3.71-2,5.59-3,5.36-2.87,10.9-5.84,15.92-9.17a85.86,85.86,0,0,0,10.77-9c1.91-1.79,3.88-3.65,5.93-5.38A32.55,32.55,0,0,0,688.4,184a45.94,45.94,0,0,1,4.77-6.12,31.86,31.86,0,0,1,14-8.46c9.35-2.72,19.29-5.65,29-8.88,15.41-5.14,30.93-10.82,45.94-16.31l11.8-4.31c24.66-9,46.22-17.42,65.92-25.84,15.58-6.65,35.92-15.79,55.11-27.51,15.61-9.53,33.46-14.07,50.43-17.55,14.75-3,29.86-5.4,44.46-7.69,11.29-1.77,23-3.6,34.36-5.72a200.61,200.61,0,0,0,20.13-5,134.19,134.19,0,0,1,13.79-3.51c9.75-1.76,25.13-4.12,25.28-4.14l2.3-.35.35,135.72h-2c-31.88,0-80.13.13-82.38.35q-5.54.6-11.07,1.17c-19.44,2-39.54,4.15-58.95,8.42a28.17,28.17,0,0,0-10.81,5.23A233.75,233.75,0,0,0,908.22,223l-3.65,3.95c-8.63,9.39-17.56,19.09-27.34,26.54-10,7.62-19.44,12.57-31.43,18.09s-24.71,7.53-37.15,9.54c-9.73,1.57-19.8,3.2-29.18,6.45-10.71,3.7-20.15,11.7-28,19a86.26,86.26,0,0,0-6.45,7,77.86,77.86,0,0,1-7.84,8.32,37.89,37.89,0,0,1-9.17,5.69c-6.95,3.27-12.88,7.52-19.15,12l-.65.46c-1.44,1-2.78,2.09-4.06,3.1-5,3.94-9.74,7.67-17.94,7.8Z" />
                    <path class="cls-3"
                        d="M1103.65,45l.35,131.39s-79.77,0-82.59.36c-23.5,2.56-47.08,4.53-70.24,9.63a30.24,30.24,0,0,0-11.57,5.57,237.44,237.44,0,0,0-32.85,29.69c-9.46,10.21-19.69,21.85-30.73,30.26-10,7.61-19.51,12.55-31.06,17.86-20.86,9.59-44.63,8.48-66.14,15.91-10.87,3.76-20.38,11.69-28.69,19.49-5.07,4.76-9,10.79-14.23,15.31a37.07,37.07,0,0,1-8.72,5.38c-7.35,3.46-13.52,7.95-20.11,12.68-7.13,5.12-11.37,10.37-20.86,10.52h-.45c-7,0-14.51-2.66-18.7-8.52-3.72-8.17.89-16.52,3.51-24.27,2.67-7.9,10-13.37,16.08-18.62,14.75-12.68,31.66-22.38,46.68-34.7,3.33-2.73,7-5.07,10.19-7.94,1.11-1,7.32-7.7,4.57-7.7a4.8,4.8,0,0,0-1.47.34,24.39,24.39,0,0,1-2.76,1.15,4.85,4.85,0,0,1-1.14.12c-.75,0-1.52-.12-2.28-.13h-.27c-5.87,0-12.84,3.54-18.53,4.9a203.64,203.64,0,0,1-20.49,3.85,4.92,4.92,0,0,0-1.37.57,7,7,0,0,1-1.94,1c-1.51-.14-3-.2-4.49-.2-9.38,0-18.25,2.6-27,6.18-14,5.72-27.74,11.95-42.59,15.5-9.11,2.18-16.59,8.2-23.85,14.1-1.77.22-2.94,1.29-4.34,2.38-14.41,11.2-26.31,26.36-42.8,34.38-5.73,2.79-11.09,7-17,9.18a35.26,35.26,0,0,1-11.72,2c-6.19,0-12.31-1.84-14.54-7.43-1.93-4.83,5.77-8.87,8.37-11.55,4.21-4.33,6.49-9.28,11.21-13.19,14.77-12.49,28.51-25,41-39.94,8.54-10.18,15.28-21,27.63-26.92,16.08-7.77,32.07-15.73,47.72-24.34,7.2-4,14.82-7.73,21.66-12.27,6.21-4.13,11.22-9.76,16.88-14.56,4.57-3.86,6.52-8.88,10.6-13.08a30,30,0,0,1,13.1-7.93c9.72-2.83,19.43-5.69,29-8.9,19.41-6.48,38.57-13.65,57.79-20.64,22.23-8.09,44.28-16.59,66-25.88,19-8.11,37.67-16.83,55.37-27.64C931.18,79,948.37,74.58,965.73,71c26.11-5.36,52.59-8.54,78.79-13.41,14.92-2.77,24.06-6.74,33.9-8.52S1103.65,45,1103.65,45m4-4.66-4.59.7c-.16,0-15.56,2.38-25.34,4.15a134.81,134.81,0,0,0-14,3.56,198,198,0,0,1-19.93,5c-11.38,2.12-23,4-34.31,5.71-14.63,2.3-29.75,4.67-44.56,7.71-17.14,3.52-35.2,8.12-51.06,17.8-19.08,11.65-39.34,20.76-54.86,27.39-19.65,8.39-41.18,16.83-65.81,25.79q-5.93,2.14-11.83,4.32c-15,5.48-30.49,11.15-45.86,16.28-9.66,3.23-19.58,6.14-28.91,8.86a33.94,33.94,0,0,0-14.85,9,47.16,47.16,0,0,0-5,6.38,31.52,31.52,0,0,1-5.33,6.44c-2.09,1.77-4.08,3.64-6,5.45a82,82,0,0,1-10.5,8.82c-4.94,3.28-10.44,6.23-15.76,9.08-1.85,1-3.76,2-5.61,3-17,9.34-34.33,17.86-47.54,24.23-10.77,5.21-17.59,13.78-24.19,22.07-1.54,1.94-3.14,4-4.77,5.89-13.18,15.7-27.89,28.76-40.54,39.45a43.16,43.16,0,0,0-7.18,8.13,50.11,50.11,0,0,1-4.32,5.34,26.42,26.42,0,0,1-2.15,1.79c-3.61,2.84-9.64,7.57-7.06,14s9,9.94,18.25,9.94a38.88,38.88,0,0,0,13.11-2.29,65.25,65.25,0,0,0,10.73-5.58c2.28-1.38,4.44-2.68,6.63-3.75,11.18-5.43,20.28-13.92,29.07-22.12,4.66-4.34,9.47-8.84,14.45-12.71l.46-.36c.93-.73,1.47-1.15,1.93-1.2l1.13-.15.88-.72c6.85-5.56,13.93-11.32,22.26-13.31,12.81-3.07,24.89-8.1,36.57-13l6.6-2.73c9.93-4.07,17.79-5.88,25.48-5.88,1.38,0,2.77.06,4.13.18l.71.07.69-.19a10.2,10.2,0,0,0,2.85-1.32l.28-.15h0a207.57,207.57,0,0,0,20.54-3.87c2.2-.53,4.53-1.34,6.78-2.12,3.7-1.29,7.52-2.62,10.61-2.67-1.46,1.23-3,2.38-4.65,3.59s-3,2.25-4.53,3.48c-6.9,5.67-14.4,10.9-21.65,16a308.67,308.67,0,0,0-25.09,18.8L682,296.33c-5.85,4.94-12.48,10.55-15.21,18.62-.44,1.3-.94,2.62-1.47,4-2.64,7-5.64,14.94-1.89,23.18l.16.35.22.32c4.57,6.39,12.78,10.21,22,10.21h.51c8.88-.14,13.86-4.07,19.14-8.23,1.27-1,2.59-2,4-3l.66-.47c6.19-4.45,12.05-8.65,18.83-11.84a39.85,39.85,0,0,0,9.64-6,79.49,79.49,0,0,0,8-8.53,84.54,84.54,0,0,1,6.3-6.88c7.66-7.19,16.9-15,27.26-18.61,9.21-3.19,19.19-4.81,28.84-6.37,12.57-2,25.56-4.13,37.66-9.7s21.67-10.58,31.82-18.31c9.91-7.55,18.9-17.32,27.59-26.77l3.64-3.95a232.94,232.94,0,0,1,32.3-29.2,26.13,26.13,0,0,1,10-4.87c19.3-4.25,39.34-6.36,58.72-8.39q5.54-.57,11-1.17c3-.21,50.75-.32,82.2-.34h4v-4L1107.65,45V40.31Z" />
                </g>
            </g>
            <g id="Money">
                <path class="cls-2"
                    d="M38.39,531.38a3.06,3.06,0,0,1-2.75-1.18c-.81-1.26-.26-2.49.58-4.35l.75-1.71c-.52,0-1.16.05-1.91.1s-1.39.08-1.87.08h0a3.18,3.18,0,0,1-2.88-1.25c-.82-1.32-.2-2.6.82-4.74.2-.39.39-.8.56-1.16l-1.22.07c-.87,0-1.56.09-2.1.09a3.5,3.5,0,0,1-3.06-1.22,3.13,3.13,0,0,1-.34-2.75A2.67,2.67,0,0,1,23,512.1c-.79-1.32-.18-2.58.75-4.49l1.8-3.72q17.07-35.14,34.11-70.29l1.54-3.16c1.76-3.6,3.58-7.32,5.23-11a7.38,7.38,0,0,1,6.38-4.65c29.81-3.6,59.47-8.3,88.15-14a685.38,685.38,0,0,0,101.38-28.49c7.59-2.76,15.38-5.51,22.9-8.17q5.34-1.87,10.73-3.8l2.64-.93,0,2.79a9.61,9.61,0,0,1-.67,3.47,10.35,10.35,0,0,1,1.07-.32l.22-.1a3.9,3.9,0,0,1,1.68-.44,2.76,2.76,0,0,1,2.12,1,3.34,3.34,0,0,1,.23,3.67,2.69,2.69,0,0,0-.13.32l-1.07,3.39.67-.3a7.3,7.3,0,0,1,3-.91,3.19,3.19,0,0,1,2.41,1c1.56,1.72.52,3.94-.16,5.42a9,9,0,0,0-.62,1.51.83.83,0,0,1,0,.15l.3-.11a21.74,21.74,0,0,1,2.28-.75l.27-.07a5,5,0,0,1,1.45-.27,2.61,2.61,0,0,1,1.36.36c.63.38,2,1.52.92,3.87l-.09.18q-4,12.78-8.13,25.57l-7.58,23.62q-9.9,30.87-19.78,61.76a5.85,5.85,0,0,1-4.57,4.29c-15.43,3.75-31.73,7.35-48.46,10.68-35.42,7.06-73.73,12.58-117.13,16.87-20.56,2-42.88,3.74-68.24,5.22C39.33,531.36,38.8,531.38,38.39,531.38Zm232.49-40.82a6.78,6.78,0,0,1-2.42,1.05c-21.31,5.21-43.2,9.85-65.32,13.84,23.37-4.05,45.32-8.62,66.61-13.84a4.28,4.28,0,0,0,.85-.27.82.82,0,0,0,.11-.25C270.76,490.91,270.82,490.74,270.88,490.56ZM66.77,500h.3l.54,0c14.63-.81,29.7-2.2,46.09-4.23,1.15-.14,1.43-.37,1.85-1.48,5.68-15,11.51-30.24,17.14-45l5.12-13.39,7.79-20.41c-14.41,2.89-28.73,5.5-43.68,8A2.6,2.6,0,0,0,99.76,425c-8.41,13.61-20.23,21.28-35.14,22.79a1,1,0,0,0-.4.09,1.7,1.7,0,0,0-.32.55l-.77,1.72c-4,8.77-8,17.84-12.2,26.7a3.49,3.49,0,0,0-.19.48,5.39,5.39,0,0,0,.55.37A32.24,32.24,0,0,1,66.6,499.38,4.57,4.57,0,0,0,66.77,500Zm198.84-16.6a8.27,8.27,0,0,1-3,1.3c-20.9,5.14-42.6,9.74-64.76,13.73,23.49-4.09,45.41-8.64,66.51-13.81,1-.23,1-.41,1.15-.93ZM261.28,473a5.87,5.87,0,0,1-4.5,4.18c-13.83,3.62-28.45,7.12-43.48,10.4,15.54-3,30.61-6.29,45.46-9.91,1-.26,1.32-.53,1.66-1.6q1.2-3.81,2.41-7.64Q262.07,470.74,261.28,473Zm-3.91-86.3c-18.37,6.92-37.19,11.87-54.8,16.18a2.29,2.29,0,0,0-2,1.78c-6.12,16.84-12.39,33.94-18.45,50.48l-5.19,14.17-6.15,16.81c17.69-3.49,35.06-7.43,55.4-12.21,0-.07.05-.16.08-.29,4.46-16.23,15.74-25.92,32.63-28a1.47,1.47,0,0,0,.26,0,3.19,3.19,0,0,0,.13-.33c4.81-14.32,9.07-26.92,13-38.51h0l-.11-.05C263.83,402.48,258.84,395.77,257.37,386.71Z" />
                <path class="cls-3"
                    d="M296.65,362.23c0,2.3-1.34,4-1.55,6.25h0c1.62,0,2.95-.84,4.38-1.18.47-.11,1-.49,1.45-.49a.72.72,0,0,1,.59.29c.52.61-.06,1.4-.28,2.09-.5,1.58-1,3.17-1.5,4.75-.42,1.28-.21,1.84.51,1.84a3.4,3.4,0,0,0,1.21-.3,1.12,1.12,0,0,1,.26-.08c1.33-.27,2.91-1.43,4.07-1.43a1.17,1.17,0,0,1,.93.4c1,1.1-.81,3.33-1.24,5.1-.26,1.06-.6,2.1-1,3.41,2.27-.18,4-1.22,6-1.7a5.85,5.85,0,0,1,1.23-.28.58.58,0,0,1,.33.08c.74.44.14,1.15,0,1.72q-4,12.8-8.14,25.57Q290.17,451,276.5,493.65a3.86,3.86,0,0,1-3.14,3q-24.08,5.86-48.38,10.67c-38.68,7.71-77.71,13-116.93,16.84-22.68,2.24-45.42,3.89-68.17,5.21-.62,0-1.11.06-1.49.06-1.56,0-1.36-.45-.35-2.71,1.69-3.77,2-4.54-.55-4.54-.65,0-1.49,0-2.55.11-.72,0-1.3.08-1.75.08-1.77,0-1.51-.53-.26-3.12,1.62-3.37,2-4.06-.32-4.06-.58,0-1.33,0-2.27.1s-1.47.09-2,.09c-2.05,0-1.83-.63-.72-3.75-3.52-.13-3.52-.13-2.07-3.11q18-37,35.9-74c2.29-4.74,4.65-9.44,6.8-14.24a5.38,5.38,0,0,1,4.79-3.49q44.41-5.36,88.3-14A685.84,685.84,0,0,0,263,374.19c11.09-4,22.23-7.92,33.61-12m-129,126.54c20-3.86,39.52-8.34,59-12.93,1-.23,1.23-.81,1.47-1.69,4.23-15.41,14.86-24.56,30.94-26.57a2.11,2.11,0,0,0,2.05-1.73q6.46-19.26,13-38.5c.46-1.34.14-1.89-1.11-2.51-7.81-3.87-12.51-10.13-13.81-18.76-.19-1.23-.51-1.66-1.12-1.66a4.21,4.21,0,0,0-1.34.35C239,391.51,220.6,396.42,202.09,401a4.22,4.22,0,0,0-3.39,3Q187,436.33,175.06,468.63c-2.43,6.64-4.85,13.28-7.37,20.14m2.25,8.23a8.39,8.39,0,0,0,1.27-.11c29.58-4.53,58.94-10.17,88-17.27a3.79,3.79,0,0,0,3.09-2.94c4.46-14.15,9-28.28,13.58-42.4,2.56-7.93,3.88-16.14,5.81-24.21.08-.34.19-.71-.3-1-1,.54-1,1.67-1.27,2.56Q269.72,442,259.39,472.37a3.89,3.89,0,0,1-3.12,2.88q-22.17,5.82-44.57,10.65c-14.74,3.2-29.57,6-44.65,8.69.57,1.88,1.54,2.41,2.89,2.41m-21.18-84.18c-16,3.25-31.55,6.1-47.16,8.68A4.57,4.57,0,0,0,98.06,424c-7.75,12.56-18.71,20.34-33.65,21.85a2.52,2.52,0,0,0-2.33,1.81c-4.27,9.48-8.54,19-13,28.39-.83,1.79-.4,2.47,1.13,3.41a30.28,30.28,0,0,1,14.39,20.37c.39,1.84,1.08,2.21,2.43,2.21l.66,0c15.46-.86,30.85-2.34,46.22-4.25a3.69,3.69,0,0,0,3.47-2.76q11.06-29.21,22.26-58.35c3-7.82,6-15.65,9.08-23.8m26.48,91.28a6,6,0,0,0,.8-.07c29.84-4.63,59.48-10.29,88.82-17.47a3,3,0,0,0,2.6-2.37c.76-2.84,1.77-5.62,2.67-8.43,5.11-16,10.75-31.81,13.69-48.4a5.77,5.77,0,0,0,.28-3.13,5.46,5.46,0,0,0-1.36,2.86c-5.6,17.38-11.21,34.74-16.7,52.15a4.59,4.59,0,0,1-3.89,3.5c-29.15,7.18-58.56,13-88.21,17.69a4.18,4.18,0,0,0-2.43.69c1.07,1.33,1.57,3,3.73,3m5.15,7a5.14,5.14,0,0,0,.75-.06c29.94-4.61,59.66-10.3,89.08-17.52,1.08-.27,2-.5,2.39-1.86,5.2-16.33,10.8-32.56,14-49.45.1-.51.44-1.05-.14-1.64-1.13.44-1.06,1.61-1.34,2.49q-7,21.71-13.93,43.45a4,4,0,0,1-3.24,3.13q-44.28,10.81-89.3,17.89c-.64.1-1.47-.15-1.93.72,1.1,1.19,1.53,2.85,3.63,2.85M70.78,508.2c16-1.24,32-2.66,48-4.51A1.66,1.66,0,0,0,117,502.2a7.15,7.15,0,0,0-.9.08c-14.42,1.9-28.87,3.63-43.36,5-.71.06-1.51,0-1.94.91m-33.05,9.67c29-1.74,57.72-3.92,86.56-7.17-1.13-1.72-1.87-3.07-4-3.07a5.33,5.33,0,0,0-.67,0c-26,3.07-52,5.21-78.13,6.79-2.31.14-3.6.79-3.81,3.41m5.2,7c29.07-1.71,57.85-3.93,86.74-7.17-1.15-1.67-1.83-3.08-3.94-3.08a5.18,5.18,0,0,0-.66,0c-26,3.07-52,5.23-78.17,6.8-2.29.14-3.56.84-4,3.41M300.58,356.58l-5.27,1.88-10.69,3.79c-7.54,2.66-15.34,5.42-22.95,8.19a685.42,685.42,0,0,1-101.09,28.4c-28.63,5.66-58.24,10.35-88,13.94a9.35,9.35,0,0,0-8,5.83c-1.63,3.66-3.44,7.37-5.19,10.95-.52,1.06-1,2.11-1.55,3.17q-15.81,32.61-31.64,65.2L22,506.72c-1,2-2,4.17-.67,6.41a4.24,4.24,0,0,0,1.5,1.53,4.54,4.54,0,0,0,.86,2.6,5.49,5.49,0,0,0,4.7,2.07h.12a5,5,0,0,0,.13,4.81,5.11,5.11,0,0,0,4.58,2.18l.65,0c-.64,1.61-1,3.27.12,5a4.88,4.88,0,0,0,4.43,2.1c.51,0,1.1,0,1.72-.07,25.39-1.47,47.74-3.18,68.33-5.22,43.46-4.3,81.84-9.82,117.32-16.9,16.77-3.34,33.1-6.94,48.54-10.7a7.86,7.86,0,0,0,6-5.62c6.58-20.64,13.31-41.61,19.82-61.89l7.53-23.49c2.81-8.75,5.66-17.73,8.11-25.47l0,0a4.79,4.79,0,0,0-1.7-6.43,4.67,4.67,0,0,0-2.39-.64,5.49,5.49,0,0,0-.94.08,5.36,5.36,0,0,0-1.06-5.3,5.18,5.18,0,0,0-3.89-1.71l-.57,0a5.05,5.05,0,0,0-.65-5.49,4.71,4.71,0,0,0-3.64-1.7h-.31c0-.21,0-.42,0-.64l-.07-5.6Zm-98,48.39a2.31,2.31,0,0,1,.43-.13c17-4.16,35-8.91,52.82-15.44a27.41,27.41,0,0,0,14,18.27c-3.73,10.92-7.73,22.74-12.2,36.07-17,2.44-28.34,12.27-33.09,28.5-18.49,4.34-34.56,8-50.7,11.23,1.66-4.53,3.29-9,4.93-13.47L184,455.85c6.06-16.55,12.33-33.65,18.45-50.5a3,3,0,0,1,.16-.38ZM101.85,425.54a1.86,1.86,0,0,1,.4-.1c13.74-2.27,27-4.66,40.19-7.27l-.34.89-6.16,16.13-5.15,13.49c-5.62,14.7-11.44,29.9-17.11,44.88a1.71,1.71,0,0,1-.07.18l-.15,0c-16,2-30.81,3.36-45.13,4.18a34,34,0,0,0-15.06-21.35c4-8.5,7.88-17.17,11.66-25.56l.59-1.31C80.77,448,92.85,440,101.46,426.06a2.07,2.07,0,0,1,.39-.52Z" />
                <path class="cls-2"
                    d="M181.38,460.61l4.37-11.67c5.62-15,11.43-30.54,17.1-45.82.55-1.49,1.24-3.35,3.26-3.35a4.81,4.81,0,0,1,3.23,1.81c13.11,13.34,15.19,32.52,5.41,50.07C207,465.54,192.22,478,176.14,484.07L172,485.64Z" />
                <path class="cls-3"
                    d="M206.11,401.77c.41,0,1,.37,1.81,1.22,12.53,12.74,14.52,30.74,5.08,47.69-7.46,13.4-21.85,25.55-37.57,31.52l7.83-20.89q10.74-28.74,21.46-57.49c.47-1.25.78-2.05,1.39-2.05m0-4h0c-3.41,0-4.58,3.14-5.14,4.65-5.68,15.33-11.51,30.9-17.14,45.95l-4.32,11.54L174.23,474l-2.55,6.79-3.11,8.28,8.28-3.14c16.5-6.27,31.69-19,39.64-33.31,10.23-18.36,8-38.46-5.72-52.45a6.64,6.64,0,0,0-4.66-2.41Z" />
                <path class="cls-2"
                    d="M108.16,496.67C97.05,486.36,93.3,473.88,97,459.59c2.56-9.84,8.16-18.65,17.12-26.92a82.53,82.53,0,0,1,24.34-15.44l4.36-1.84-32.52,83.28Z" />
                <path class="cls-3"
                    d="M139.24,419.07c-10,25.67-19.81,50.74-29.72,76.14C98.85,485.31,95.41,473.7,99,460.09c2.7-10.39,8.76-18.77,16.53-25.94a80.66,80.66,0,0,1,23.76-15.08m7.18-7.37-8.73,3.69a84.4,84.4,0,0,0-24.92,15.82c-9.25,8.53-15,17.65-17.69,27.88-3.92,15.06,0,28.19,11.72,39.05l4.3,4,2.14-5.48L143,420.53l3.45-8.83Z" />
            </g>
            <line class="cls-4" x1="304" y1="478.63" x2="485" y2="450" />
            <line class="cls-4" x1="412" y1="413" x2="520" y2="396" />
            <line class="cls-4" x1="334" y1="372.63" x2="479" y2="350" />
        </g>
    </g>
</svg>