<svg xmlns="http://www.w3.org/2000/svg" viewBox="0 0 695 846"><defs><style>.cls-1{fill:none;}.cls-2{fill:#292929;}.cls-3{fill:#e9e7e7;}</style></defs><g id="Layer_2" data-name="Layer 2"><g id="Layer_1-2" data-name="Layer 1"><rect class="cls-1" width="691" height="846" transform="translate(691 846) rotate(180)"/><g id="Hand"><g id="Middle_Fing"><path class="cls-2" d="M392.55,579.89c-3.16,0-4.55-2.75-5-3.65-4.06-8-8.66-15.86-13.11-23.47-3.35-5.72-6.81-11.65-10-17.6C359,525.1,356.34,514.34,353.81,504c-1.38-5.66-2.8-11.51-4.66-17.17a5.59,5.59,0,0,1-.37-2.51,5.41,5.41,0,0,1,.66-1.84c4.38-8.41,10.6-19,19.92-26.28,7.73-6,14.14-13.87,20.34-21.44,1.45-1.77,2.9-3.54,4.36-5.29,8.9-10.61,17.85-17.67,28.15-22.23l.84-.37.84.4c3.1,1.49,2.48,4.58,2.27,5.59-.24,1.21-.36,2.44-.5,3.74s-.28,2.73-.56,4.13a18.75,18.75,0,0,0,1.48,11.78,29.38,29.38,0,0,0,3.43,5.07c.78,1,1.59,2,2.33,3.13a25,25,0,0,1,2.45,5.1,24.38,24.38,0,0,0,1.7,3.76,22.24,22.24,0,0,0,5.2,5.35c1,.83,2,1.68,3,2.6l5.64,5.49,4.16,4.05,12.92,12.51c7.67,5.54,12.61,13.27,15.1,23.63a14.06,14.06,0,0,1-1.37,10.64c-2.06,3.55-4.64,5.35-7.68,5.35a11.22,11.22,0,0,1-6.11-2.14l-2.43-1.6a141.19,141.19,0,0,0-12.81-7.85,30.07,30.07,0,0,0-7.81-2.44c-4.42-1-9-1.95-12.86-6.14l-2.64-2.83c-4.37-4.7-8.89-9.56-13-14.64-2-2.47-4-5-5.89-7.47-3.17-4.08-6.45-8.3-9.9-12.23-1.06-1.21-2.09-2.44-3.12-3.67-1.5-1.8-3.05-3.65-4.65-5.37-1.77-1.89-2.48-2.28-2.72-2.35-.32.2-1,1-2.25,3.67-4.85,9.88-2.42,22.6-.27,33.82.32,1.65.62,3.27.9,4.84,1.68,9.43,4.72,17,8.25,25.79l.72,1.79c1.08,2.69,2.32,5.4,3.51,8a105.73,105.73,0,0,1,6,15.07c2.74,6.79,5.33,14.73,1.72,23.33-2.36,7.17-8.16,10.48-12.32,12.35A7.7,7.7,0,0,1,392.55,579.89Z"/><path class="cls-3" d="M423,409c1.53.74,1.46,2,1.18,3.4-.52,2.6-.54,5.26-1.06,7.86a20.76,20.76,0,0,0,1.64,13.07c1.52,3.1,4,5.58,5.9,8.43s2.42,6,4.09,8.76c2,3.44,5.7,5.65,8.53,8.38,3.28,3.16,6.53,6.35,9.8,9.52l13,12.62c7.82,5.6,12.24,13.37,14.44,22.56a12.07,12.07,0,0,1-1.16,9.17c-1.69,2.93-3.64,4.35-5.94,4.35a9.37,9.37,0,0,1-5-1.82,178.33,178.33,0,0,0-15.4-9.54c-6.91-3.59-14.43-2-20.14-8.17-5.27-5.69-10.67-11.34-15.57-17.37-5.32-6.55-10.27-13.4-15.83-19.75-2.64-3-5.1-6.17-7.82-9.09-1.87-2-3.14-3-4.23-3-1.37,0-2.43,1.61-4,4.81-5.87,12-1.76,27.39.47,39.89,1.82,10.28,5.27,18.48,9.07,28,3.08,7.69,7.19,15,9.44,23,2.9,7.15,5,14.35,1.75,22-1.84,5.67-6.07,8.89-11.27,11.23a5.92,5.92,0,0,1-2.37.62c-1.32,0-2.32-.79-3.22-2.55-7.14-14.08-15.67-27.28-23.16-41.12-8.26-15.27-9.8-31.91-15.11-48.07a3.8,3.8,0,0,1-.28-1.62,3.67,3.67,0,0,1,.44-1.18c4.89-9.38,11-19,19.38-25.62,9.7-7.6,17.12-17.62,25-27C403.3,421.52,412,413.89,423,409m.07-4.4-1.69.74c-10.59,4.68-19.77,11.92-28.87,22.78-1.48,1.76-2.95,3.56-4.38,5.3-6.13,7.49-12.47,15.22-20,21.14-9.61,7.52-16,18.34-20.46,26.92a7.2,7.2,0,0,0-.86,2.52,7.34,7.34,0,0,0,.45,3.37c1.84,5.6,3.25,11.41,4.62,17,2.56,10.52,5.2,21.4,10.77,31.7,3.24,6,6.71,11.92,10.06,17.66,4.44,7.58,9,15.42,13.05,23.37,2,3.92,4.8,4.74,6.79,4.74a9.85,9.85,0,0,0,4-1c4.49-2,10.74-5.61,13.37-13.47,3.66-8.8,1.36-17.06-1.71-24.68a106.52,106.52,0,0,0-6-15.26c-1.19-2.6-2.42-5.29-3.48-7.94l-.72-1.79c-3.48-8.67-6.49-16.16-8.13-25.39-.28-1.58-.59-3.21-.91-4.87-2.08-10.91-4.45-23.28.11-32.56.35-.73.64-1.28.87-1.7l.83.86c1.57,1.69,3,3.44,4.59,5.29,1,1.22,2.07,2.48,3.15,3.71,3.4,3.89,6.66,8.08,9.81,12.13,1.92,2.47,3.91,5,5.93,7.51,4.17,5.13,8.71,10,13.11,14.74l2.63,2.83c4.31,4.65,9.41,5.76,13.91,6.73a28.58,28.58,0,0,1,7.31,2.27,139.62,139.62,0,0,1,12.63,7.74l2.43,1.6a13.16,13.16,0,0,0,7.21,2.47c3.81,0,7-2.13,9.41-6.35a16,16,0,0,0,1.58-12.1c-2.59-10.8-7.75-18.88-15.75-24.71l-12.81-12.41-4.14-4L446.07,456c-1-1-2.07-1.85-3.1-2.7a20.81,20.81,0,0,1-4.76-4.83,23.66,23.66,0,0,1-1.55-3.46,26.58,26.58,0,0,0-2.67-5.5c-.78-1.15-1.6-2.21-2.4-3.24a28.26,28.26,0,0,1-3.22-4.72,16.82,16.82,0,0,1-1.31-10.51c.3-1.49.45-2.92.59-4.31s.25-2.44.48-3.55c1-4.89-1.7-7-3.38-7.79l-1.66-.8Z"/></g><g id="Last_Fing"><path class="cls-2" d="M489.62,468.42c-6,0-13.15-6.67-17-10.26l-1-.94L454.83,441.9c-1.29-1.17-2.49-2.38-3.65-3.54-3-3.05-5.92-5.93-9.88-7.79-4.91-2.3-7.56-5.91-10.37-9.74l-1-1.36c-.23-.32-2.11-2.85-3.9-5.32-.91-1.23-1.79-2.45-2.44-3.37-1.19-1.69-2.14-3-.68-4.24l6.56-5.49c8.11-6.8,16.5-13.82,24.78-20.69a12.08,12.08,0,0,1,2.79-1.6c.35-.16.71-.32,1-.49a3.23,3.23,0,0,1,1.5-.39,2.72,2.72,0,0,1,2.07.94c1,1.16,1.33,3.5.91,6.95a91.16,91.16,0,0,0-.71,11,9.71,9.71,0,0,0,.14,2c.54,2.38,2.33,4.71,4.06,7,.59.78,1.21,1.59,1.77,2.39,1.71,2.46,3.46,4.94,5.22,7.43,3.53,5,7.18,10.15,10.58,15.31l1.61,2.43c1.22,1.81,2.47,3.69,3.68,5.62,2.91,4.61,6.4,10.76,7.64,17.36.5,2.65,1.34,7.07-2,10.22A7,7,0,0,1,489.62,468.42Z"/><path class="cls-3" d="M459.57,379.87c1.69,0,1,5.26,1,5.66a93.35,93.35,0,0,0-.72,11.21,11.29,11.29,0,0,0,.19,2.47c.85,3.73,4,7,6.13,10.06,5.18,7.45,10.72,15,15.78,22.7,1.7,2.58,3.53,5.25,5.27,8,3.3,5.24,6.26,10.81,7.37,16.67.56,3,1,6.14-1.41,8.4a5,5,0,0,1-3.55,1.37c-5.79,0-13.62-7.91-16.66-10.68l-16.78-15.31c-4.69-4.28-8.18-8.92-14-11.67-5-2.34-7.43-6.2-10.63-10.49-.46-.63-7.46-10.09-7.33-10.2q15.65-13.1,31.33-26.17A18.66,18.66,0,0,1,459,380a1.3,1.3,0,0,1,.57-.17m0-4h0a5.18,5.18,0,0,0-2.42.62c-.27.14-.6.29-.94.45a13.37,13.37,0,0,0-3.24,1.88c-8.24,6.83-16.57,13.81-24.63,20.56L421.62,405c-.46.39-2.67,2.48-.5,5.73.19.29.48.71.83,1.2.65.93,1.54,2.16,2.45,3.4,1.81,2.49,3.67,5,3.92,5.33l1,1.36c2.83,3.85,5.76,7.84,11.12,10.36,3.65,1.71,6.28,4.35,9.32,7.39,1.18,1.18,2.4,2.4,3.72,3.61l16.79,15.32,1,.93c5.59,5.22,12.08,10.79,18.35,10.79a9,9,0,0,0,6.29-2.46c4.13-3.9,3.14-9.2,2.6-12-1.31-6.94-4.92-13.29-7.92-18.06-1.22-2-2.48-3.84-3.71-5.67l-1.6-2.41c-3.42-5.18-7.07-10.35-10.6-15.35-1.73-2.44-3.52-5-5.23-7.43-.58-.84-1.21-1.66-1.82-2.46-1.6-2.09-3.25-4.25-3.7-6.21a7.93,7.93,0,0,1-.09-1.57,91.14,91.14,0,0,1,.69-10.73c.75-6.1-.81-7.86-1.39-8.53a4.73,4.73,0,0,0-3.57-1.62Z"/></g><g id="Pointer_Ping"><path class="cls-2" d="M297.21,568.5a12.45,12.45,0,0,1-8.5-3.11c-4.08-3.62-1.32-9.48.51-13.36a25.22,25.22,0,0,0,1.21-2.82,50.74,50.74,0,0,0,1.54-7,41,41,0,0,1,2.64-10c6.54-15.3,13.88-33.66,18.65-53.75.6-2.49,1.13-5,1.64-7.46,2.23-10.61,4.34-20.64,11.36-29.76,8.95-11.64,20.65-27.05,31.68-43.06,1.19-1.73,2.41-3.47,3.64-5.21,3.51-5,7.13-10.1,10.12-15.33a84.66,84.66,0,0,0,5.57-12.9c.91-2.46,1.84-5,2.9-7.47a32.78,32.78,0,0,0,2-8.65A45.74,45.74,0,0,1,383.7,341a32,32,0,0,1,8.7-13.83c7.13-6.62,14.7-13.68,21.93-20.93,11.46-11.5,22.78-23.52,33.72-35.15l8.64-9.17c18-19.08,33.51-36.29,47.34-52.65C515,196.33,529.06,179,541,160c9.67-15.51,23.59-27.57,37.2-38.3,11.83-9.33,24.27-18.21,36.3-26.81,9.29-6.64,18.9-13.51,28.14-20.52a196.14,196.14,0,0,0,15.74-13.5,136.15,136.15,0,0,1,10.76-9.32c7.93-5.95,20.62-14.94,20.74-15L693,34.24v152.1l-1.1.55c-3.32,1.69-12.37,6.32-14.26,7.54l-9.38,6c-16.46,10.54-33.47,21.43-48.91,34a28.19,28.19,0,0,0-7.32,9.52,234.28,234.28,0,0,0-15.91,40.92L594.63,290c-3.51,12.26-7.14,24.94-12.53,36-5.53,11.29-11.75,19.95-20,30.26s-18.71,17.81-28.92,25.18c-8,5.77-16.26,11.74-23.19,18.85-7.92,8.11-12.76,19.5-16.46,29.57a85.42,85.42,0,0,0-2.61,9.18,78.1,78.1,0,0,1-3.28,11,38,38,0,0,1-5.65,9.2c-4.75,6-8.14,12.49-11.72,19.33l-.37.71c-.83,1.57-1.55,3.11-2.25,4.59-2.71,5.77-5.26,11.22-12.53,15a28.64,28.64,0,0,1-12.95,3.29,20.88,20.88,0,0,1-9.85-2.34l-.17-.09-.15-.12c-6.4-5.16-7.23-13.16-8-20.22-.15-1.51-.3-2.93-.5-4.32-1.1-7.89,2.19-15.6,5.1-22.4.37-.84.72-1.68,1.07-2.5a309.28,309.28,0,0,1,13.91-27.87c4.23-7.81,8.6-15.89,12.27-24.12.76-1.72,1.62-3.41,2.44-5.05,1.13-2.22,2.19-4.33,3.07-6.54a30.91,30.91,0,0,0,1.08-3.81,5.23,5.23,0,0,1-.42.39,9.32,9.32,0,0,1-2.61,1.41c-.29.12-.59.24-.87.37-3.16,1.52-6.24,4.68-9.21,7.73-1.7,1.76-3.31,3.41-5,4.81a206.77,206.77,0,0,1-16.76,12.74s-.36.51-.44.61a8.66,8.66,0,0,1-1.63,2.09l-.26.24-.34.13c-8.63,3.4-16.24,9.23-24.68,18.91q-2.35,2.7-4.68,5.41c-8.21,9.53-16.7,19.37-26.66,27.76-6.9,5.81-10.74,14.34-14.46,22.58l-.23.52-.48.32a6.06,6.06,0,0,0-1.87,2.76l-.25.52c-2.75,5.76-5.05,12-7.28,18-4.13,11.14-8.41,22.66-15.78,32.29-1.54,2-3,4.28-4.36,6.47a63.67,63.67,0,0,1-6.85,9.51c-4.57,4.91-12.83,10.2-20.17,10.2Z"/><path class="cls-3" d="M691,38.11v147s-12,6.1-14.44,7.64c-19.86,12.82-40,25.16-58.47,40.1A30.18,30.18,0,0,0,610.25,243a236.07,236.07,0,0,0-16,41.27c-3.88,13.36-7.8,28.35-13.9,40.82-5.52,11.28-11.82,20-19.76,29.89-14.34,17.93-36.09,27.59-52,43.88-8,8.23-13,19.58-16.91,30.28-2.4,6.52-3.25,13.7-5.86,20.06a36.9,36.9,0,0,1-5.37,8.72c-5,6.39-8.53,13.18-12.3,20.35-4.08,7.78-5.51,14.37-13.93,18.76a26.38,26.38,0,0,1-12,3.07,19,19,0,0,1-8.92-2.1c-7-5.64-6.6-15.17-7.74-23.27-1.16-8.26,2.93-16.42,6-23.85C439,433,449.81,416.7,457.7,399c1.75-3.94,4-7.66,5.55-11.67.52-1.29,2.77-9.05,1.06-9.05-.35,0-.86.32-1.59,1.08a26.48,26.48,0,0,1-2,2.27,14.32,14.32,0,0,1-3.06,1.52c-5.35,2.56-10.07,9-14.6,12.81a205.42,205.42,0,0,1-16.6,12.62,5,5,0,0,0-1,1.13,7.17,7.17,0,0,1-1.31,1.73c-10.33,4.07-18.27,11.21-25.46,19.46-9.93,11.38-19.43,23.11-31.11,32.95-7.17,6-11.16,14.77-15,23.29-1.48,1-2.05,2.48-2.81,4.07C342,507.65,338.16,526.54,327,541.1c-3.87,5.06-6.78,11.2-11.09,15.83-4,4.27-11.79,9.57-18.71,9.57a10.5,10.5,0,0,1-7.17-2.61c-3.89-3.46,1.18-10.52,2.3-14.08,1.82-5.76,1.64-11.2,4.1-16.82,7.61-17.78,14.27-35.14,18.77-54.09,3.07-12.93,4.26-25.59,12.63-36.46,10.89-14.15,21.61-28.44,31.75-43.15,4.66-6.76,9.77-13.55,13.85-20.68,3.7-6.47,5.65-13.75,8.57-20.58,2.34-5.5,1.84-10.86,3.6-16.44a30.11,30.11,0,0,1,8.15-13c7.43-6.89,14.82-13.81,22-21,14.45-14.49,28.36-29.49,42.41-44.36,16.23-17.19,32.14-34.68,47.41-52.73,13.34-15.76,26.11-31.93,37.09-49.53,9.45-15.16,22.83-26.82,36.75-37.79,20.93-16.5,43.18-31.21,64.41-47.3,12.1-9.18,18.49-16.82,26.49-22.82s20.7-15,20.7-15m4-7.74-6.31,4.47c-.13.09-12.84,9.1-20.79,15.07A139.12,139.12,0,0,0,657,59.36,194.94,194.94,0,0,1,641.4,72.74c-9.23,7-18.82,13.85-28.1,20.48-12,8.61-24.51,17.52-36.38,26.87-13.75,10.84-27.82,23-37.66,38.81-11.83,19-25.86,36.19-36.76,49.07-13.8,16.32-29.26,33.51-47.26,52.57-2.88,3-5.76,6.1-8.63,9.15-10.94,11.63-22.26,23.65-33.7,35.13-7.19,7.21-14.74,14.26-21.87,20.87a34.08,34.08,0,0,0-9.25,14.69,47.67,47.67,0,0,0-1.59,7.94,31.52,31.52,0,0,1-1.87,8.15c-1.08,2.51-2,5.08-2.93,7.56A82.46,82.46,0,0,1,370,376.62c-3,5.15-6.54,10.25-10,15.18-1.21,1.71-2.46,3.48-3.66,5.23-11,16-22.68,31.35-31.62,43-7.3,9.48-9.55,20.2-11.73,30.57-.51,2.43-1,4.94-1.62,7.41-4.74,19.94-12,38.2-18.55,53.44A42.86,42.86,0,0,0,290,541.9a49.39,49.39,0,0,1-1.46,6.71,25.25,25.25,0,0,1-1.12,2.57c-2,4.15-5.22,11.09,0,15.7a14.55,14.55,0,0,0,9.83,3.62c8,0,16.79-5.62,21.64-10.84a65.07,65.07,0,0,0,7.08-9.8c1.43-2.26,2.77-4.39,4.26-6.33,7.55-9.86,11.88-21.53,16.06-32.8,2.22-6,4.51-12.15,7.22-17.83l.25-.54a5.13,5.13,0,0,1,1.18-1.94l1-.63.47-1c3.62-8.05,7.37-16.37,13.92-21.88,10.08-8.49,18.62-18.4,26.88-28,1.56-1.81,3.11-3.61,4.68-5.41,8.21-9.42,15.59-15.08,23.91-18.36l.66-.26.53-.48a10.31,10.31,0,0,0,2-2.46l.19-.25v0A206.12,206.12,0,0,0,445.69,399c1.73-1.46,3.45-3.23,5.11-4.94,2.73-2.81,5.55-5.72,8.29-7.15-.76,1.76-1.63,3.49-2.55,5.3s-1.7,3.37-2.49,5.14c-3.63,8.16-8,16.2-12.2,24-4.88,9-9.93,18.32-14,28.06-.34.82-.7,1.65-1.05,2.48-3,7.05-6.43,15-5.25,23.47.19,1.36.34,2.76.49,4.25.78,7.44,1.66,15.89,8.7,21.57l.3.24.35.18a22.73,22.73,0,0,0,10.78,2.57A30.22,30.22,0,0,0,456,500.6c7.87-4.11,10.57-9.85,13.42-15.94.69-1.46,1.4-3,2.21-4.51l.37-.71c3.54-6.76,6.89-13.13,11.52-19a40,40,0,0,0,5.93-9.68,79.31,79.31,0,0,0,3.37-11.24,83.33,83.33,0,0,1,2.55-9c3.62-9.87,8.36-21,16-28.87,6.81-7,15-12.9,22.93-18.62,10.32-7.45,21-15.15,29.32-25.55s14.62-19.18,20.22-30.64c5.48-11.19,9.13-24,12.67-36.3L598,285.4a231.5,231.5,0,0,1,15.78-40.58,26.09,26.09,0,0,1,6.8-8.86c15.34-12.46,32.31-23.32,48.73-33.83l9.38-6c1.61-1,9.49-5.11,14.08-7.43l2.19-1.11V30.37Z"/></g></g><path class="cls-2" d="M246.44,767a6.58,6.58,0,0,1-2.64-.61c-14.57-6.27-29.76-13.21-45.14-20.62-32.54-15.67-66.46-34.31-103.7-57C77.3,678,58.44,666,37.31,651.88c-1.73-1.15-2.88-1.92-2.81-3.45s1.26-2.19,3.08-3.19l1.63-.91c-.46-.33-1-.71-1.59-1.08-2-1.32-3.19-2.12-3.1-3.72s1.38-2.26,3.52-3.36l1.14-.59-1-.69c-2.15-1.42-3.45-2.29-3.44-3.93a3.07,3.07,0,0,1,1.38-2.47,2.66,2.66,0,0,1-.8-2.17c.16-1.54,1.41-2.18,3.31-3.15l9-4.59,64.23-32.91,3.14-1.6c3.57-1.82,7.26-3.69,10.8-5.66a7.39,7.39,0,0,1,7.9.13c26,15.06,52.5,29.15,78.81,41.88a686.49,686.49,0,0,0,98.12,38.24c7.76,2.37,15.67,4.87,23.32,7.29l10.74,3.38,2.67.84-1.65,2.26a9.84,9.84,0,0,1-2.62,2.36,9.5,9.5,0,0,1,1,.39l.24.05c1.7.38,2.61,1.3,2.7,2.73a3.31,3.31,0,0,1-2,3.06l-.3.18-2.89,2.07.71.16c1.51.33,4,.87,4.27,3.4.21,2.31-2,3.46-3.39,4.22a9.38,9.38,0,0,0-1.4.84l-.12.1.3.09a22.68,22.68,0,0,1,2.28.77l.26.1a3.4,3.4,0,0,1,2.18,1.77c.28.69.68,2.42-1.59,3.64l-.18.1q-10.92,7.77-21.88,15.53L303,728.3Q276.5,747,250,765.72A6.07,6.07,0,0,1,246.44,767Zm-63.2-37.6c21.09,10.82,41.35,20.37,61.47,29a4,4,0,0,0,.84.3.67.67,0,0,0,.24-.13l.46-.32a7,7,0,0,1-2.57-.61C223.55,749,203.29,739.52,183.24,729.4Zm-.11-8.85c21.25,10.89,41.52,20.46,61.51,29a2.37,2.37,0,0,0,.85.25c.07,0,.24,0,.62-.3l.24-.19a8,8,0,0,1-3.16-.75C223.38,740.11,203.26,730.72,183.13,720.55Zm18.94.69c14.21,7,28.21,13.38,42.25,19.42a2.75,2.75,0,0,0,1,.27,2.15,2.15,0,0,0,1.25-.55l6.51-4.64-4,2.71a6,6,0,0,1-3.49,1.21,6.89,6.89,0,0,1-2.62-.58C229.82,733.66,216.05,727.66,202.07,721.24ZM169,694.48c16.21,7.85,32.47,15.16,51.59,23.58l.25-.18c7.28-5.63,15.05-8.48,23.08-8.48a39.75,39.75,0,0,1,19.84,5.71,1.29,1.29,0,0,0,.25.12,1.77,1.77,0,0,0,.29-.18c12.41-8.52,23.4-16,33.59-22.92h0l-.06-.11c-4.2-8.37-4.15-16.72.13-24.85-18.83-5.52-36.85-12.9-53.51-20a3.31,3.31,0,0,0-1.25-.33,2.57,2.57,0,0,0-1.41.55c-15.05,9.79-30.38,19.7-45.21,29.29L184,684.75ZM77.54,643a7.07,7.07,0,0,0,.68.5c12.18,8.15,25,16.11,39.36,24.35a2.57,2.57,0,0,0,1.15.42,2.34,2.34,0,0,0,1.22-.49c13.59-8.58,27.43-17.26,40.81-25.65l12.08-7.58,18.5-11.61C178.12,616.56,165.11,610,151.66,603a2.74,2.74,0,0,0-1.31-.4,4.12,4.12,0,0,0-1.35.32,51.19,51.19,0,0,1-18.64,3.75A44.24,44.24,0,0,1,107.22,600a1.4,1.4,0,0,0-.37-.18,2.23,2.23,0,0,0-.58.26l-1.6.87c-8.45,4.64-17.19,9.43-25.86,14l-.44.27a5.49,5.49,0,0,0,.21.63,32.2,32.2,0,0,1-.81,26.52A4.53,4.53,0,0,0,77.54,643Z"/><path class="cls-3" d="M129.6,579.33a6.05,6.05,0,0,1,3.05.94q38.7,22.43,78.94,42A685.4,685.4,0,0,0,310,660.58c11.28,3.44,22.52,7,34,10.66-1.36,1.86-3.46,2.37-5,4.06,1.29,1,2.87,1.11,4.22,1.71.64.28,1.7.16,1.75,1.07s-.89,1.07-1.48,1.49c-1.35,1-2.7,1.94-4.06,2.89-1.58,1.11-1.25,1.82.45,2.27a1.39,1.39,0,0,1,.26.1c1.6.76,4.47.57,4.61,2.18s-2.65,2.18-4.06,3.33c-.85.69-1.75,1.32-2.83,2.13,1.92,1.23,3.95,1.46,5.77,2.23.49.2,1.21.39,1.37.77.33.81-.58,1-1.07,1.35q-10.94,7.78-21.89,15.53-36.61,25.86-73.22,51.74a4.09,4.09,0,0,1-2.43.91,4.72,4.72,0,0,1-1.85-.44q-22.76-9.81-45.06-20.59C164,726.86,129.66,707.57,96,687.07c-19.47-11.86-38.61-24.22-57.58-36.86-2.59-1.72-2.58-1.73.12-3.22,4.55-2.5,4.55-2.5.19-5.4-3-2-3-2,.22-3.64,4.18-2.16,4.18-2.16.32-4.72-3.41-2.27-3.41-2.27,0-4.55-2.73-2.23-2.73-2.22.22-3.73l73.2-37.5c4.68-2.4,9.39-4.74,14-7.29a5.91,5.91,0,0,1,2.88-.83m-10.87,90.91a4.34,4.34,0,0,0,2.29-.8q26.4-16.68,52.89-33.22l21.57-13.55c-14.72-7-28.87-14.11-42.89-21.44a4.66,4.66,0,0,0-2.24-.63,5.69,5.69,0,0,0-2.07.46,49.13,49.13,0,0,1-17.92,3.61,42,42,0,0,1-22.1-6.39,2.67,2.67,0,0,0-1.41-.47,3.22,3.22,0,0,0-1.54.51c-9.13,5-18.24,10-27.44,14.88-1.74.92-1.8,1.73-1.15,3.39A30.32,30.32,0,0,1,76,641.52c-.93,2-.35,2.61,1.14,3.61,12.87,8.61,26.06,16.7,39.47,24.42a4.37,4.37,0,0,0,2.15.69M117,686.13c.15-2.26.41-3.88-1.87-5.2-22.58-13.18-44.69-27.14-66.49-41.58a4.78,4.78,0,0,0-2.55-1,3.43,3.43,0,0,0-2.54,1.44c24.18,16,48.46,31.6,73.45,46.35m103.58,34a2.33,2.33,0,0,0,1.41-.65c6.95-5.37,14.31-8.06,21.86-8.06a37.72,37.72,0,0,1,18.85,5.45,2.48,2.48,0,0,0,1.25.4,2.55,2.55,0,0,0,1.42-.55Q282.16,705.2,299,693.79c1.18-.8,1.25-1.43.62-2.68-3.91-7.78-3.89-15.61.26-23.29.93-1.71.4-2.07-1.17-2.52-18.31-5.36-36-12.51-53.47-20a5.21,5.21,0,0,0-2-.49,4.53,4.53,0,0,0-2.5.87q-28.85,18.76-57.77,37.41l-18,11.66c18.28,8.93,36.58,17.11,54.94,25.19a1.89,1.89,0,0,0,.78.19M117.12,695c.09-2.22.45-3.85-1.85-5.19-22.6-13.18-44.72-27.14-66.53-41.6a4.81,4.81,0,0,0-2.57-1,3.82,3.82,0,0,0-2.65,1.33c24.24,16.12,48.57,31.66,73.6,46.45m-.28-17.77c.64-1.57-.25-2.15-1.29-2.74C102.89,667.3,90.31,660,77.91,652.38a2.75,2.75,0,0,0-1.42-.62,1.41,1.41,0,0,0-.68.18c13.55,8.66,27.16,17.13,41,25.26m128.51,65.73a4.12,4.12,0,0,0,2.41-.92q18.12-12.93,36.36-25.71c6.81-4.78,12.81-10.55,19.21-15.83.26-.22.57-.46.34-1l-.28,0c-1,0-1.57.82-2.28,1.3q-26.58,18-53.1,36a4,4,0,0,1-2.36.85,4.78,4.78,0,0,1-1.86-.43q-21.21-8.69-42-18.31c-13.71-6.31-27.23-13-40.91-19.92-.86,2.37.14,3.36,2,4.34,26.35,14.17,53.2,27.34,80.7,39.16a4.59,4.59,0,0,0,1.82.44m.14,8.9a2.92,2.92,0,0,0,1.86-.73c2.32-1.82,4.79-3.43,7.2-5.14,13.7-9.68,27.73-18.94,40.06-30.41.69-.64,1.64-1.08,2.1-2.34a5.55,5.55,0,0,0-2.81,1.47q-22.38,15.77-44.7,31.61a4.71,4.71,0,0,1-2.81,1.05,6.23,6.23,0,0,1-2.41-.59q-41.4-17.71-81.1-39a4.6,4.6,0,0,0-2.21-.91h-.14c.05,1.9-.68,3.68,1.86,5.05,26.63,14.25,53.7,27.57,81.46,39.48a4.16,4.16,0,0,0,1.64.41m.06,8.86a2.4,2.4,0,0,0,1.4-.5c14-9.92,28.22-19.51,41-31.06.39-.35,1-.58.87-1.39a1.51,1.51,0,0,0-.46-.07c-.89,0-1.46.79-2.11,1.24Q267.55,742,249,755.24a4.38,4.38,0,0,1-2.59,1,4.87,4.87,0,0,1-1.89-.45q-41.86-18-82.08-39.44c-.45-.24-.86-.71-1.44-.71a1.25,1.25,0,0,0-.54.13c.18,1.78-.65,3.53,1.81,4.86,26.69,14.33,53.86,27.67,81.7,39.6a4.15,4.15,0,0,0,1.63.46m-116-185.36h0a9.72,9.72,0,0,0-4.81,1.33c-3.52,2-7.2,3.82-10.75,5.63l-3.14,1.6L48.12,616.05l-10.41,5.34c-2,1-4.12,2.11-4.4,4.72a4.34,4.34,0,0,0,.29,2.13,4.45,4.45,0,0,0-.88,2.72c0,2,1.09,3.26,2.61,4.41a4.92,4.92,0,0,0-2.81,4c-.12,2.26,1.22,3.57,2.89,4.75-1.52.92-2.82,2.06-2.91,4.17-.11,2.66,1.82,4,3.7,5.2,21.16,14.1,40,26.18,57.72,36.94,37.3,22.72,71.28,41.39,103.88,57.09,15.4,7.42,30.61,14.37,45.21,20.66a8.52,8.52,0,0,0,3.43.77,8.07,8.07,0,0,0,4.75-1.65c17.66-12.51,35.65-25.21,53-37.49l20.17-14.24c7.5-5.3,14.88-10.55,21.81-15.47l0,0a4.77,4.77,0,0,0,2.51-6.15,4.84,4.84,0,0,0-2.32-2.45,5.36,5.36,0,0,0,2.34-4.87,5,5,0,0,0-2.57-4,5.05,5.05,0,0,0,2.8-4.79,4.63,4.63,0,0,0-2.15-3.72c.14-.16.28-.33.41-.51l3.31-4.51-5.34-1.67L334.42,664c-7.63-2.41-15.51-4.9-23.25-7.27a684.94,684.94,0,0,1-97.84-38.13c-26.27-12.71-52.75-26.78-78.68-41.81a9.86,9.86,0,0,0-5.05-1.48ZM80.84,616.15c8.29-4.4,16.64-9,24.72-13.41l1.24-.68a46,46,0,0,0,23.56,6.61,53.43,53.43,0,0,0,19.37-3.88,2.6,2.6,0,0,1,.62-.19,1.93,1.93,0,0,1,.38.17c12.34,6.45,24.34,12.5,36.48,18.37l-1.08.68-14.35,9-12.17,7.63c-13.36,8.37-27.17,17-40.73,25.59a1.2,1.2,0,0,1-.17.11l-.13-.08C104.57,658,92,650.23,80,642.27a34,34,0,0,0,.82-26.12ZM173,694.22l12-7.79,12.76-8.25c14.76-9.54,30-19.41,45-29.17a1.55,1.55,0,0,1,.37-.2,2,2,0,0,1,.41.15c16.05,6.88,33.36,14,51.48,19.45a27.37,27.37,0,0,0,.2,23c-9.55,6.48-19.86,13.52-31.45,21.47a41.27,41.27,0,0,0-20-5.5c-8.22,0-16.15,2.81-23.59,8.36-17.38-7.66-32.41-14.42-47.26-21.54Z"/><path class="cls-2" d="M196.1,699.05a77.34,77.34,0,0,1-21.62-3l-4.25-1.23,22.55-14.35,10.59-6.74c13.49-8.6,27.45-17.48,41.15-26.26a5.72,5.72,0,0,1,3-1.26c2.58,0,3,3,3.1,3.94,2.45,18.54-7.44,35.11-25.81,43.24A71.54,71.54,0,0,1,196.1,699.05Z"/><path class="cls-3" d="M247.53,648.22c.57,0,.9.58,1.12,2.19,2.34,17.72-6.9,33.3-24.64,41.15a69.91,69.91,0,0,1-27.91,5.49A76.08,76.08,0,0,1,175,694.13l18.82-12q25.89-16.49,51.75-33a4.63,4.63,0,0,1,1.93-.93m0-4h0a7.42,7.42,0,0,0-4.09,1.56c-13.79,8.84-27.84,17.79-41.43,26.44l-10.3,6.56-12.63,8-6.19,3.94-7.47,4.75,8.5,2.47a79.86,79.86,0,0,0,22.18,3.07,73.57,73.57,0,0,0,29.53-5.83c19.21-8.51,29.55-25.88,27-45.34-.65-4.93-3.46-5.66-5.08-5.66Z"/><path class="cls-2" d="M112.59,665.22c-2.66-14.93,1.85-27.15,13.41-36.33,8-6.32,17.74-10,29.87-11.2,2.6-.26,5.23-.39,7.82-.39A84.71,84.71,0,0,1,184.6,620l4.6,1.15-76.09,47Z"/><path class="cls-3" d="M163.69,619.3a83.15,83.15,0,0,1,20.43,2.64l-69.56,42.93c-2.56-14.33,1.68-25.67,12.69-34.41,8.41-6.68,18.29-9.73,28.82-10.78q3.81-.37,7.62-.38m0-4h0c-2.66,0-5.36.14-8,.4-12.52,1.25-22.63,5.06-30.91,11.63-12.18,9.67-16.94,22.54-14.14,38.24l1,5.79,5-3.09,10.73-6.62,58.83-36.31,8.06-5-9.19-2.3a86.7,86.7,0,0,0-21.4-2.76Z"/></g></g></svg>