<svg xmlns="http://www.w3.org/2000/svg" viewBox="0 0 629.65 558.2"><defs><style>.cls-1{fill:#292929;}</style></defs><g id="Layer_2" data-name="Layer 2"><g id="Layer_1-2" data-name="Layer 1"><path class="cls-1" d="M303.68,519.35c8.49,0,17,.39,25.45-.08,18.13-1,35.25-5.76,50.76-15.43,19.25-12,31.49-29.34,37.89-50.93,7.51-25.39,9.3-51.34,7.53-77.64-1.33-19.79-5.08-39-12.7-57.42-5.22-12.6-12.18-24.09-22.1-33.61a67.2,67.2,0,0,0-39.42-18.84,3.16,3.16,0,0,1-1.92-1,49.42,49.42,0,0,1,12-1c19.05.84,35.21,8.74,49.68,20.54,13.52,11,24.45,24.36,33.77,39a254.68,254.68,0,0,1,36,93.7c3,17.33,3.83,34.77,1.22,52.29-2.72,18.36-11.2,33.81-23.57,47.25-18.1,19.67-40.72,31-67.05,34.54-27.27,3.63-52.55-1.91-74.79-18.73-4.71-3.57-8.88-7.84-13.3-11.78Z"/><path class="cls-1" d="M133.1,470.27c.78,1.15,1.57,2.29,2.34,3.45,8,12,17.27,23,29.51,31,22.43,14.66,45.22,14.58,68.06,1.05,15.89-9.42,27.48-23.12,36.78-38.81,12.83-21.65,20.23-45.14,23.21-70.1a271.85,271.85,0,0,0,1.19-55c-1.67-19.94-4.79-39.6-13.62-57.87-3.91-8.1-8.84-15.48-16.41-20.6-3.38-2.28-7.22-3.89-11.13-5.95,3.36,0,6.66-.44,9.82.07,12.31,2,20.8,9.42,27,19.79,6.42,10.69,9.8,22.48,12.06,34.6a457,457,0,0,1,6.8,63.4A538.38,538.38,0,0,1,307.55,442c-1.51,19.13-3.57,38.27-6.49,57.22-2.83,18.34-11,34.21-26.15,45.76-9.92,7.58-21.29,11.4-33.66,12.75-38.26,4.19-84.7-20.61-102-59.59a88.83,88.83,0,0,1-6.92-26,7.91,7.91,0,0,1,.16-1.66Z"/><path class="cls-1" d="M210.39,134.16a22,22,0,0,0,2.1,1.61c22.18,12.76,35.28,32.19,41.34,56.68,3,12,2.76,23.86-1.53,35.54a46.73,46.73,0,0,1-13.25,19,12.57,12.57,0,0,1,.53-2.18c8.19-15.55,9.23-32.07,6.28-49-2.55-14.62-8.19-28-17.69-39.51-8-9.69-17.79-16.48-30.31-19a16.37,16.37,0,0,1-2.28-.84,46.07,46.07,0,0,1,8.79-15.12c8.31-9.89,19-15.7,31.61-18.24,2.07-.42,3.4.32,4.8,1.72a142.52,142.52,0,0,1,27.44,39.34C273.85,156,278.8,168,284,179.87c-.8-3.27-1.7-6.62-2.43-10-7.39-34.52-2.39-66.82,18.09-96,13.51-19.24,31.55-32.65,54.49-38.74,21.59-5.74,42.22-2.74,61.72,8,2.48,1.36,4.15,1.35,6.57-.14,22.08-13.6,45.42-14.61,69.4-6.14a113.59,113.59,0,0,1,50,34.79,9.76,9.76,0,0,0,1.06,1c3.74-2,7.29-4,11-5.73,8.75-4,18.11-5.41,27.6-6.26,6-.54,12.11-1.14,18.09-2.13,10.85-1.81,18.18-8.24,22.57-18.17,3.68-8.34,5.18-17.19,5.9-26.2.37-4.7.66-9.41,1.42-14.09,0,8.35.2,16.72-.09,25.06a64.35,64.35,0,0,1-1.92,12.22C624.15,51.85,615,60.6,600.23,63.05c-7.78,1.29-15.66,2-23.5,3-9.6,1.19-19,3.18-27.28,8.45-1,.64-1.93,1.4-3.19,2.32.77,1.08,1.35,1.94,2,2.78,6.11,8.29,10.9,17.07,10.12,27.83-.52,7.17-3.41,13.15-9.51,17.26-7,4.7-14.89,3.29-20-3.45-9-11.84-7-31,4.19-40.91,1.63-1.44,3.38-2.73,5.46-4.4-2.34-2.53-4.47-5.17-6.92-7.46-17.22-16.15-37.46-26.1-61-28.49-15.48-1.56-30.29,1.11-44.23,9.51,2.14,1.85,4.12,3.52,6.06,5.23A96.82,96.82,0,0,1,458,89.75c2.86,6.77,4.61,13.81,4.08,21.29-.7,9.92-5.48,17.21-14.63,20.9-15,6-29.93,6.67-44-2.65-15.95-10.59-21.8-29.38-15.19-47.57,4.42-12.15,12.6-21.53,22.12-29.9.89-.78,1.77-1.57,2.91-2.59a72.38,72.38,0,0,0-22.59-8.73c-30.27-6.18-55.71,3.2-76.94,24.81-16.13,16.42-25.15,36.56-28.61,59.14-5.36,34.93,3.35,67,20.16,97.44,1.28,2.32,2.19,4.84,3.46,7.16a28.2,28.2,0,0,0,3.45,5.1,72.56,72.56,0,0,0,32.64,21.23l4,1.31.07,1L297.17,276c-.19-2.31-.38-4.17-.5-6-2.66-42-13.52-81.66-33.83-118.6a106.63,106.63,0,0,0-18.48-24.8c-7.35-7.22-13.57-8-22.19-2.31-3.54,2.33-6.75,5.17-10.07,7.83A13.26,13.26,0,0,0,210.39,134.16Zm210-80.73c-1.4,1-2.4,1.74-3.33,2.51-8.71,7.21-16.31,15.3-20.52,26.06-6.26,16-.9,33.24,13.34,41.28,12.45,7,24.89,4.86,36.74-1.78,5.86-3.29,8.41-9,8.34-15.64a30.61,30.61,0,0,0-1.16-8.25C448.23,78.81,435.49,65.4,420.41,53.43ZM541.63,80.51c-9,5.51-12.88,13.52-12.3,23.67.27,4.61,1.37,9.14,4.24,13,3.8,5.09,9.27,5.54,13.68,1a20.72,20.72,0,0,0,3.7-5.35C555.56,103.05,551.19,87.75,541.63,80.51Z"/><path class="cls-1" d="M144.89,522.72c-3.93-.59-7.23-1-10.52-1.58A211,211,0,0,1,92.53,510q-45.67-17.88-60-64.75c-8-26.36-9-52.81-.66-79.32a6.67,6.67,0,0,1,1.87-3.12c0,.92.06,1.84,0,2.76-2,28.65,5.85,54.62,21.71,78.23a54.27,54.27,0,0,0,12.08,12.5c8.67,6.61,17.07,4.76,23-4.4,5-7.72,7.35-16.43,8.72-25.35,2.41-15.73,4.45-31.52,6.62-47.29,3.14-22.78,6.83-45.44,14.68-67.18,5.54-15.36,13-29.65,24.76-41.26,13-12.83,28.88-19.41,46.94-21,2.66-.24,5.33-.37,8-.52.18,0,.38.22.8.47-.4.35-.68.77-1.06.89-13.37,4.31-24.06,12.54-33.32,22.81-16.08,17.86-26.4,39-34.12,61.45a272.67,272.67,0,0,0-14.14,72c-1.55,24.83,0,49.33,6.69,73.38,3.93,14.16,9.66,27.5,18.26,39.52A29.57,29.57,0,0,1,144.89,522.72Z"/><path class="cls-1" d="M484.83,483.37c.65-2.78,1.09-4.75,1.56-6.71,4.84-20.3,4.05-40.53-.87-60.67-.58-2.36-.16-3.63,1.66-5.26,5.3-4.72,8.25-11.09,10.87-17.52,5.73-14.07,8.68-28.78,9.85-43.92,1.12-14.58.25-29-4-43-8.72-28.41-28.39-45.5-56.69-52.85-10.84-2.81-22-1.77-33-.15-8.64,1.28-17.21,3.09-25.81,4.65a16,16,0,0,1-2.06,0,13.58,13.58,0,0,1,2-1.52c13.12-6.33,26.73-11.11,41.36-12.28a76.12,76.12,0,0,1,48.88,12.57c14.75,9.62,25.81,22.76,35.59,37.17,14.47,21.32,23.55,44.7,26.43,70.3,3.08,27.26,1.22,54-11.18,79-8.48,17.17-21.14,30.16-38.85,37.93C488.93,481.89,487.33,482.42,484.83,483.37Z"/><path class="cls-1" d="M96.64,233.6c3.78-.58,7.55-1.22,11.34-1.71,12.66-1.63,25.24-1.42,37.65,1.87a57.32,57.32,0,0,1,21.15,10.36c.76.6,1.5,1.24,2.21,1.91a8.57,8.57,0,0,1,.84,1.46c-4.05.4-7.82.75-11.59,1.16-28.42,3-54.94,11.38-78.2,28.54-23.85,17.6-39.37,41.09-48.39,69.08C23.8,370.6,22,395.57,24.27,420.9c.52,5.81,1.46,11.57,2.16,17.36a4.73,4.73,0,0,1-.62,3c-1.52-2.41-3.18-4.75-4.56-7.24-10.78-19.37-16.93-40.22-20-62.11a122.79,122.79,0,0,1,11.6-72.36c7.69-15.79,18.54-28.79,33.9-37.7a2.07,2.07,0,0,1,1.8-.19c-.81.89-1.6,1.8-2.43,2.67-16,16.8-28.44,35.74-35.14,58.16a77.11,77.11,0,0,0-.46,43.88,51.59,51.59,0,0,0,2.24,5.53l1.06.09a18.81,18.81,0,0,0,2.3-3.75c1.33-4,2.48-8.13,3.59-12.23,5.36-19.73,12.77-38.54,24.83-55.26,12.67-17.57,29.23-30.5,48.37-40.23,7.14-3.63,14.6-6.63,21.89-10a54.94,54.94,0,0,0,7.43-3.85c3-1.95,3-4.75-.17-6.24a63.07,63.07,0,0,0-12.37-4.13c-4.23-1-8.62-1.29-12.93-1.89Z"/><path class="cls-1" d="M544.11,365.89c-.43-3.36-.8-6.31-1.2-9.26-2.75-20.33-10.19-39-20.53-56.54a11.6,11.6,0,0,1-1.78-8.49c1.36-8.11-1.78-15.31-6.17-22-6.76-10.23-15.8-18.14-26-24.72-21.08-13.58-44-21-69.28-20.35-23.51.64-43.78,9.23-60.71,25.61a10.51,10.51,0,0,1-3,2.25,6.67,6.67,0,0,1,.69-1.66c14.6-18.72,33-31.56,56.71-35.67A99.32,99.32,0,0,1,460,218.54c32,10.1,58.64,28.17,78.7,55.28,12.28,16.6,18.2,35.36,16.66,56.16a91.62,91.62,0,0,1-10.09,34.8C545.15,365.06,544.81,365.25,544.11,365.89Z"/><path class="cls-1" d="M356.9,199.21c22.34-19.12,63.56-11.4,74.44,12.95-1,0-2,.06-2.89,0-21-1.78-39.22,5.13-55.69,17.63a105.53,105.53,0,0,0-21.42,21.78c-1.7,2.33-3.3,2.68-5.84,1.87-6.82-2.19-12.78-5.88-18.44-10.14-.24-.18-.31-.6-.59-1.17,2-.26,3.93-.45,5.79-.74,9.45-1.47,17.26-6.4,24.7-12s15-11.28,22.16-17.27a50.49,50.49,0,0,0,8.82-9.59c2.45-3.45,1-6.5-3.05-7.86-4.82-1.61-9.68-.88-14.41.27C366.05,196.05,361.74,197.67,356.9,199.21Z"/><path class="cls-1" d="M164.8,239.4l3.18-1.76a54.76,54.76,0,0,0,5.08-2.86c7.2-5.05,7.84-12.37,1.5-18.52a29.78,29.78,0,0,0-20.8-8.43c-13.48-.28-26.18,3.36-38.54,8.38a10.71,10.71,0,0,1-4.18,1.08,5.62,5.62,0,0,1,.89-.93c11.3-7.12,23.11-13,36.62-14.51,11.36-1.26,22,1.29,32,6.62a158.37,158.37,0,0,1,16.37,10.24c11.62,8.18,22.73,17.2,37.14,20.76A149.92,149.92,0,0,1,199.84,245C188.1,245.45,176.55,244.56,164.8,239.4Z"/><path class="cls-1" d="M287.14,264.33c-4-2.26-7.37-4.61-11.1-6.21s-7.8-2.49-11.8-3.71c15.31-45.79,7.06-86.5-27.2-121.9,1.22.77,2.33,1.38,3.33,2.13,13.94,10.33,23.69,24,30.95,39.51a163.55,163.55,0,0,1,14.51,53.59c1.05,10.87,1.09,21.84,1.55,32.76C287.43,261.65,287.24,262.81,287.14,264.33Z"/><path class="cls-1" d="M322.67,238.78c2.14-5.93,4.55-11.77,6.35-17.8,2-6.77,3.34-13.67,1.94-20.86-1.56-8.05-7.16-13.43-15.31-14.3a49.71,49.71,0,0,0-19.14,1.72,9.43,9.43,0,0,1-3.68.47,9.15,9.15,0,0,1,1.68-1.51c13.3-7.08,27-7.85,40.68-1.6,10.68,4.87,13.83,13.54,9.56,24.46-3.52,9-9.53,16.34-15.82,23.48C327,235,325,237.07,323,239.19Z"/><path class="cls-1" d="M243.27,194.6c-17.71-2.55-34.69-.35-51.82,3.66a14.47,14.47,0,0,1,2-1.5,93,93,0,0,1,38-10.55c1.46-.08,2.91-.22,4.37-.33,5.12-.38,6.49.62,7.5,5.65A18.73,18.73,0,0,1,243.27,194.6Z"/></g></g></svg>