<svg xmlns="http://www.w3.org/2000/svg" viewBox="0 0 595.66 271.57"><defs><style>.cls-1{fill:#292929;}</style></defs><g id="Layer_2" data-name="Layer 2"><g id="Layer_1-2" data-name="Layer 1"><path class="cls-1" d="M382,207.07c11.75-1.52,22.19-3,32.81-8.49s23.63-6.51,35.75-8.61c36.93-6.39,73.93-12.36,110.9-18.45a76.29,76.29,0,0,1,10.53-1.2c12.76-.32,22.46,7.82,23.6,19.57,1,10.89-6.76,21.36-18.51,23.76s-23.69,4.08-35.54,6.08c-34.17,5.75-68.3,11.79-102.55,17-7.79,1.19-16-.47-24-.76a60.25,60.25,0,0,0-8.39,0c-3.86.39-7.67,1.27-11.53,1.8-18.95,2.63-37,6.28-52.6,19.48-12.9,10.92-29.14,14.48-46.64,14.32-63.37-.6-126.75-.13-190.12-.28-32-.08-70.09-29.46-76.82-58.82-2.91-12.71-1.57-14.65,11-14.66q163.58-.08,327.14-.14C374.12,197.66,380.45,197.92,382,207.07Zm-1.11,20.48c3.5-.39,6.87-.79,10.24-1.15,8.75-.93,17.48-2.3,26.24-2.62,6.87-.25,14,2.07,20.65,1.05,33.52-5.13,66.92-11,100.36-16.59,11.85-2,23.7-3.94,35.52-6.11,5.9-1.08,9.58-4.62,9.34-10.94-.21-5.88-4.77-9.16-12-9a34.62,34.62,0,0,0-5.27.54Q498,194.09,430.11,205.62c-4,.69-7.83,2.74-11.65,4.37-4.42,1.87-8.58,4.54-13.15,5.81-5.41,1.51-11.12,1.91-16.71,2.75C384.05,219.24,380.37,220.74,380.87,227.55Z"/><path class="cls-1" d="M258.14,123.86c16.07,2.89,31.16,4.8,45.82,8.43,22.25,5.53,44.41,11.66,66.21,18.76,8.51,2.77,16.38,8.26,23.75,13.61,6,4.33,9,10.76,4.54,20.39L51.91,150.8c-2.69-10,1.19-15.76,7.63-18.49,10.32-4.36,21.06-8.47,32-10.4,32.22-5.67,64.82-5.21,97.4-3.93,3.75.14,7.52,0,12.12,0-.46-4.55-.89-8-1.14-11.41-.71-9.79,3.82-15.08,13.52-14.42,12.7.88,25.37,2.33,38,4.08,7.38,1,10.75,6.31,9.6,13.75C260.41,114.13,259.34,118.19,258.14,123.86ZM74.55,138.74c10.34,4.66,294.81,32.35,304.06,29.32-5.73-2.73-10.26-5.29-15.06-7.11-37-14-75.63-20.61-114.63-25.79-3.68-.49-9.27-2.56-10.1-5.14-1.48-4.58-1.32-10.41,5.38-13.11,2.13-.86,3.17-4.43,6.13-8.91l-37.74-3.76a82.28,82.28,0,0,0,1.6,8.69c.24.82,1.47,1.46,2.37,1.94,5.57,3,4.17,8.45,2.59,12.12-1,2.31-6,4-9.28,4-32.88.27-65.76-.3-98.63.32C99.12,131.58,86.77,133.08,74.55,138.74Z"/><path class="cls-1" d="M58.11,0C69.5,19,69.36,31.74,56.17,46.19,38.63,65.42,42.25,75.85,51.64,94c1.11,2.16,2.17,4.34,3.49,7C33,90.52,26.54,64.41,40.94,46a10.19,10.19,0,0,1,1.38-1.61C56.3,32.72,61.72,18,58.11,0Z"/><path class="cls-1" d="M19.79,84.4c6.79,9.73,8.42,19.19,2,26.72-10.62,12.42-14.24,24.78-4.22,40.4-18.68-8.35-22.61-25-11-39.33C16.4,100.12,16.4,100.12,19.79,84.4Z"/></g></g></svg>