<svg xmlns="http://www.w3.org/2000/svg" viewBox="0 0 367.14 250.37"><defs><style>.cls-1{fill:#292929;}</style></defs><g id="Layer_2" data-name="Layer 2"><g id="Layer_1-2" data-name="Layer 1"><path class="cls-1" d="M367.05,147.09c0,10.82.13,21.66,0,32.48-.16,11.18-4.14,21-11.07,29.75-14,17.64-33,27-54,32.88-38.42,10.74-77,11.23-115.29-.52-17.15-5.26-32.2-14-44.26-27.77-8.39-9.59-17.41-18.7-26.72-27.41-14-13.08-31.21-19.42-50-21.86-10.4-1.35-20.92-2-31.16-4.14C22.25,158,11.76,152,5,140.9A31.67,31.67,0,0,1,.14,124.32c-.06-21-.32-42,.07-63C.49,45.74,9,34.54,21.32,25.83,31.78,18.41,43.93,15.52,56.2,12.92c31-6.56,62.3-11.34,94-12.59,17.91-.7,35.9-.17,53.83.5,17.31.65,34.37,3.91,51.12,8.13a194.38,194.38,0,0,1,39.19,14.26c18,9,34,20.26,46.89,35.68,12.09,14.46,21.84,30.26,25.12,49.26a68.73,68.73,0,0,1,.76,10.94c.1,9.33,0,18.66,0,28Zm-117.58,27.8c5.26-.46,14.76-.92,24.15-2.17,17.45-2.3,34.25-6.95,49.69-15.73,9-5.1,16.88-11.44,22.4-20.23,9-14.38,8.44-29.45,2.08-44.53-13.61-32.26-39.13-52-70.4-64.92-10.78-4.46-22.43-7-33.81-9.84a201.3,201.3,0,0,0-43.84-6c-13.94-.38-27.9-.89-41.82-.53a440.45,440.45,0,0,0-73.42,8c-13.86,2.7-27.66,6-41.17,10C33.38,32,24.46,37.4,18,46,10.62,55.68,11.12,67,20,75.23a56.85,56.85,0,0,0,14.55,9.39c9,4.18,18.75,5.69,28.62,6.33,23.24,1.5,44.59,8.08,62,24.3a345,345,0,0,1,24.34,25.08A85.77,85.77,0,0,0,183.59,164C203.42,171.79,224.12,174.48,249.47,174.89Z"/><path class="cls-1" d="M181.56,19.94c9.69,1.23,20.16,2,30.38,4,17.9,3.55,35.95,6.88,53.37,12.15,24.21,7.31,45.15,20.2,59.3,42.11,5.84,9,10.28,18.67,11.86,29.42,1.75,12-1.59,22.38-11.45,29.62a133.23,133.23,0,0,1-22.94,13.89c-11.76,5.4-23.18,3.08-32.19-6.07-6.84-7-12.65-15-18.54-22.79-5-6.64-9.15-13.93-14.25-20.49C222.65,83.14,203,72.22,180.79,65.89c-10.54-3-21.44-4.69-32.13-7.2-4.5-1.06-9.13-2.18-13.22-4.22-6.85-3.42-8-9.07-3.56-15.34,6.41-9.06,15.71-13.86,26.19-16.11C165.5,21.43,173.18,21,181.56,19.94Z"/><path class="cls-1" d="M230.23,124.94c-.42,19.13-17.82,31.42-37.26,26.28-8.09-2.14-14.88-6.62-21-12.14-9-8.16-17.73-16.64-26.91-24.61-6.52-5.67-13.64-10.65-20.38-16.07a51,51,0,0,1-8-7.42c-4.68-5.83-3.77-12,2.15-16.55a29.44,29.44,0,0,1,21.1-6.29c21.45,2.23,42.55,6.21,61.74,16.81,10.25,5.66,18.89,13.28,24.27,23.79,2.51,4.91,3.59,10.56,5.31,15.87Z"/><path class="cls-1" d="M70.64,78.79c-7.42-.29-18.33-3.12-28.73-7.85a29.68,29.68,0,0,1-7.44-5c-4.51-4-5.16-9-1.41-13.79a33.45,33.45,0,0,1,8.8-8C56.5,35.38,72.33,31,89.57,32.75c.5,0,1,.08,1.49.16,15.44,2.28,21,12.46,14.58,26.68C99.63,73,89.2,79.15,70.64,78.79Z"/></g></g></svg>